<?xml version="1.0" encoding="UTF-8" standalone="no"?>
<svg
   height="291.57864mm"
   viewBox="0 0 187.51199 291.57864"
   width="187.51199mm"
   version="1.1"
   id="svg77"
   sodipodi:docname="BinTray 0.15k 300x200.svg"
   inkscape:version="1.3.2 (091e20e, 2023-11-25, custom)"
   inkscape:export-filename="BinTray 0.15k 300x200.pdf"
   inkscape:export-xdpi="600"
   inkscape:export-ydpi="600"
   xmlns:inkscape="http://www.inkscape.org/namespaces/inkscape"
   xmlns:sodipodi="http://sodipodi.sourceforge.net/DTD/sodipodi-0.dtd"
   xmlns="http://www.w3.org/2000/svg"
   xmlns:svg="http://www.w3.org/2000/svg"
   xmlns:rdf="http://www.w3.org/1999/02/22-rdf-syntax-ns#"
   xmlns:cc="http://creativecommons.org/ns#"
   xmlns:dc="http://purl.org/dc/elements/1.1/">
  <defs
     id="defs77" />
  <sodipodi:namedview
     id="namedview77"
     pagecolor="#ffffff"
     bordercolor="#000000"
     borderopacity="0.25"
     inkscape:showpageshadow="2"
     inkscape:pageopacity="0.0"
     inkscape:pagecheckerboard="0"
     inkscape:deskcolor="#d1d1d1"
     inkscape:document-units="mm"
     inkscape:zoom="1.5381767"
     inkscape:cx="302.30597"
     inkscape:cy="903.34225"
     inkscape:window-width="2560"
     inkscape:window-height="1377"
     inkscape:window-x="-8"
     inkscape:window-y="-8"
     inkscape:window-maximized="1"
     inkscape:current-layer="svg77" />
  <!--
BinTray - A Type tray variant to be used up right with sloped walls in front

Created with Boxes.py (https://festi.info/boxes.py)
Creation date: 2024-04-09 09:11:43
Command line (remove spaces between dashes): boxes BinTray '- -sx=30*3' '- -sy=30*3' - -h=50 - -hole_dD=2.5:5.0 - -front=0.25 - -burn=0.15
Url: http://www.festi.info/boxes.py/BinTray?FingerJoint_angle=90.0&FingerJoint_style=rectangular&FingerJoint_surroundingspaces=0.5&FingerJoint_bottom_lip=0.0&FingerJoint_edge_width=1.0&FingerJoint_extra_length=0.0&FingerJoint_finger=2.0&FingerJoint_play=0.0&FingerJoint_space=2.0&FingerJoint_width=1.0&sx=30*3&sy=30*3&h=50&outside=0&outside=1&hole_dD=2.5%3A5.0&front=0.25&thickness=3.0&format=svg&tabs=0.0&qr_code=0&debug=0&labels=0&labels=1&reference=100&inner_corners=loop&burn=0.15&language=en&render=2
Url short: http://www.festi.info/boxes.py/BinTray?sx=30*3&sy=30*3&h=50&hole_dD=2.5%3A5.0&front=0.25&burn=0.15
SettingsUrl: http://www.festi.info/boxes.py/BinTray?FingerJoint_angle=90.0&FingerJoint_style=rectangular&FingerJoint_surroundingspaces=0.5&FingerJoint_bottom_lip=0.0&FingerJoint_edge_width=1.0&FingerJoint_extra_length=0.0&FingerJoint_finger=2.0&FingerJoint_play=0.0&FingerJoint_space=2.0&FingerJoint_width=1.0&sx=30*3&sy=30*3&h=50&outside=0&outside=1&hole_dD=2.5%3A5.0&front=0.25&thickness=3.0&format=svg&tabs=0.0&qr_code=0&debug=0&labels=0&labels=1&reference=100&inner_corners=loop&burn=0.15&language=en&render=2
SettingsUrl short: http://www.festi.info/boxes.py/BinTray?sx=30*3&sy=30*3&h=50&hole_dD=2.5%3A5.0&front=0.25&burn=0.15
-->
  <title
     id="title1">BinTray</title>
  <metadata
     id="metadata1">
    <rdf:RDF>
      <cc:Work>
        <dc:title>Shelf - BinTray</dc:title>
        <dc:date>2024-04-09 09:11:43</dc:date>
        <dc:source>http://www.festi.info/boxes.py/BinTray?FingerJoint_angle=90.0&amp;FingerJoint_style=rectangular&amp;FingerJoint_surroundingspaces=0.5&amp;FingerJoint_bottom_lip=0.0&amp;FingerJoint_edge_width=1.0&amp;FingerJoint_extra_length=0.0&amp;FingerJoint_finger=2.0&amp;FingerJoint_play=0.0&amp;FingerJoint_space=2.0&amp;FingerJoint_width=1.0&amp;sx=30*3&amp;sy=30*3&amp;h=50&amp;outside=0&amp;outside=1&amp;hole_dD=2.5%3A5.0&amp;front=0.25&amp;thickness=3.0&amp;format=svg&amp;tabs=0.0&amp;qr_code=0&amp;debug=0&amp;labels=0&amp;labels=1&amp;reference=100&amp;inner_corners=loop&amp;burn=0.15&amp;language=en&amp;render=2</dc:source>
        <dc:source>http://www.festi.info/boxes.py/BinTray?sx=30*3&amp;sy=30*3&amp;h=50&amp;hole_dD=2.5%3A5.0&amp;front=0.25&amp;burn=0.15</dc:source>
        <dc:description>A Type tray variant to be used up right with sloped walls in front

Created with Boxes.py (https://festi.info/boxes.py)
Command line: boxes BinTray --FingerJoint_angle=90.0 --FingerJoint_style=rectangular --FingerJoint_surroundingspaces=0.5 --FingerJoint_bottom_lip=0.0 --FingerJoint_edge_width=1.0 --FingerJoint_extra_length=0.0 --FingerJoint_finger=2.0 --FingerJoint_play=0.0 --FingerJoint_space=2.0 --FingerJoint_width=1.0 '--sx=30*3' '--sy=30*3' --h=50 --outside=0 --outside=1 --hole_dD=2.5:5.0 --front=0.25 --thickness=3.0 --format=svg --tabs=0.0 --qr_code=0 --debug=0 --labels=0 --labels=1 --reference=100 --inner_corners=loop --burn=0.15
Command line short: boxes BinTray '--sx=30*3' '--sy=30*3' --h=50 --hole_dD=2.5:5.0 --front=0.25 --burn=0.15
Url: http://www.festi.info/boxes.py/BinTray?FingerJoint_angle=90.0&amp;FingerJoint_style=rectangular&amp;FingerJoint_surroundingspaces=0.5&amp;FingerJoint_bottom_lip=0.0&amp;FingerJoint_edge_width=1.0&amp;FingerJoint_extra_length=0.0&amp;FingerJoint_finger=2.0&amp;FingerJoint_play=0.0&amp;FingerJoint_space=2.0&amp;FingerJoint_width=1.0&amp;sx=30*3&amp;sy=30*3&amp;h=50&amp;outside=0&amp;outside=1&amp;hole_dD=2.5%3A5.0&amp;front=0.25&amp;thickness=3.0&amp;format=svg&amp;tabs=0.0&amp;qr_code=0&amp;debug=0&amp;labels=0&amp;labels=1&amp;reference=100&amp;inner_corners=loop&amp;burn=0.15&amp;language=en&amp;render=2
Url short: http://www.festi.info/boxes.py/BinTray?sx=30*3&amp;sy=30*3&amp;h=50&amp;hole_dD=2.5%3A5.0&amp;front=0.25&amp;burn=0.15
SettingsUrl: http://www.festi.info/boxes.py/BinTray?FingerJoint_angle=90.0&amp;FingerJoint_style=rectangular&amp;FingerJoint_surroundingspaces=0.5&amp;FingerJoint_bottom_lip=0.0&amp;FingerJoint_edge_width=1.0&amp;FingerJoint_extra_length=0.0&amp;FingerJoint_finger=2.0&amp;FingerJoint_play=0.0&amp;FingerJoint_space=2.0&amp;FingerJoint_width=1.0&amp;sx=30*3&amp;sy=30*3&amp;h=50&amp;outside=0&amp;outside=1&amp;hole_dD=2.5%3A5.0&amp;front=0.25&amp;thickness=3.0&amp;format=svg&amp;tabs=0.0&amp;qr_code=0&amp;debug=0&amp;labels=0&amp;labels=1&amp;reference=100&amp;inner_corners=loop&amp;burn=0.15&amp;language=en&amp;render=2
SettingsUrl short: http://www.festi.info/boxes.py/BinTray?sx=30*3&amp;sy=30*3&amp;h=50&amp;hole_dD=2.5%3A5.0&amp;front=0.25&amp;burn=0.15
</dc:description>
      </cc:Work>
    </rdf:RDF>
  </metadata>
  <g
     id="p-0"
     style="fill:none;stroke:#000000;stroke-width:0.02;stroke-linecap:round;stroke-linejoin:round;stroke-dasharray:none;stroke-opacity:1"
     transform="translate(-15.987024,-76.022672)">
    <path
       d="m 18.8,396.29 h 100 v -10 h -100 z"
       stroke="rgb(0,0,0)"
       stroke-width="0.30"
       id="path1"
       style="stroke:#000000;stroke-width:0.02;stroke-dasharray:none;stroke-opacity:1" />
    <text
       dominant-baseline="hanging"
       font-size="8px"
       style="font-style:normal;font-weight:normal;font-family:sans-serif;fill:#ff0000;stroke:#000000;stroke-width:0.02;stroke-dasharray:none;stroke-opacity:1"
       text-anchor="middle"
       transform="translate(68.8,387.29)"
       id="text1">100.00mm, burn:0.15mm</text>
  </g>
  <g
     id="p-1"
     style="fill:none;stroke:#000000;stroke-width:0.02;stroke-linecap:round;stroke-linejoin:round;stroke-dasharray:none;stroke-opacity:1"
     transform="translate(-15.987024,-96.660185)">
    <path
       d="m 50.65,375.84 v 2.85 c 0,0.15 0.15,0 0,0 h -2.7 c -0.15,0 0,0.15 0,0 v -5.7 c 0,-0.15 -0.15,0 0,0 h 2.7 c 0.15,0 0,-0.15 0,0 z"
       stroke="rgb(0,0,255)"
       stroke-width="0.30"
       id="path2"
       style="stroke:#000000;stroke-width:0.02;stroke-dasharray:none;stroke-opacity:1" />
    <path
       d="m 50.65,363.84 v 2.85 c 0,0.15 0.15,0 0,0 h -2.7 c -0.15,0 0,0.15 0,0 v -5.7 c 0,-0.15 -0.15,0 0,0 h 2.7 c 0.15,0 0,-0.15 0,0 z"
       stroke="rgb(0,0,255)"
       stroke-width="0.30"
       id="path3"
       style="stroke:#000000;stroke-width:0.02;stroke-dasharray:none;stroke-opacity:1" />
    <path
       d="m 50.65,351.84 v 2.85 c 0,0.15 0.15,0 0,0 h -2.7 c -0.15,0 0,0.15 0,0 v -5.7 c 0,-0.15 -0.15,0 0,0 h 2.7 c 0.15,0 0,-0.15 0,0 z"
       stroke="rgb(0,0,255)"
       stroke-width="0.30"
       id="path4"
       style="stroke:#000000;stroke-width:0.02;stroke-dasharray:none;stroke-opacity:1" />
    <path
       d="m 50.65,339.84 v 2.85 c 0,0.15 0.15,0 0,0 h -2.7 c -0.15,0 0,0.15 0,0 v -5.7 c 0,-0.15 -0.15,0 0,0 h 2.7 c 0.15,0 0,-0.15 0,0 z"
       stroke="rgb(0,0,255)"
       stroke-width="0.30"
       id="path5"
       style="stroke:#000000;stroke-width:0.02;stroke-dasharray:none;stroke-opacity:1" />
    <path
       d="m 79.65,375.84 v 2.85 c 0,0.15 0.15,0 0,0 h -2.7 c -0.15,0 0,0.15 0,0 v -5.7 c 0,-0.15 -0.15,0 0,0 h 2.7 c 0.15,0 0,-0.15 0,0 z"
       stroke="rgb(0,0,255)"
       stroke-width="0.30"
       id="path6"
       style="stroke:#000000;stroke-width:0.02;stroke-dasharray:none;stroke-opacity:1" />
    <path
       d="m 79.65,363.84 v 2.85 c 0,0.15 0.15,0 0,0 h -2.7 c -0.15,0 0,0.15 0,0 v -5.7 c 0,-0.15 -0.15,0 0,0 h 2.7 c 0.15,0 0,-0.15 0,0 z"
       stroke="rgb(0,0,255)"
       stroke-width="0.30"
       id="path7"
       style="stroke:#000000;stroke-width:0.02;stroke-dasharray:none;stroke-opacity:1" />
    <path
       d="m 79.65,351.84 v 2.85 c 0,0.15 0.15,0 0,0 h -2.7 c -0.15,0 0,0.15 0,0 v -5.7 c 0,-0.15 -0.15,0 0,0 h 2.7 c 0.15,0 0,-0.15 0,0 z"
       stroke="rgb(0,0,255)"
       stroke-width="0.30"
       id="path8"
       style="stroke:#000000;stroke-width:0.02;stroke-dasharray:none;stroke-opacity:1" />
    <path
       d="m 79.65,339.84 v 2.85 c 0,0.15 0.15,0 0,0 h -2.7 c -0.15,0 0,0.15 0,0 v -5.7 c 0,-0.15 -0.15,0 0,0 h 2.7 c 0.15,0 0,-0.15 0,0 z"
       stroke="rgb(0,0,255)"
       stroke-width="0.30"
       id="path9"
       style="stroke:#000000;stroke-width:0.02;stroke-dasharray:none;stroke-opacity:1" />
    <text
       dominant-baseline="hanging"
       font-size="4px"
       style="font-style:normal;font-weight:normal;font-family:sans-serif;fill:#ff0000;stroke:#000000;stroke-width:0.02;stroke-dasharray:none;stroke-opacity:1"
       text-anchor="middle"
       transform="translate(63.8,356.869)"
       id="text9">bottom</text>
    <path
       d="m 21.8,384.49 h 3 c 0.083,0 0.15,-0.067 0.15,-0.15 v -2.85 c 0,-0.15 -0.15,0 0,0 h 5.7 c 0.15,0 0,-0.15 0,0 v 2.85 c 0,0.083 0.067,0.15 0.15,0.15 h 6 c 0.083,0 0.15,-0.067 0.15,-0.15 v -2.85 c 0,-0.15 -0.15,0 0,0 h 5.7 c 0.15,0 0,-0.15 0,0 v 2.85 c 0,0.083 0.067,0.15 0.15,0.15 h 6 c 0.083,0 0.15,-0.067 0.15,-0.15 v -2.85 c 0,-0.15 -0.15,0 0,0 h 5.7 c 0.15,0 0,-0.15 0,0 v 2.85 c 0,0.083 0.067,0.15 0.15,0.15 h 6 c 0.083,0 0.15,-0.067 0.15,-0.15 v -2.85 c 0,-0.15 -0.15,0 0,0 h 5.7 c 0.15,0 0,-0.15 0,0 v 2.85 c 0,0.083 0.067,0.15 0.15,0.15 h 6 c 0.083,0 0.15,-0.067 0.15,-0.15 v -2.85 c 0,-0.15 -0.15,0 0,0 h 5.7 c 0.15,0 0,-0.15 0,0 v 2.85 c 0,0.083 0.067,0.15 0.15,0.15 h 6 c 0.083,0 0.15,-0.067 0.15,-0.15 v -2.85 c 0,-0.15 -0.15,0 0,0 h 5.7 c 0.15,0 0,-0.15 0,0 v 2.85 c 0,0.083 0.067,0.15 0.15,0.15 h 6 c 0.083,0 0.15,-0.067 0.15,-0.15 v -2.85 c 0,-0.15 -0.15,0 0,0 h 5.7 c 0.15,0 0,-0.15 0,0 v 2.85 c 0,0.083 0.067,0.15 0.15,0.15 h 3 c 0.083,0 0.15,-0.067 0.15,-0.15 v -3 -2.35 c 0,-0.15 -0.15,0 0,0 h 2.85 c 0.083,0 0.15,-0.067 0.15,-0.15 v -6 c 0,-0.082 -0.067,-0.15 -0.15,-0.15 h -2.85 c -0.15,0 0,0.15 0,0 v -5.7 c 0,-0.15 -0.15,0 0,0 h 2.85 c 0.083,0 0.15,-0.067 0.15,-0.15 v -6 c 0,-0.082 -0.067,-0.15 -0.15,-0.15 h -2.85 c -0.15,0 0,0.15 0,0 v -5.7 c 0,-0.15 -0.15,0 0,0 h 2.85 c 0.083,0 0.15,-0.067 0.15,-0.15 v -6 c 0,-0.082 -0.067,-0.15 -0.15,-0.15 h -2.85 c -0.15,0 0,0.15 0,0 v -5.7 c 0,-0.15 -0.15,0 0,0 h 2.85 c 0.083,0 0.15,-0.067 0.15,-0.15 v -6 c 0,-0.082 -0.067,-0.15 -0.15,-0.15 h -2.85 c -0.15,0 0,0.15 0,0 v -2.35 -1.242 c 0,-0.083 -0.067,-0.15 -0.15,-0.15 h -4 c -0.083,0 -0.15,0.067 -0.15,0.15 v 1.971 c 0,0.15 0.15,0 0,0 h -5.7 c -0.15,0 0,0.15 0,0 v -1.971 c 0,-0.083 -0.067,-0.15 -0.15,-0.15 h -6 c -0.083,0 -0.15,0.067 -0.15,0.15 v 1.971 c 0,0.15 0.15,0 0,0 h -5.7 c -0.15,0 0,0.15 0,0 v -1.971 c 0,-0.083 -0.067,-0.15 -0.15,-0.15 h -4 -3 -4 c -0.083,0 -0.15,0.067 -0.15,0.15 v 1.971 c 0,0.15 0.15,0 0,0 h -5.7 c -0.15,0 0,0.15 0,0 v -1.971 c 0,-0.083 -0.067,-0.15 -0.15,-0.15 h -6 c -0.083,0 -0.15,0.067 -0.15,0.15 v 1.971 c 0,0.15 0.15,0 0,0 h -5.7 c -0.15,0 0,0.15 0,0 v -1.971 c 0,-0.083 -0.067,-0.15 -0.15,-0.15 h -4 -3 -4 c -0.083,0 -0.15,0.067 -0.15,0.15 v 1.971 c 0,0.15 0.15,0 0,0 h -5.7 c -0.15,0 0,0.15 0,0 v -1.971 c 0,-0.083 -0.067,-0.15 -0.15,-0.15 h -6 c -0.083,0 -0.15,0.067 -0.15,0.15 v 1.971 c 0,0.15 0.15,0 0,0 h -5.7 c -0.15,0 0,0.15 0,0 v -1.971 c 0,-0.083 -0.067,-0.15 -0.15,-0.15 h -4 c -0.083,0 -0.15,0.067 -0.15,0.15 v 1.242 2.35 c 0,0.15 0.15,0 0,0 H 18.8 c -0.083,0 -0.15,0.068 -0.15,0.15 v 6 c 0,0.083 0.067,0.15 0.15,0.15 h 2.85 c 0.15,0 0,-0.15 0,0 v 5.7 c 0,0.15 0.15,0 0,0 H 18.8 c -0.083,0 -0.15,0.068 -0.15,0.15 v 6 c 0,0.083 0.067,0.15 0.15,0.15 h 2.85 c 0.15,0 0,-0.15 0,0 v 5.7 c 0,0.15 0.15,0 0,0 H 18.8 c -0.083,0 -0.15,0.068 -0.15,0.15 v 6 c 0,0.083 0.067,0.15 0.15,0.15 h 2.85 c 0.15,0 0,-0.15 0,0 v 5.7 c 0,0.15 0.15,0 0,0 H 18.8 c -0.083,0 -0.15,0.068 -0.15,0.15 v 6 c 0,0.083 0.067,0.15 0.15,0.15 h 2.85 c 0.15,0 0,-0.15 0,0 v 2.35 3 c 0,0.083 0.067,0.15 0.15,0.15"
       stroke="rgb(0,0,0)"
       stroke-width="0.30"
       id="path10"
       style="stroke:#000000;stroke-width:0.02;stroke-dasharray:none;stroke-opacity:1" />
  </g>
  <g
     id="p-2"
     style="fill:none;stroke:#000000;stroke-width:0.02;stroke-linecap:round;stroke-linejoin:round;stroke-dasharray:none;stroke-opacity:1"
     transform="translate(-15.987024,-96.660185)">
    <path
       d="m 142.45,375.84 v 2.85 c 0,0.15 0.15,0 0,0 h -2.7 c -0.15,0 0,0.15 0,0 v -5.7 c 0,-0.15 -0.15,0 0,0 h 2.7 c 0.15,0 0,-0.15 0,0 z"
       stroke="rgb(0,0,255)"
       stroke-width="0.30"
       id="path11"
       style="stroke:#000000;stroke-width:0.02;stroke-dasharray:none;stroke-opacity:1" />
    <path
       d="m 142.45,363.84 v 2.85 c 0,0.15 0.15,0 0,0 h -2.7 c -0.15,0 0,0.15 0,0 v -5.7 c 0,-0.15 -0.15,0 0,0 h 2.7 c 0.15,0 0,-0.15 0,0 z"
       stroke="rgb(0,0,255)"
       stroke-width="0.30"
       id="path12"
       style="stroke:#000000;stroke-width:0.02;stroke-dasharray:none;stroke-opacity:1" />
    <path
       d="m 142.45,351.84 v 2.85 c 0,0.15 0.15,0 0,0 h -2.7 c -0.15,0 0,0.15 0,0 v -5.7 c 0,-0.15 -0.15,0 0,0 h 2.7 c 0.15,0 0,-0.15 0,0 z"
       stroke="rgb(0,0,255)"
       stroke-width="0.30"
       id="path13"
       style="stroke:#000000;stroke-width:0.02;stroke-dasharray:none;stroke-opacity:1" />
    <path
       d="m 142.45,339.84 v 2.85 c 0,0.15 0.15,0 0,0 h -2.7 c -0.15,0 0,0.15 0,0 v -5.7 c 0,-0.15 -0.15,0 0,0 h 2.7 c 0.15,0 0,-0.15 0,0 z"
       stroke="rgb(0,0,255)"
       stroke-width="0.30"
       id="path14"
       style="stroke:#000000;stroke-width:0.02;stroke-dasharray:none;stroke-opacity:1" />
    <path
       d="m 171.45,375.84 v 2.85 c 0,0.15 0.15,0 0,0 h -2.7 c -0.15,0 0,0.15 0,0 v -5.7 c 0,-0.15 -0.15,0 0,0 h 2.7 c 0.15,0 0,-0.15 0,0 z"
       stroke="rgb(0,0,255)"
       stroke-width="0.30"
       id="path15"
       style="stroke:#000000;stroke-width:0.02;stroke-dasharray:none;stroke-opacity:1" />
    <path
       d="m 171.45,363.84 v 2.85 c 0,0.15 0.15,0 0,0 h -2.7 c -0.15,0 0,0.15 0,0 v -5.7 c 0,-0.15 -0.15,0 0,0 h 2.7 c 0.15,0 0,-0.15 0,0 z"
       stroke="rgb(0,0,255)"
       stroke-width="0.30"
       id="path16"
       style="stroke:#000000;stroke-width:0.02;stroke-dasharray:none;stroke-opacity:1" />
    <path
       d="m 171.45,351.84 v 2.85 c 0,0.15 0.15,0 0,0 h -2.7 c -0.15,0 0,0.15 0,0 v -5.7 c 0,-0.15 -0.15,0 0,0 h 2.7 c 0.15,0 0,-0.15 0,0 z"
       stroke="rgb(0,0,255)"
       stroke-width="0.30"
       id="path17"
       style="stroke:#000000;stroke-width:0.02;stroke-dasharray:none;stroke-opacity:1" />
    <path
       d="m 171.45,339.84 v 2.85 c 0,0.15 0.15,0 0,0 h -2.7 c -0.15,0 0,0.15 0,0 v -5.7 c 0,-0.15 -0.15,0 0,0 h 2.7 c 0.15,0 0,-0.15 0,0 z"
       stroke="rgb(0,0,255)"
       stroke-width="0.30"
       id="path18"
       style="stroke:#000000;stroke-width:0.02;stroke-dasharray:none;stroke-opacity:1" />
    <text
       dominant-baseline="hanging"
       font-size="4px"
       style="font-style:normal;font-weight:normal;font-family:sans-serif;fill:#ff0000;stroke:#000000;stroke-width:0.02;stroke-dasharray:none;stroke-opacity:1"
       text-anchor="middle"
       transform="translate(155.6,354.24)"
       id="text18">left</text>
    <path
       d="m 113.6,384.49 h 3 c 0.083,0 0.15,-0.067 0.15,-0.15 v -2.85 c 0,-0.15 -0.15,0 0,0 h 5.7 c 0.15,0 0,-0.15 0,0 v 2.85 c 0,0.083 0.067,0.15 0.15,0.15 h 6 c 0.083,0 0.15,-0.067 0.15,-0.15 v -2.85 c 0,-0.15 -0.15,0 0,0 h 5.7 c 0.15,0 0,-0.15 0,0 v 2.85 c 0,0.083 0.067,0.15 0.15,0.15 h 6 c 0.083,0 0.15,-0.067 0.15,-0.15 v -2.85 c 0,-0.15 -0.15,0 0,0 h 5.7 c 0.15,0 0,-0.15 0,0 v 2.85 c 0,0.083 0.067,0.15 0.15,0.15 h 6 c 0.083,0 0.15,-0.067 0.15,-0.15 v -2.85 c 0,-0.15 -0.15,0 0,0 h 5.7 c 0.15,0 0,-0.15 0,0 v 2.85 c 0,0.083 0.067,0.15 0.15,0.15 h 6 c 0.083,0 0.15,-0.067 0.15,-0.15 v -2.85 c 0,-0.15 -0.15,0 0,0 h 5.7 c 0.15,0 0,-0.15 0,0 v 2.85 c 0,0.083 0.067,0.15 0.15,0.15 h 6 c 0.083,0 0.15,-0.067 0.15,-0.15 v -2.85 c 0,-0.15 -0.15,0 0,0 h 5.7 c 0.15,0 0,-0.15 0,0 v 2.85 c 0,0.083 0.067,0.15 0.15,0.15 h 6 c 0.083,0 0.15,-0.067 0.15,-0.15 v -2.85 c 0,-0.15 -0.15,0 0,0 h 5.7 c 0.15,0 0,-0.15 0,0 v 2.85 c 0,0.083 0.067,0.15 0.15,0.15 h 3 3 c 0.083,0 0.15,-0.067 0.15,-0.15 v -3 -2.5 c 0,-0.082 -0.067,-0.15 -0.15,-0.15 h -2.85 c -0.15,0 0,0.15 0,0 v -5.7 c 0,-0.15 -0.15,0 0,0 h 2.85 c 0.083,0 0.15,-0.067 0.15,-0.15 v -6 c 0,-0.082 -0.067,-0.15 -0.15,-0.15 h -2.85 c -0.15,0 0,0.15 0,0 v -5.7 c 0,-0.15 -0.15,0 0,0 h 2.85 c 0.083,0 0.15,-0.067 0.15,-0.15 v -6 c 0,-0.082 -0.067,-0.15 -0.15,-0.15 h -2.85 c -0.15,0 0,0.15 0,0 v -5.7 c 0,-0.15 -0.15,0 0,0 h 2.85 c 0.083,0 0.15,-0.067 0.15,-0.15 v -6 c 0,-0.082 -0.067,-0.15 -0.15,-0.15 h -2.85 c -0.15,0 0,0.15 0,0 v -5.7 c 0,-0.15 -0.15,0 0,0 h 2.85 c 0.083,0 0.15,-0.067 0.15,-0.15 v -2.5 c 0,-0.082 -0.067,-0.15 -0.15,-0.15 h -2.976 c -0.024,0 0.023,0.008 0,0 l -19.477,-6.492 c -0.053,-0.018 -0.113,-0.004 -0.153,0.036 l -1.023,1.023 c -0.106,0.106 0.106,0.106 0,0 l -2.015,-2.015 c -0.059,-0.059 -0.153,-0.059 -0.212,0 l -4.243,4.242 c -0.058,0.059 -0.058,0.154 0,0.212 l 2.016,2.016 c 0.106,0.106 0.106,-0.106 0,0 l -0.979,0.978 c -0.044,0.044 0.062,0 0,0 h -2.914 c -0.024,0 0.023,0.008 0,0 l -19.477,-6.492 c -0.053,-0.018 -0.113,-0.004 -0.153,0.036 l -1.023,1.023 c -0.106,0.106 0.106,0.106 0,0 l -2.015,-2.015 c -0.059,-0.059 -0.153,-0.059 -0.212,0 l -4.243,4.242 c -0.058,0.059 -0.058,0.154 0,0.212 l 2.016,2.016 c 0.106,0.106 0.106,-0.106 0,0 l -0.979,0.978 c -0.044,0.044 0.062,0 0,0 h -2.914 c -0.024,0 0.023,0.008 0,0 l -19.477,-6.492 c -0.053,-0.018 -0.113,-0.004 -0.153,0.036 l -1.023,1.023 c -0.106,0.106 0.106,0.106 0,0 l -2.015,-2.015 c -0.059,-0.059 -0.153,-0.059 -0.212,0 l -4.243,4.242 c -0.058,0.059 -0.058,0.154 0,0.212 l 2.016,2.016 c 0.106,0.106 0.106,-0.106 0,0 l -0.979,0.978 c -0.044,0.044 0.062,0 0,0 H 110.6 c -0.083,0 -0.15,0.068 -0.15,0.15 v 2.5 c 0,0.083 0.067,0.15 0.15,0.15 h 2.85 c 0.15,0 0,-0.15 0,0 v 5.7 c 0,0.15 0.15,0 0,0 h -2.85 c -0.083,0 -0.15,0.068 -0.15,0.15 v 6 c 0,0.083 0.067,0.15 0.15,0.15 h 2.85 c 0.15,0 0,-0.15 0,0 v 5.7 c 0,0.15 0.15,0 0,0 h -2.85 c -0.083,0 -0.15,0.068 -0.15,0.15 v 6 c 0,0.083 0.067,0.15 0.15,0.15 h 2.85 c 0.15,0 0,-0.15 0,0 v 5.7 c 0,0.15 0.15,0 0,0 h -2.85 c -0.083,0 -0.15,0.068 -0.15,0.15 v 6 c 0,0.083 0.067,0.15 0.15,0.15 h 2.85 c 0.15,0 0,-0.15 0,0 v 5.7 c 0,0.15 0.15,0 0,0 h -2.85 c -0.083,0 -0.15,0.068 -0.15,0.15 v 2.5 3 c 0,0.083 0.067,0.15 0.15,0.15 h 3"
       stroke="rgb(0,0,0)"
       stroke-width="0.30"
       id="path19"
       style="stroke:#000000;stroke-width:0.02;stroke-dasharray:none;stroke-opacity:1" />
  </g>
  <g
     id="p-3"
     style="fill:none;stroke:#000000;stroke-width:0.02;stroke-linecap:round;stroke-linejoin:round;stroke-dasharray:none;stroke-opacity:1"
     transform="translate(-15.987024,-96.660185)">
    <path
       d="m 142.45,317.54 v 2.85 c 0,0.15 0.15,0 0,0 h -2.7 c -0.15,0 0,0.15 0,0 v -5.7 c 0,-0.15 -0.15,0 0,0 h 2.7 c 0.15,0 0,-0.15 0,0 z"
       stroke="rgb(0,0,255)"
       stroke-width="0.30"
       id="path20"
       style="stroke:#000000;stroke-width:0.02;stroke-dasharray:none;stroke-opacity:1" />
    <path
       d="m 142.45,305.54 v 2.85 c 0,0.15 0.15,0 0,0 h -2.7 c -0.15,0 0,0.15 0,0 v -5.7 c 0,-0.15 -0.15,0 0,0 h 2.7 c 0.15,0 0,-0.15 0,0 z"
       stroke="rgb(0,0,255)"
       stroke-width="0.30"
       id="path21"
       style="stroke:#000000;stroke-width:0.02;stroke-dasharray:none;stroke-opacity:1" />
    <path
       d="m 142.45,293.54 v 2.85 c 0,0.15 0.15,0 0,0 h -2.7 c -0.15,0 0,0.15 0,0 v -5.7 c 0,-0.15 -0.15,0 0,0 h 2.7 c 0.15,0 0,-0.15 0,0 z"
       stroke="rgb(0,0,255)"
       stroke-width="0.30"
       id="path22"
       style="stroke:#000000;stroke-width:0.02;stroke-dasharray:none;stroke-opacity:1" />
    <path
       d="m 142.45,281.54 v 2.85 c 0,0.15 0.15,0 0,0 h -2.7 c -0.15,0 0,0.15 0,0 v -5.7 c 0,-0.15 -0.15,0 0,0 h 2.7 c 0.15,0 0,-0.15 0,0 z"
       stroke="rgb(0,0,255)"
       stroke-width="0.30"
       id="path23"
       style="stroke:#000000;stroke-width:0.02;stroke-dasharray:none;stroke-opacity:1" />
    <path
       d="m 171.45,317.54 v 2.85 c 0,0.15 0.15,0 0,0 h -2.7 c -0.15,0 0,0.15 0,0 v -5.7 c 0,-0.15 -0.15,0 0,0 h 2.7 c 0.15,0 0,-0.15 0,0 z"
       stroke="rgb(0,0,255)"
       stroke-width="0.30"
       id="path24"
       style="stroke:#000000;stroke-width:0.02;stroke-dasharray:none;stroke-opacity:1" />
    <path
       d="m 171.45,305.54 v 2.85 c 0,0.15 0.15,0 0,0 h -2.7 c -0.15,0 0,0.15 0,0 v -5.7 c 0,-0.15 -0.15,0 0,0 h 2.7 c 0.15,0 0,-0.15 0,0 z"
       stroke="rgb(0,0,255)"
       stroke-width="0.30"
       id="path25"
       style="stroke:#000000;stroke-width:0.02;stroke-dasharray:none;stroke-opacity:1" />
    <path
       d="m 171.45,293.54 v 2.85 c 0,0.15 0.15,0 0,0 h -2.7 c -0.15,0 0,0.15 0,0 v -5.7 c 0,-0.15 -0.15,0 0,0 h 2.7 c 0.15,0 0,-0.15 0,0 z"
       stroke="rgb(0,0,255)"
       stroke-width="0.30"
       id="path26"
       style="stroke:#000000;stroke-width:0.02;stroke-dasharray:none;stroke-opacity:1" />
    <path
       d="m 171.45,281.54 v 2.85 c 0,0.15 0.15,0 0,0 h -2.7 c -0.15,0 0,0.15 0,0 v -5.7 c 0,-0.15 -0.15,0 0,0 h 2.7 c 0.15,0 0,-0.15 0,0 z"
       stroke="rgb(0,0,255)"
       stroke-width="0.30"
       id="path27"
       style="stroke:#000000;stroke-width:0.02;stroke-dasharray:none;stroke-opacity:1" />
    <text
       dominant-baseline="hanging"
       font-size="4px"
       style="font-style:normal;font-weight:normal;font-family:sans-serif;fill:#ff0000;stroke:#000000;stroke-width:0.02;stroke-dasharray:none;stroke-opacity:1"
       text-anchor="middle"
       transform="translate(155.6,295.94)"
       id="text27">right</text>
    <path
       d="m 113.6,326.19 h 3 c 0.083,0 0.15,-0.067 0.15,-0.15 v -2.85 c 0,-0.15 -0.15,0 0,0 h 5.7 c 0.15,0 0,-0.15 0,0 v 2.85 c 0,0.083 0.067,0.15 0.15,0.15 h 6 c 0.083,0 0.15,-0.067 0.15,-0.15 v -2.85 c 0,-0.15 -0.15,0 0,0 h 5.7 c 0.15,0 0,-0.15 0,0 v 2.85 c 0,0.083 0.067,0.15 0.15,0.15 h 6 c 0.083,0 0.15,-0.067 0.15,-0.15 v -2.85 c 0,-0.15 -0.15,0 0,0 h 5.7 c 0.15,0 0,-0.15 0,0 v 2.85 c 0,0.083 0.067,0.15 0.15,0.15 h 6 c 0.083,0 0.15,-0.067 0.15,-0.15 v -2.85 c 0,-0.15 -0.15,0 0,0 h 5.7 c 0.15,0 0,-0.15 0,0 v 2.85 c 0,0.083 0.067,0.15 0.15,0.15 h 6 c 0.083,0 0.15,-0.067 0.15,-0.15 v -2.85 c 0,-0.15 -0.15,0 0,0 h 5.7 c 0.15,0 0,-0.15 0,0 v 2.85 c 0,0.083 0.067,0.15 0.15,0.15 h 6 c 0.083,0 0.15,-0.067 0.15,-0.15 v -2.85 c 0,-0.15 -0.15,0 0,0 h 5.7 c 0.15,0 0,-0.15 0,0 v 2.85 c 0,0.083 0.067,0.15 0.15,0.15 h 6 c 0.083,0 0.15,-0.067 0.15,-0.15 v -2.85 c 0,-0.15 -0.15,0 0,0 h 5.7 c 0.15,0 0,-0.15 0,0 v 2.85 c 0,0.083 0.067,0.15 0.15,0.15 h 3 3 c 0.083,0 0.15,-0.067 0.15,-0.15 v -3 -2.5 c 0,-0.082 -0.067,-0.15 -0.15,-0.15 h -2.85 c -0.15,0 0,0.15 0,0 v -5.7 c 0,-0.15 -0.15,0 0,0 h 2.85 c 0.083,0 0.15,-0.067 0.15,-0.15 v -6 c 0,-0.082 -0.067,-0.15 -0.15,-0.15 h -2.85 c -0.15,0 0,0.15 0,0 v -5.7 c 0,-0.15 -0.15,0 0,0 h 2.85 c 0.083,0 0.15,-0.067 0.15,-0.15 v -6 c 0,-0.082 -0.067,-0.15 -0.15,-0.15 h -2.85 c -0.15,0 0,0.15 0,0 v -5.7 c 0,-0.15 -0.15,0 0,0 h 2.85 c 0.083,0 0.15,-0.067 0.15,-0.15 v -6 c 0,-0.082 -0.067,-0.15 -0.15,-0.15 h -2.85 c -0.15,0 0,0.15 0,0 v -5.7 c 0,-0.15 -0.15,0 0,0 h 2.85 c 0.083,0 0.15,-0.067 0.15,-0.15 v -2.5 c 0,-0.082 -0.067,-0.15 -0.15,-0.15 h -2.976 c -0.024,0 0.023,0.008 0,0 l -19.477,-6.492 c -0.053,-0.018 -0.113,-0.004 -0.153,0.036 l -1.023,1.023 c -0.106,0.106 0.106,0.106 0,0 l -2.015,-2.015 c -0.059,-0.059 -0.153,-0.059 -0.212,0 l -4.243,4.242 c -0.058,0.059 -0.058,0.154 0,0.212 l 2.016,2.016 c 0.106,0.106 0.106,-0.106 0,0 l -0.979,0.978 c -0.044,0.044 0.062,0 0,0 h -2.914 c -0.024,0 0.023,0.008 0,0 l -19.477,-6.492 c -0.053,-0.018 -0.113,-0.004 -0.153,0.036 l -1.023,1.023 c -0.106,0.106 0.106,0.106 0,0 l -2.015,-2.015 c -0.059,-0.059 -0.153,-0.059 -0.212,0 l -4.243,4.242 c -0.058,0.059 -0.058,0.154 0,0.212 l 2.016,2.016 c 0.106,0.106 0.106,-0.106 0,0 l -0.979,0.978 c -0.044,0.044 0.062,0 0,0 h -2.914 c -0.024,0 0.023,0.008 0,0 l -19.477,-6.492 c -0.053,-0.018 -0.113,-0.004 -0.153,0.036 l -1.023,1.023 c -0.106,0.106 0.106,0.106 0,0 l -2.015,-2.015 c -0.059,-0.059 -0.153,-0.059 -0.212,0 l -4.243,4.242 c -0.058,0.059 -0.058,0.154 0,0.212 l 2.016,2.016 c 0.106,0.106 0.106,-0.106 0,0 l -0.979,0.978 c -0.044,0.044 0.062,0 0,0 H 110.6 c -0.083,0 -0.15,0.068 -0.15,0.15 v 2.5 c 0,0.083 0.067,0.15 0.15,0.15 h 2.85 c 0.15,0 0,-0.15 0,0 v 5.7 c 0,0.15 0.15,0 0,0 h -2.85 c -0.083,0 -0.15,0.068 -0.15,0.15 v 6 c 0,0.083 0.067,0.15 0.15,0.15 h 2.85 c 0.15,0 0,-0.15 0,0 v 5.7 c 0,0.15 0.15,0 0,0 h -2.85 c -0.083,0 -0.15,0.068 -0.15,0.15 v 6 c 0,0.083 0.067,0.15 0.15,0.15 h 2.85 c 0.15,0 0,-0.15 0,0 v 5.7 c 0,0.15 0.15,0 0,0 h -2.85 c -0.083,0 -0.15,0.068 -0.15,0.15 v 6 c 0,0.083 0.067,0.15 0.15,0.15 h 2.85 c 0.15,0 0,-0.15 0,0 v 5.7 c 0,0.15 0.15,0 0,0 h -2.85 c -0.083,0 -0.15,0.068 -0.15,0.15 v 2.5 3 c 0,0.083 0.067,0.15 0.15,0.15 h 3"
       stroke="rgb(0,0,0)"
       stroke-width="0.30"
       id="path28"
       style="stroke:#000000;stroke-width:0.02;stroke-dasharray:none;stroke-opacity:1" />
  </g>
  <g
     id="p-4"
     style="fill:none;stroke:#000000;stroke-width:0.02;stroke-linecap:round;stroke-linejoin:round;stroke-dasharray:none;stroke-opacity:1"
     transform="translate(-15.987024,-91.368518)">
    <path
       d="m 50.65,317.54 v 2.85 c 0,0.15 0.15,0 0,0 h -2.7 c -0.15,0 0,0.15 0,0 v -5.7 c 0,-0.15 -0.15,0 0,0 h 2.7 c 0.15,0 0,-0.15 0,0 z"
       stroke="rgb(0,0,255)"
       stroke-width="0.30"
       id="path29"
       style="stroke:#000000;stroke-width:0.02;stroke-dasharray:none;stroke-opacity:1" />
    <path
       d="m 50.65,305.54 v 2.85 c 0,0.15 0.15,0 0,0 h -2.7 c -0.15,0 0,0.15 0,0 v -5.7 c 0,-0.15 -0.15,0 0,0 h 2.7 c 0.15,0 0,-0.15 0,0 z"
       stroke="rgb(0,0,255)"
       stroke-width="0.30"
       id="path30"
       style="stroke:#000000;stroke-width:0.02;stroke-dasharray:none;stroke-opacity:1" />
    <path
       d="m 50.65,293.54 v 2.85 c 0,0.15 0.15,0 0,0 h -2.7 c -0.15,0 0,0.15 0,0 v -5.7 c 0,-0.15 -0.15,0 0,0 h 2.7 c 0.15,0 0,-0.15 0,0 z"
       stroke="rgb(0,0,255)"
       stroke-width="0.30"
       id="path31"
       style="stroke:#000000;stroke-width:0.02;stroke-dasharray:none;stroke-opacity:1" />
    <path
       d="m 50.65,281.54 v 2.85 c 0,0.15 0.15,0 0,0 h -2.7 c -0.15,0 0,0.15 0,0 v -5.7 c 0,-0.15 -0.15,0 0,0 h 2.7 c 0.15,0 0,-0.15 0,0 z"
       stroke="rgb(0,0,255)"
       stroke-width="0.30"
       id="path32"
       style="stroke:#000000;stroke-width:0.02;stroke-dasharray:none;stroke-opacity:1" />
    <path
       d="m 79.65,317.54 v 2.85 c 0,0.15 0.15,0 0,0 h -2.7 c -0.15,0 0,0.15 0,0 v -5.7 c 0,-0.15 -0.15,0 0,0 h 2.7 c 0.15,0 0,-0.15 0,0 z"
       stroke="rgb(0,0,255)"
       stroke-width="0.30"
       id="path33"
       style="stroke:#000000;stroke-width:0.02;stroke-dasharray:none;stroke-opacity:1" />
    <path
       d="m 79.65,305.54 v 2.85 c 0,0.15 0.15,0 0,0 h -2.7 c -0.15,0 0,0.15 0,0 v -5.7 c 0,-0.15 -0.15,0 0,0 h 2.7 c 0.15,0 0,-0.15 0,0 z"
       stroke="rgb(0,0,255)"
       stroke-width="0.30"
       id="path34"
       style="stroke:#000000;stroke-width:0.02;stroke-dasharray:none;stroke-opacity:1" />
    <path
       d="m 79.65,293.54 v 2.85 c 0,0.15 0.15,0 0,0 h -2.7 c -0.15,0 0,0.15 0,0 v -5.7 c 0,-0.15 -0.15,0 0,0 h 2.7 c 0.15,0 0,-0.15 0,0 z"
       stroke="rgb(0,0,255)"
       stroke-width="0.30"
       id="path35"
       style="stroke:#000000;stroke-width:0.02;stroke-dasharray:none;stroke-opacity:1" />
    <path
       d="m 79.65,281.54 v 2.85 c 0,0.15 0.15,0 0,0 h -2.7 c -0.15,0 0,0.15 0,0 v -5.7 c 0,-0.15 -0.15,0 0,0 h 2.7 c 0.15,0 0,-0.15 0,0 z"
       stroke="rgb(0,0,255)"
       stroke-width="0.30"
       id="path36"
       style="stroke:#000000;stroke-width:0.02;stroke-dasharray:none;stroke-opacity:1" />
    <text
       dominant-baseline="hanging"
       font-size="4px"
       style="font-style:normal;font-weight:normal;font-family:sans-serif;fill:#ff0000;stroke:#000000;stroke-width:0.02;stroke-dasharray:none;stroke-opacity:1"
       text-anchor="middle"
       transform="translate(63.8,299.19)"
       id="text36">top</text>
    <path
       d="m 21.8,326.19 h 3 c 0.083,0 0.15,-0.067 0.15,-0.15 v -2.85 c 0,-0.15 -0.15,0 0,0 h 5.7 c 0.15,0 0,-0.15 0,0 v 2.85 c 0,0.083 0.067,0.15 0.15,0.15 h 6 c 0.083,0 0.15,-0.067 0.15,-0.15 v -2.85 c 0,-0.15 -0.15,0 0,0 h 5.7 c 0.15,0 0,-0.15 0,0 v 2.85 c 0,0.083 0.067,0.15 0.15,0.15 h 6 c 0.083,0 0.15,-0.067 0.15,-0.15 v -2.85 c 0,-0.15 -0.15,0 0,0 h 5.7 c 0.15,0 0,-0.15 0,0 v 2.85 c 0,0.083 0.067,0.15 0.15,0.15 h 6 c 0.083,0 0.15,-0.067 0.15,-0.15 v -2.85 c 0,-0.15 -0.15,0 0,0 h 5.7 c 0.15,0 0,-0.15 0,0 v 2.85 c 0,0.083 0.067,0.15 0.15,0.15 h 6 c 0.083,0 0.15,-0.067 0.15,-0.15 v -2.85 c 0,-0.15 -0.15,0 0,0 h 5.7 c 0.15,0 0,-0.15 0,0 v 2.85 c 0,0.083 0.067,0.15 0.15,0.15 h 6 c 0.083,0 0.15,-0.067 0.15,-0.15 v -2.85 c 0,-0.15 -0.15,0 0,0 h 5.7 c 0.15,0 0,-0.15 0,0 v 2.85 c 0,0.083 0.067,0.15 0.15,0.15 h 6 c 0.083,0 0.15,-0.067 0.15,-0.15 v -2.85 c 0,-0.15 -0.15,0 0,0 h 5.7 c 0.15,0 0,-0.15 0,0 v 2.85 c 0,0.083 0.067,0.15 0.15,0.15 h 3 c 0.083,0 0.15,-0.067 0.15,-0.15 v -3 -2.35 c 0,-0.15 -0.15,0 0,0 h 2.85 c 0.083,0 0.15,-0.067 0.15,-0.15 v -6 c 0,-0.082 -0.067,-0.15 -0.15,-0.15 h -2.85 c -0.15,0 0,0.15 0,0 v -5.7 c 0,-0.15 -0.15,0 0,0 h 2.85 c 0.083,0 0.15,-0.067 0.15,-0.15 v -6 c 0,-0.082 -0.067,-0.15 -0.15,-0.15 h -2.85 c -0.15,0 0,0.15 0,0 v -5.7 c 0,-0.15 -0.15,0 0,0 h 2.85 c 0.083,0 0.15,-0.067 0.15,-0.15 v -6 c 0,-0.082 -0.067,-0.15 -0.15,-0.15 h -2.85 c -0.15,0 0,0.15 0,0 v -5.7 c 0,-0.15 -0.15,0 0,0 h 2.85 c 0.083,0 0.15,-0.067 0.15,-0.15 v -6 c 0,-0.082 -0.067,-0.15 -0.15,-0.15 h -2.85 c -0.15,0 0,0.15 0,0 v -2.35 c 0,-0.082 -0.067,-0.15 -0.15,-0.15 h -84 c -0.083,0 -0.15,0.068 -0.15,0.15 v 2.35 c 0,0.15 0.15,0 0,0 H 18.8 c -0.083,0 -0.15,0.068 -0.15,0.15 v 6 c 0,0.083 0.067,0.15 0.15,0.15 h 2.85 c 0.15,0 0,-0.15 0,0 v 5.7 c 0,0.15 0.15,0 0,0 H 18.8 c -0.083,0 -0.15,0.068 -0.15,0.15 v 6 c 0,0.083 0.067,0.15 0.15,0.15 h 2.85 c 0.15,0 0,-0.15 0,0 v 5.7 c 0,0.15 0.15,0 0,0 H 18.8 c -0.083,0 -0.15,0.068 -0.15,0.15 v 6 c 0,0.083 0.067,0.15 0.15,0.15 h 2.85 c 0.15,0 0,-0.15 0,0 v 5.7 c 0,0.15 0.15,0 0,0 H 18.8 c -0.083,0 -0.15,0.068 -0.15,0.15 v 6 c 0,0.083 0.067,0.15 0.15,0.15 h 2.85 c 0.15,0 0,-0.15 0,0 v 2.35 3 c 0,0.083 0.067,0.15 0.15,0.15"
       stroke="rgb(0,0,0)"
       stroke-width="0.30"
       id="path37"
       style="stroke:#000000;stroke-width:0.02;stroke-dasharray:none;stroke-opacity:1" />
  </g>
  <g
     id="p-5"
     style="fill:none;stroke:#000000;stroke-width:0.02;stroke-linecap:round;stroke-linejoin:round;stroke-dasharray:none;stroke-opacity:1"
     transform="translate(-15.987024,-85.018517)">
    <path
       d="m 50.65,257.74 v 2.85 c 0,0.15 0.15,0 0,0 h -2.7 c -0.15,0 0,0.15 0,0 v -5.7 c 0,-0.15 -0.15,0 0,0 h 2.7 c 0.15,0 0,-0.15 0,0 z"
       stroke="rgb(0,0,255)"
       stroke-width="0.30"
       id="path38"
       style="stroke:#000000;stroke-width:0.02;stroke-dasharray:none;stroke-opacity:1" />
    <path
       d="m 50.65,245.74 v 2.85 c 0,0.15 0.15,0 0,0 h -2.7 c -0.15,0 0,0.15 0,0 v -5.7 c 0,-0.15 -0.15,0 0,0 h 2.7 c 0.15,0 0,-0.15 0,0 z"
       stroke="rgb(0,0,255)"
       stroke-width="0.30"
       id="path39"
       style="stroke:#000000;stroke-width:0.02;stroke-dasharray:none;stroke-opacity:1" />
    <path
       d="m 50.65,228.74 v 2.85 c 0,0.15 0.15,0 0,0 h -2.7 c -0.15,0 0,0.15 0,0 v -5.7 c 0,-0.15 -0.15,0 0,0 h 2.7 c 0.15,0 0,-0.15 0,0 z"
       stroke="rgb(0,0,255)"
       stroke-width="0.30"
       id="path40"
       style="stroke:#000000;stroke-width:0.02;stroke-dasharray:none;stroke-opacity:1" />
    <path
       d="m 50.65,216.74 v 2.85 c 0,0.15 0.15,0 0,0 h -2.7 c -0.15,0 0,0.15 0,0 v -5.7 c 0,-0.15 -0.15,0 0,0 h 2.7 c 0.15,0 0,-0.15 0,0 z"
       stroke="rgb(0,0,255)"
       stroke-width="0.30"
       id="path41"
       style="stroke:#000000;stroke-width:0.02;stroke-dasharray:none;stroke-opacity:1" />
    <path
       d="m 50.65,199.74 v 2.85 c 0,0.15 0.15,0 0,0 h -2.7 c -0.15,0 0,0.15 0,0 v -5.7 c 0,-0.15 -0.15,0 0,0 h 2.7 c 0.15,0 0,-0.15 0,0 z"
       stroke="rgb(0,0,255)"
       stroke-width="0.30"
       id="path42"
       style="stroke:#000000;stroke-width:0.02;stroke-dasharray:none;stroke-opacity:1" />
    <path
       d="m 50.65,187.74 v 2.85 c 0,0.15 0.15,0 0,0 h -2.7 c -0.15,0 0,0.15 0,0 v -5.7 c 0,-0.15 -0.15,0 0,0 h 2.7 c 0.15,0 0,-0.15 0,0 z"
       stroke="rgb(0,0,255)"
       stroke-width="0.30"
       id="path43"
       style="stroke:#000000;stroke-width:0.02;stroke-dasharray:none;stroke-opacity:1" />
    <path
       d="m 79.65,257.74 v 2.85 c 0,0.15 0.15,0 0,0 h -2.7 c -0.15,0 0,0.15 0,0 v -5.7 c 0,-0.15 -0.15,0 0,0 h 2.7 c 0.15,0 0,-0.15 0,0 z"
       stroke="rgb(0,0,255)"
       stroke-width="0.30"
       id="path44"
       style="stroke:#000000;stroke-width:0.02;stroke-dasharray:none;stroke-opacity:1" />
    <path
       d="m 79.65,245.74 v 2.85 c 0,0.15 0.15,0 0,0 h -2.7 c -0.15,0 0,0.15 0,0 v -5.7 c 0,-0.15 -0.15,0 0,0 h 2.7 c 0.15,0 0,-0.15 0,0 z"
       stroke="rgb(0,0,255)"
       stroke-width="0.30"
       id="path45"
       style="stroke:#000000;stroke-width:0.02;stroke-dasharray:none;stroke-opacity:1" />
    <path
       d="m 79.65,228.74 v 2.85 c 0,0.15 0.15,0 0,0 h -2.7 c -0.15,0 0,0.15 0,0 v -5.7 c 0,-0.15 -0.15,0 0,0 h 2.7 c 0.15,0 0,-0.15 0,0 z"
       stroke="rgb(0,0,255)"
       stroke-width="0.30"
       id="path46"
       style="stroke:#000000;stroke-width:0.02;stroke-dasharray:none;stroke-opacity:1" />
    <path
       d="m 79.65,216.74 v 2.85 c 0,0.15 0.15,0 0,0 h -2.7 c -0.15,0 0,0.15 0,0 v -5.7 c 0,-0.15 -0.15,0 0,0 h 2.7 c 0.15,0 0,-0.15 0,0 z"
       stroke="rgb(0,0,255)"
       stroke-width="0.30"
       id="path47"
       style="stroke:#000000;stroke-width:0.02;stroke-dasharray:none;stroke-opacity:1" />
    <path
       d="m 79.65,199.74 v 2.85 c 0,0.15 0.15,0 0,0 h -2.7 c -0.15,0 0,0.15 0,0 v -5.7 c 0,-0.15 -0.15,0 0,0 h 2.7 c 0.15,0 0,-0.15 0,0 z"
       stroke="rgb(0,0,255)"
       stroke-width="0.30"
       id="path48"
       style="stroke:#000000;stroke-width:0.02;stroke-dasharray:none;stroke-opacity:1" />
    <path
       d="m 79.65,187.74 v 2.85 c 0,0.15 0.15,0 0,0 h -2.7 c -0.15,0 0,0.15 0,0 v -5.7 c 0,-0.15 -0.15,0 0,0 h 2.7 c 0.15,0 0,-0.15 0,0 z"
       stroke="rgb(0,0,255)"
       stroke-width="0.30"
       id="path49"
       style="stroke:#000000;stroke-width:0.02;stroke-dasharray:none;stroke-opacity:1" />
    <text
       dominant-baseline="hanging"
       font-size="4px"
       style="font-style:normal;font-weight:normal;font-family:sans-serif;fill:#ff0000;stroke:#000000;stroke-width:0.02;stroke-dasharray:none;stroke-opacity:1"
       text-anchor="middle"
       transform="translate(63.8,220.89)"
       id="text49">back</text>
    <path
       d="m 21.8,264.89 h 2.85 c 0.15,0 0,-0.15 0,0 v 2.85 c 0,0.083 0.067,0.15 0.15,0.15 h 6 c 0.083,0 0.15,-0.067 0.15,-0.15 v -2.85 c 0,-0.15 -0.15,0 0,0 h 5.7 c 0.15,0 0,-0.15 0,0 v 2.85 c 0,0.083 0.067,0.15 0.15,0.15 h 6 c 0.083,0 0.15,-0.067 0.15,-0.15 v -2.85 c 0,-0.15 -0.15,0 0,0 h 5.7 c 0.15,0 0,-0.15 0,0 v 2.85 c 0,0.083 0.067,0.15 0.15,0.15 h 6 c 0.083,0 0.15,-0.067 0.15,-0.15 v -2.85 c 0,-0.15 -0.15,0 0,0 h 5.7 c 0.15,0 0,-0.15 0,0 v 2.85 c 0,0.083 0.067,0.15 0.15,0.15 h 6 c 0.083,0 0.15,-0.067 0.15,-0.15 v -2.85 c 0,-0.15 -0.15,0 0,0 h 5.7 c 0.15,0 0,-0.15 0,0 v 2.85 c 0,0.083 0.067,0.15 0.15,0.15 h 6 c 0.083,0 0.15,-0.067 0.15,-0.15 v -2.85 c 0,-0.15 -0.15,0 0,0 h 5.7 c 0.15,0 0,-0.15 0,0 v 2.85 c 0,0.083 0.067,0.15 0.15,0.15 h 6 c 0.083,0 0.15,-0.067 0.15,-0.15 v -2.85 c 0,-0.15 -0.15,0 0,0 h 5.7 c 0.15,0 0,-0.15 0,0 v 2.85 c 0,0.083 0.067,0.15 0.15,0.15 h 6 c 0.083,0 0.15,-0.067 0.15,-0.15 v -2.85 c 0,-0.15 -0.15,0 0,0 h 2.85 c 0.083,0 0.15,-0.067 0.15,-0.15 v -2.85 c 0,-0.15 -0.15,0 0,0 h 2.85 c 0.083,0 0.15,-0.067 0.15,-0.15 v -6 c 0,-0.082 -0.067,-0.15 -0.15,-0.15 h -2.85 c -0.15,0 0,0.15 0,0 v -5.7 c 0,-0.15 -0.15,0 0,0 h 2.85 c 0.083,0 0.15,-0.067 0.15,-0.15 v -6 c 0,-0.082 -0.067,-0.15 -0.15,-0.15 h -2.85 c -0.15,0 0,0.15 0,0 v -5.7 c 0,-0.15 -0.15,0 0,0 h 2.85 c 0.083,0 0.15,-0.067 0.15,-0.15 v -6 c 0,-0.082 -0.067,-0.15 -0.15,-0.15 h -2.85 c -0.15,0 0,0.15 0,0 v -5.7 c 0,-0.15 -0.15,0 0,0 h 2.85 c 0.083,0 0.15,-0.067 0.15,-0.15 v -6 c 0,-0.082 -0.067,-0.15 -0.15,-0.15 h -2.85 c -0.15,0 0,0.15 0,0 v -5.7 c 0,-0.15 -0.15,0 0,0 h 2.85 c 0.083,0 0.15,-0.067 0.15,-0.15 v -6 c 0,-0.082 -0.067,-0.15 -0.15,-0.15 h -2.85 c -0.15,0 0,0.15 0,0 v -5.7 c 0,-0.15 -0.15,0 0,0 h 2.85 c 0.083,0 0.15,-0.067 0.15,-0.15 v -6 c 0,-0.082 -0.067,-0.15 -0.15,-0.15 h -2.85 c -0.15,0 0,0.15 0,0 v -5.7 c 0,-0.15 -0.15,0 0,0 h 2.85 c 0.083,0 0.15,-0.067 0.15,-0.15 v -6 c 0,-0.082 -0.067,-0.15 -0.15,-0.15 h -2.85 c -0.15,0 0,0.15 0,0 v -2.85 c 0,-0.082 -0.067,-0.15 -0.15,-0.15 h -2.85 c -0.15,0 0,0.15 0,0 v -2.85 c 0,-0.082 -0.067,-0.15 -0.15,-0.15 h -6 c -0.083,0 -0.15,0.068 -0.15,0.15 v 2.85 c 0,0.15 0.15,0 0,0 h -5.7 c -0.15,0 0,0.15 0,0 v -2.85 c 0,-0.082 -0.067,-0.15 -0.15,-0.15 h -6 c -0.083,0 -0.15,0.068 -0.15,0.15 v 2.85 c 0,0.15 0.15,0 0,0 h -5.7 c -0.15,0 0,0.15 0,0 v -2.85 c 0,-0.082 -0.067,-0.15 -0.15,-0.15 h -6 c -0.083,0 -0.15,0.068 -0.15,0.15 v 2.85 c 0,0.15 0.15,0 0,0 h -5.7 c -0.15,0 0,0.15 0,0 v -2.85 c 0,-0.082 -0.067,-0.15 -0.15,-0.15 h -6 c -0.083,0 -0.15,0.068 -0.15,0.15 v 2.85 c 0,0.15 0.15,0 0,0 h -5.7 c -0.15,0 0,0.15 0,0 v -2.85 c 0,-0.082 -0.067,-0.15 -0.15,-0.15 h -6 c -0.083,0 -0.15,0.068 -0.15,0.15 v 2.85 c 0,0.15 0.15,0 0,0 h -5.7 c -0.15,0 0,0.15 0,0 v -2.85 c 0,-0.082 -0.067,-0.15 -0.15,-0.15 h -6 c -0.083,0 -0.15,0.068 -0.15,0.15 v 2.85 c 0,0.15 0.15,0 0,0 h -5.7 c -0.15,0 0,0.15 0,0 v -2.85 c 0,-0.082 -0.067,-0.15 -0.15,-0.15 h -6 c -0.083,0 -0.15,0.068 -0.15,0.15 v 2.85 c 0,0.15 0.15,0 0,0 H 21.8 c -0.083,0 -0.15,0.068 -0.15,0.15 v 2.85 c 0,0.15 0.15,0 0,0 H 18.8 c -0.083,0 -0.15,0.068 -0.15,0.15 v 6 c 0,0.083 0.067,0.15 0.15,0.15 h 2.85 c 0.15,0 0,-0.15 0,0 v 5.7 c 0,0.15 0.15,0 0,0 H 18.8 c -0.083,0 -0.15,0.068 -0.15,0.15 v 6 c 0,0.083 0.067,0.15 0.15,0.15 h 2.85 c 0.15,0 0,-0.15 0,0 v 5.7 c 0,0.15 0.15,0 0,0 H 18.8 c -0.083,0 -0.15,0.068 -0.15,0.15 v 6 c 0,0.083 0.067,0.15 0.15,0.15 h 2.85 c 0.15,0 0,-0.15 0,0 v 5.7 c 0,0.15 0.15,0 0,0 H 18.8 c -0.083,0 -0.15,0.068 -0.15,0.15 v 6 c 0,0.083 0.067,0.15 0.15,0.15 h 2.85 c 0.15,0 0,-0.15 0,0 v 5.7 c 0,0.15 0.15,0 0,0 H 18.8 c -0.083,0 -0.15,0.068 -0.15,0.15 v 6 c 0,0.083 0.067,0.15 0.15,0.15 h 2.85 c 0.15,0 0,-0.15 0,0 v 5.7 c 0,0.15 0.15,0 0,0 H 18.8 c -0.083,0 -0.15,0.068 -0.15,0.15 v 6 c 0,0.083 0.067,0.15 0.15,0.15 h 2.85 c 0.15,0 0,-0.15 0,0 v 5.7 c 0,0.15 0.15,0 0,0 H 18.8 c -0.083,0 -0.15,0.068 -0.15,0.15 v 6 c 0,0.083 0.067,0.15 0.15,0.15 h 2.85 c 0.15,0 0,-0.15 0,0 v 2.85 c 0,0.083 0.067,0.15 0.15,0.15"
       stroke="rgb(0,0,0)"
       stroke-width="0.30"
       id="path50"
       style="stroke:#000000;stroke-width:0.02;stroke-dasharray:none;stroke-opacity:1" />
    <path
       d="m 98.8,235.89 h 2.85 c 0.15,0 0,-0.15 0,0 v 2.7 c 0,0.15 0.15,0 0,0 h -5.7 c -0.15,0 0,0.15 0,0 v -2.7 c 0,-0.15 -0.15,0 0,0 z"
       stroke="rgb(0,0,255)"
       stroke-width="0.30"
       id="path51"
       style="stroke:#000000;stroke-width:0.02;stroke-dasharray:none;stroke-opacity:1" />
    <path
       d="m 86.8,235.89 h 2.85 c 0.15,0 0,-0.15 0,0 v 2.7 c 0,0.15 0.15,0 0,0 h -5.7 c -0.15,0 0,0.15 0,0 v -2.7 c 0,-0.15 -0.15,0 0,0 z"
       stroke="rgb(0,0,255)"
       stroke-width="0.30"
       id="path52"
       style="stroke:#000000;stroke-width:0.02;stroke-dasharray:none;stroke-opacity:1" />
    <path
       d="m 69.8,235.89 h 2.85 c 0.15,0 0,-0.15 0,0 v 2.7 c 0,0.15 0.15,0 0,0 h -5.7 c -0.15,0 0,0.15 0,0 v -2.7 c 0,-0.15 -0.15,0 0,0 z"
       stroke="rgb(0,0,255)"
       stroke-width="0.30"
       id="path53"
       style="stroke:#000000;stroke-width:0.02;stroke-dasharray:none;stroke-opacity:1" />
    <path
       d="m 57.8,235.89 h 2.85 c 0.15,0 0,-0.15 0,0 v 2.7 c 0,0.15 0.15,0 0,0 h -5.7 c -0.15,0 0,0.15 0,0 v -2.7 c 0,-0.15 -0.15,0 0,0 z"
       stroke="rgb(0,0,255)"
       stroke-width="0.30"
       id="path54"
       style="stroke:#000000;stroke-width:0.02;stroke-dasharray:none;stroke-opacity:1" />
    <path
       d="m 40.8,235.89 h 2.85 c 0.15,0 0,-0.15 0,0 v 2.7 c 0,0.15 0.15,0 0,0 h -5.7 c -0.15,0 0,0.15 0,0 v -2.7 c 0,-0.15 -0.15,0 0,0 z"
       stroke="rgb(0,0,255)"
       stroke-width="0.30"
       id="path55"
       style="stroke:#000000;stroke-width:0.02;stroke-dasharray:none;stroke-opacity:1" />
    <path
       d="m 28.8,235.89 h 2.85 c 0.15,0 0,-0.15 0,0 v 2.7 c 0,0.15 0.15,0 0,0 h -5.7 c -0.15,0 0,0.15 0,0 v -2.7 c 0,-0.15 -0.15,0 0,0 z"
       stroke="rgb(0,0,255)"
       stroke-width="0.30"
       id="path56"
       style="stroke:#000000;stroke-width:0.02;stroke-dasharray:none;stroke-opacity:1" />
    <path
       d="m 98.8,206.89 h 2.85 c 0.15,0 0,-0.15 0,0 v 2.7 c 0,0.15 0.15,0 0,0 h -5.7 c -0.15,0 0,0.15 0,0 v -2.7 c 0,-0.15 -0.15,0 0,0 z"
       stroke="rgb(0,0,255)"
       stroke-width="0.30"
       id="path57"
       style="stroke:#000000;stroke-width:0.02;stroke-dasharray:none;stroke-opacity:1" />
    <path
       d="m 86.8,206.89 h 2.85 c 0.15,0 0,-0.15 0,0 v 2.7 c 0,0.15 0.15,0 0,0 h -5.7 c -0.15,0 0,0.15 0,0 v -2.7 c 0,-0.15 -0.15,0 0,0 z"
       stroke="rgb(0,0,255)"
       stroke-width="0.30"
       id="path58"
       style="stroke:#000000;stroke-width:0.02;stroke-dasharray:none;stroke-opacity:1" />
    <path
       d="m 69.8,206.89 h 2.85 c 0.15,0 0,-0.15 0,0 v 2.7 c 0,0.15 0.15,0 0,0 h -5.7 c -0.15,0 0,0.15 0,0 v -2.7 c 0,-0.15 -0.15,0 0,0 z"
       stroke="rgb(0,0,255)"
       stroke-width="0.30"
       id="path59"
       style="stroke:#000000;stroke-width:0.02;stroke-dasharray:none;stroke-opacity:1" />
    <path
       d="m 57.8,206.89 h 2.85 c 0.15,0 0,-0.15 0,0 v 2.7 c 0,0.15 0.15,0 0,0 h -5.7 c -0.15,0 0,0.15 0,0 v -2.7 c 0,-0.15 -0.15,0 0,0 z"
       stroke="rgb(0,0,255)"
       stroke-width="0.30"
       id="path60"
       style="stroke:#000000;stroke-width:0.02;stroke-dasharray:none;stroke-opacity:1" />
    <path
       d="m 40.8,206.89 h 2.85 c 0.15,0 0,-0.15 0,0 v 2.7 c 0,0.15 0.15,0 0,0 h -5.7 c -0.15,0 0,0.15 0,0 v -2.7 c 0,-0.15 -0.15,0 0,0 z"
       stroke="rgb(0,0,255)"
       stroke-width="0.30"
       id="path61"
       style="stroke:#000000;stroke-width:0.02;stroke-dasharray:none;stroke-opacity:1" />
    <path
       d="m 28.8,206.89 h 2.85 c 0.15,0 0,-0.15 0,0 v 2.7 c 0,0.15 0.15,0 0,0 h -5.7 c -0.15,0 0,0.15 0,0 v -2.7 c 0,-0.15 -0.15,0 0,0 z"
       stroke="rgb(0,0,255)"
       stroke-width="0.30"
       id="path62"
       style="stroke:#000000;stroke-width:0.02;stroke-dasharray:none;stroke-opacity:1" />
    <path
       d="m 94.2,186.24 c 0,-0.193 0.051,-0.382 0.147,-0.55 0.097,-0.167 0.236,-0.306 0.403,-0.402 0.167,-0.097 0.357,-0.148 0.55,-0.148 0.193,0 0.383,0.051 0.55,0.148 0.167,0.096 0.306,0.235 0.403,0.402 0.096,0.168 0.147,0.357 0.147,0.55 v 2.5 c 0,0.054 0.029,0.103 0.075,0.13 0.397,0.23 0.719,0.571 0.925,0.981 0.206,0.41 0.287,0.871 0.234,1.327 -0.053,0.456 -0.239,0.886 -0.534,1.238 -0.295,0.352 -0.686,0.609 -1.126,0.741 -0.44,0.131 -0.908,0.131 -1.348,0 -0.44,-0.132 -0.831,-0.389 -1.126,-0.741 -0.295,-0.352 -0.481,-0.782 -0.534,-1.238 -0.053,-0.456 0.028,-0.917 0.234,-1.327 0.206,-0.41 0.528,-0.751 0.925,-0.981 0.046,-0.027 0.075,-0.076 0.075,-0.13 z"
       stroke="rgb(0,0,255)"
       stroke-width="0.30"
       id="path63"
       style="stroke:#000000;stroke-width:0.02;stroke-dasharray:none;stroke-opacity:1" />
    <path
       d="m 31.2,186.24 c 0,-0.193 0.051,-0.382 0.147,-0.55 0.097,-0.167 0.236,-0.306 0.403,-0.402 0.167,-0.097 0.357,-0.148 0.55,-0.148 0.193,0 0.383,0.051 0.55,0.148 0.167,0.096 0.306,0.235 0.403,0.402 0.096,0.168 0.147,0.357 0.147,0.55 v 2.5 c 0,0.054 0.029,0.103 0.075,0.13 0.397,0.23 0.719,0.571 0.925,0.981 0.206,0.41 0.287,0.871 0.234,1.327 -0.053,0.456 -0.239,0.886 -0.534,1.238 -0.295,0.352 -0.686,0.609 -1.126,0.741 -0.44,0.131 -0.908,0.131 -1.348,0 -0.44,-0.132 -0.831,-0.389 -1.126,-0.741 -0.295,-0.352 -0.481,-0.782 -0.534,-1.238 -0.053,-0.456 0.028,-0.917 0.234,-1.327 0.206,-0.41 0.528,-0.751 0.925,-0.981 0.046,-0.027 0.075,-0.076 0.075,-0.13 z"
       stroke="rgb(0,0,255)"
       stroke-width="0.30"
       id="path64"
       style="stroke:#000000;stroke-width:0.02;stroke-dasharray:none;stroke-opacity:1" />
  </g>
  <g
     id="p-6"
     style="fill:none;stroke:#000000;stroke-width:0.02;stroke-linecap:round;stroke-linejoin:round;stroke-dasharray:none;stroke-opacity:1"
     transform="translate(-15.987024,-96.660185)">
    <text
       dominant-baseline="hanging"
       font-size="4px"
       style="font-style:normal;font-weight:normal;font-family:sans-serif;fill:#ff0000;stroke:#000000;stroke-width:0.02;stroke-dasharray:none;stroke-opacity:1"
       text-anchor="middle"
       id="text64"
       x="155.60001"
       y="247.69405">inner vertical 1</text>
    <path
       d="m 113.6,264.89 h 3.85 c 0.15,0 0,-0.15 0,0 v 2.85 c 0,0.083 0.067,0.15 0.15,0.15 h 6 c 0.083,0 0.15,-0.067 0.15,-0.15 v -2.85 c 0,-0.15 -0.15,0 0,0 h 5.7 c 0.15,0 0,-0.15 0,0 v 2.85 c 0,0.083 0.067,0.15 0.15,0.15 h 6 c 0.083,0 0.15,-0.067 0.15,-0.15 v -2.85 c 0,-0.15 -0.15,0 0,0 h 3.85 3 3.85 c 0.15,0 0,-0.15 0,0 v 2.85 c 0,0.083 0.067,0.15 0.15,0.15 h 6 c 0.083,0 0.15,-0.067 0.15,-0.15 v -2.85 c 0,-0.15 -0.15,0 0,0 h 5.7 c 0.15,0 0,-0.15 0,0 v 2.85 c 0,0.083 0.067,0.15 0.15,0.15 h 6 c 0.083,0 0.15,-0.067 0.15,-0.15 v -2.85 c 0,-0.15 -0.15,0 0,0 h 3.85 3 3.85 c 0.15,0 0,-0.15 0,0 v 2.85 c 0,0.083 0.067,0.15 0.15,0.15 h 6 c 0.083,0 0.15,-0.067 0.15,-0.15 v -2.85 c 0,-0.15 -0.15,0 0,0 h 5.7 c 0.15,0 0,-0.15 0,0 v 2.85 c 0,0.083 0.067,0.15 0.15,0.15 h 6 c 0.083,0 0.15,-0.067 0.15,-0.15 v -2.85 c 0,-0.15 -0.15,0 0,0 h 3.85 c 0.083,0 0.15,-0.067 0.15,-0.15 v -2.35 c 0,-0.15 -0.15,0 0,0 h 2.85 c 0.083,0 0.15,-0.067 0.15,-0.15 v -6 c 0,-0.082 -0.067,-0.15 -0.15,-0.15 h -2.85 c -0.15,0 0,0.15 0,0 v -5.7 c 0,-0.15 -0.15,0 0,0 h 2.85 c 0.083,0 0.15,-0.067 0.15,-0.15 v -6 c 0,-0.082 -0.067,-0.15 -0.15,-0.15 h -2.85 c -0.15,0 0,0.15 0,0 v -5.7 c 0,-0.15 -0.15,0 0,0 h 2.85 c 0.083,0 0.15,-0.067 0.15,-0.15 v -6 c 0,-0.082 -0.067,-0.15 -0.15,-0.15 h -2.85 c -0.15,0 0,0.15 0,0 v -5.7 c 0,-0.15 -0.15,0 0,0 h 2.85 c 0.083,0 0.15,-0.067 0.15,-0.15 v -6 c 0,-0.082 -0.067,-0.15 -0.15,-0.15 h -2.85 c -0.15,0 0,0.15 0,0 v -2.35 c 0,-0.082 -0.067,-0.15 -0.15,-0.15 0.016,0 0.032,0.003 0.047,0.008 l -19.5,-6.5 c -0.053,-0.018 -0.113,-0.004 -0.153,0.036 l -1.023,1.023 c -0.106,0.106 0.106,0.106 0,0 l -2.015,-2.015 c -0.059,-0.059 -0.153,-0.059 -0.212,0 l -4.243,4.242 c -0.058,0.059 -0.058,0.154 0,0.212 l 2.016,2.016 c 0.106,0.106 0.106,-0.106 0,0 l -1.023,1.022 c -0.028,0.028 -0.044,0.067 -0.044,0.106 v 23.35 c 0,0.15 0.15,0 0,0 h -2.7 c -0.15,0 0,0.15 0,0 v -23.35 c 0,-0.064 -0.041,-0.122 -0.103,-0.142 l -19.5,-6.5 c -0.053,-0.018 -0.113,-0.004 -0.153,0.036 l -1.023,1.023 c -0.106,0.106 0.106,0.106 0,0 l -2.015,-2.015 c -0.059,-0.059 -0.153,-0.059 -0.212,0 l -4.243,4.242 c -0.058,0.059 -0.058,0.154 0,0.212 l 2.016,2.016 c 0.106,0.106 0.106,-0.106 0,0 l -1.023,1.022 c -0.028,0.028 -0.044,0.067 -0.044,0.106 v 23.35 c 0,0.15 0.15,0 0,0 h -2.7 c -0.15,0 0,0.15 0,0 v -23.35 c 0,-0.064 -0.041,-0.122 -0.103,-0.142 l -19.5,-6.5 c -0.053,-0.018 -0.113,-0.004 -0.153,0.036 l -1.023,1.023 c -0.106,0.106 0.106,0.106 0,0 l -2.015,-2.015 c -0.059,-0.059 -0.153,-0.059 -0.212,0 l -4.243,4.242 c -0.058,0.059 -0.058,0.154 0,0.212 l 2.016,2.016 c 0.106,0.106 0.106,-0.106 0,0 l -1.023,1.022 c 0.028,-0.028 0.066,-0.044 0.106,-0.044 -0.083,0 -0.15,0.068 -0.15,0.15 v 2.35 c 0,0.15 0.15,0 0,0 h -2.85 c -0.083,0 -0.15,0.068 -0.15,0.15 v 6 c 0,0.083 0.067,0.15 0.15,0.15 h 2.85 c 0.15,0 0,-0.15 0,0 v 5.7 c 0,0.15 0.15,0 0,0 h -2.85 c -0.083,0 -0.15,0.068 -0.15,0.15 v 6 c 0,0.083 0.067,0.15 0.15,0.15 h 2.85 c 0.15,0 0,-0.15 0,0 v 5.7 c 0,0.15 0.15,0 0,0 h -2.85 c -0.083,0 -0.15,0.068 -0.15,0.15 v 6 c 0,0.083 0.067,0.15 0.15,0.15 h 2.85 c 0.15,0 0,-0.15 0,0 v 5.7 c 0,0.15 0.15,0 0,0 h -2.85 c -0.083,0 -0.15,0.068 -0.15,0.15 v 6 c 0,0.083 0.067,0.15 0.15,0.15 h 2.85 c 0.15,0 0,-0.15 0,0 v 2.35 c 0,0.083 0.067,0.15 0.15,0.15"
       stroke="rgb(0,0,0)"
       stroke-width="0.30"
       id="path65"
       style="stroke:#000000;stroke-width:0.02;stroke-dasharray:none;stroke-opacity:1" />
  </g>
  <g
     id="p-7"
     style="fill:none;stroke:#000000;stroke-width:0.02;stroke-linecap:round;stroke-linejoin:round;stroke-dasharray:none;stroke-opacity:1"
     transform="translate(-15.987024,-96.660185)">
    <text
       dominant-baseline="hanging"
       font-size="4px"
       style="font-style:normal;font-weight:normal;font-family:sans-serif;fill:#ff0000;stroke:#000000;stroke-width:0.02;stroke-dasharray:none;stroke-opacity:1"
       text-anchor="middle"
       id="text65"
       x="155.60001"
       y="189.9232">inner vertical 2</text>
    <path
       d="m 113.6,206.59 h 3.85 c 0.15,0 0,-0.15 0,0 v 2.85 c 0,0.083 0.067,0.15 0.15,0.15 h 6 c 0.083,0 0.15,-0.067 0.15,-0.15 v -2.85 c 0,-0.15 -0.15,0 0,0 h 5.7 c 0.15,0 0,-0.15 0,0 v 2.85 c 0,0.083 0.067,0.15 0.15,0.15 h 6 c 0.083,0 0.15,-0.067 0.15,-0.15 v -2.85 c 0,-0.15 -0.15,0 0,0 h 3.85 3 3.85 c 0.15,0 0,-0.15 0,0 v 2.85 c 0,0.083 0.067,0.15 0.15,0.15 h 6 c 0.083,0 0.15,-0.067 0.15,-0.15 v -2.85 c 0,-0.15 -0.15,0 0,0 h 5.7 c 0.15,0 0,-0.15 0,0 v 2.85 c 0,0.083 0.067,0.15 0.15,0.15 h 6 c 0.083,0 0.15,-0.067 0.15,-0.15 v -2.85 c 0,-0.15 -0.15,0 0,0 h 3.85 3 3.85 c 0.15,0 0,-0.15 0,0 v 2.85 c 0,0.083 0.067,0.15 0.15,0.15 h 6 c 0.083,0 0.15,-0.067 0.15,-0.15 v -2.85 c 0,-0.15 -0.15,0 0,0 h 5.7 c 0.15,0 0,-0.15 0,0 v 2.85 c 0,0.083 0.067,0.15 0.15,0.15 h 6 c 0.083,0 0.15,-0.067 0.15,-0.15 v -2.85 c 0,-0.15 -0.15,0 0,0 h 3.85 c 0.083,0 0.15,-0.067 0.15,-0.15 v -2.35 c 0,-0.15 -0.15,0 0,0 h 2.85 c 0.083,0 0.15,-0.067 0.15,-0.15 v -6 c 0,-0.082 -0.067,-0.15 -0.15,-0.15 h -2.85 c -0.15,0 0,0.15 0,0 v -5.7 c 0,-0.15 -0.15,0 0,0 h 2.85 c 0.083,0 0.15,-0.067 0.15,-0.15 v -6 c 0,-0.082 -0.067,-0.15 -0.15,-0.15 h -2.85 c -0.15,0 0,0.15 0,0 v -5.7 c 0,-0.15 -0.15,0 0,0 h 2.85 c 0.083,0 0.15,-0.067 0.15,-0.15 v -6 c 0,-0.082 -0.067,-0.15 -0.15,-0.15 h -2.85 c -0.15,0 0,0.15 0,0 v -5.7 c 0,-0.15 -0.15,0 0,0 h 2.85 c 0.083,0 0.15,-0.067 0.15,-0.15 v -6 c 0,-0.082 -0.067,-0.15 -0.15,-0.15 h -2.85 c -0.15,0 0,0.15 0,0 v -2.35 c 0,-0.082 -0.067,-0.15 -0.15,-0.15 0.016,0 0.032,0.003 0.047,0.008 l -19.5,-6.5 c -0.053,-0.018 -0.113,-0.004 -0.153,0.036 l -1.023,1.023 c -0.106,0.106 0.106,0.106 0,0 l -2.015,-2.015 c -0.059,-0.059 -0.153,-0.059 -0.212,0 l -4.243,4.242 c -0.058,0.059 -0.058,0.154 0,0.212 l 2.016,2.016 c 0.106,0.106 0.106,-0.106 0,0 l -1.023,1.022 c -0.028,0.028 -0.044,0.067 -0.044,0.106 v 23.35 c 0,0.15 0.15,0 0,0 h -2.7 c -0.15,0 0,0.15 0,0 v -23.35 c 0,-0.064 -0.041,-0.122 -0.103,-0.142 l -19.5,-6.5 c -0.053,-0.018 -0.113,-0.004 -0.153,0.036 l -1.023,1.023 c -0.106,0.106 0.106,0.106 0,0 l -2.015,-2.015 c -0.059,-0.059 -0.153,-0.059 -0.212,0 l -4.243,4.242 c -0.058,0.059 -0.058,0.154 0,0.212 l 2.016,2.016 c 0.106,0.106 0.106,-0.106 0,0 l -1.023,1.022 c -0.028,0.028 -0.044,0.067 -0.044,0.106 v 23.35 c 0,0.15 0.15,0 0,0 h -2.7 c -0.15,0 0,0.15 0,0 v -23.35 c 0,-0.064 -0.041,-0.122 -0.103,-0.142 l -19.5,-6.5 c -0.053,-0.018 -0.113,-0.004 -0.153,0.036 l -1.023,1.023 c -0.106,0.106 0.106,0.106 0,0 l -2.015,-2.015 c -0.059,-0.059 -0.153,-0.059 -0.212,0 l -4.243,4.242 c -0.058,0.059 -0.058,0.154 0,0.212 l 2.016,2.016 c 0.106,0.106 0.106,-0.106 0,0 l -1.023,1.022 c 0.028,-0.028 0.066,-0.044 0.106,-0.044 -0.083,0 -0.15,0.068 -0.15,0.15 v 2.35 c 0,0.15 0.15,0 0,0 h -2.85 c -0.083,0 -0.15,0.068 -0.15,0.15 v 6 c 0,0.083 0.067,0.15 0.15,0.15 h 2.85 c 0.15,0 0,-0.15 0,0 v 5.7 c 0,0.15 0.15,0 0,0 h -2.85 c -0.083,0 -0.15,0.068 -0.15,0.15 v 6 c 0,0.083 0.067,0.15 0.15,0.15 h 2.85 c 0.15,0 0,-0.15 0,0 v 5.7 c 0,0.15 0.15,0 0,0 h -2.85 c -0.083,0 -0.15,0.068 -0.15,0.15 v 6 c 0,0.083 0.067,0.15 0.15,0.15 h 2.85 c 0.15,0 0,-0.15 0,0 v 5.7 c 0,0.15 0.15,0 0,0 h -2.85 c -0.083,0 -0.15,0.068 -0.15,0.15 v 6 c 0,0.083 0.067,0.15 0.15,0.15 h 2.85 c 0.15,0 0,-0.15 0,0 v 2.35 c 0,0.083 0.067,0.15 0.15,0.15"
       stroke="rgb(0,0,0)"
       stroke-width="0.30"
       id="path66"
       style="stroke:#000000;stroke-width:0.02;stroke-dasharray:none;stroke-opacity:1" />
  </g>
  <g
     id="p-8"
     style="fill:none;stroke:#000000;stroke-width:0.02;stroke-linecap:round;stroke-linejoin:round;stroke-dasharray:none;stroke-opacity:1"
     transform="translate(-15.987024,-96.660185)">
    <text
       dominant-baseline="hanging"
       font-size="4px"
       style="font-style:normal;font-weight:normal;font-family:sans-serif;fill:#ff0000;stroke:#000000;stroke-width:0.02;stroke-dasharray:none;stroke-opacity:1"
       text-anchor="middle"
       id="text66"
       x="155.60001"
       y="116.78986">inner horizontal 1</text>
    <path
       d="m 113.6,148.29 h 3.85 c 0.15,0 0,-0.15 0,0 v 2.85 c 0,0.083 0.067,0.15 0.15,0.15 h 6 c 0.083,0 0.15,-0.067 0.15,-0.15 v -2.85 c 0,-0.15 -0.15,0 0,0 h 5.7 c 0.15,0 0,-0.15 0,0 v 2.85 c 0,0.083 0.067,0.15 0.15,0.15 h 6 c 0.083,0 0.15,-0.067 0.15,-0.15 v -2.85 c 0,-0.15 -0.15,0 0,0 h 3.85 c 0.083,0 0.15,-0.067 0.15,-0.15 v -23.35 c 0,-0.15 -0.15,0 0,0 h 2.7 c 0.15,0 0,-0.15 0,0 v 23.35 c 0,0.083 0.067,0.15 0.15,0.15 h 3.85 c 0.15,0 0,-0.15 0,0 v 2.85 c 0,0.083 0.067,0.15 0.15,0.15 h 6 c 0.083,0 0.15,-0.067 0.15,-0.15 v -2.85 c 0,-0.15 -0.15,0 0,0 h 5.7 c 0.15,0 0,-0.15 0,0 v 2.85 c 0,0.083 0.067,0.15 0.15,0.15 h 6 c 0.083,0 0.15,-0.067 0.15,-0.15 v -2.85 c 0,-0.15 -0.15,0 0,0 h 3.85 c 0.083,0 0.15,-0.067 0.15,-0.15 v -23.35 c 0,-0.15 -0.15,0 0,0 h 2.7 c 0.15,0 0,-0.15 0,0 v 23.35 c 0,0.083 0.067,0.15 0.15,0.15 h 3.85 c 0.15,0 0,-0.15 0,0 v 2.85 c 0,0.083 0.067,0.15 0.15,0.15 h 6 c 0.083,0 0.15,-0.067 0.15,-0.15 v -2.85 c 0,-0.15 -0.15,0 0,0 h 5.7 c 0.15,0 0,-0.15 0,0 v 2.85 c 0,0.083 0.067,0.15 0.15,0.15 h 6 c 0.083,0 0.15,-0.067 0.15,-0.15 v -2.85 c 0,-0.15 -0.15,0 0,0 h 3.85 c 0.083,0 0.15,-0.067 0.15,-0.15 v -2.35 c 0,-0.15 -0.15,0 0,0 h 2.85 c 0.083,0 0.15,-0.067 0.15,-0.15 v -6 c 0,-0.082 -0.067,-0.15 -0.15,-0.15 h -2.85 c -0.15,0 0,0.15 0,0 v -5.7 c 0,-0.15 -0.15,0 0,0 h 2.85 c 0.083,0 0.15,-0.067 0.15,-0.15 v -6 c 0,-0.082 -0.067,-0.15 -0.15,-0.15 h -2.85 c -0.15,0 0,0.15 0,0 v -5.7 c 0,-0.15 -0.15,0 0,0 h 2.85 c 0.083,0 0.15,-0.067 0.15,-0.15 v -6 c 0,-0.082 -0.067,-0.15 -0.15,-0.15 h -2.85 c -0.15,0 0,0.15 0,0 v -5.7 c 0,-0.15 -0.15,0 0,0 h 2.85 c 0.083,0 0.15,-0.067 0.15,-0.15 v -6 c 0,-0.082 -0.067,-0.15 -0.15,-0.15 h -2.85 c -0.15,0 0,0.15 0,0 v -2.35 -1.242 c 0,-0.083 -0.067,-0.15 -0.15,-0.15 h -4 c -0.083,0 -0.15,0.067 -0.15,0.15 v 1.971 c 0,0.15 0.15,0 0,0 h -5.7 c -0.15,0 0,0.15 0,0 v -1.971 c 0,-0.083 -0.067,-0.15 -0.15,-0.15 h -6 c -0.083,0 -0.15,0.067 -0.15,0.15 v 1.971 c 0,0.15 0.15,0 0,0 h -5.7 c -0.15,0 0,0.15 0,0 v -1.971 c 0,-0.083 -0.067,-0.15 -0.15,-0.15 h -4 -3 -4 c -0.083,0 -0.15,0.067 -0.15,0.15 v 1.971 c 0,0.15 0.15,0 0,0 h -5.7 c -0.15,0 0,0.15 0,0 v -1.971 c 0,-0.083 -0.067,-0.15 -0.15,-0.15 h -6 c -0.083,0 -0.15,0.067 -0.15,0.15 v 1.971 c 0,0.15 0.15,0 0,0 h -5.7 c -0.15,0 0,0.15 0,0 v -1.971 c 0,-0.083 -0.067,-0.15 -0.15,-0.15 h -4 -3 -4 c -0.083,0 -0.15,0.067 -0.15,0.15 v 1.971 c 0,0.15 0.15,0 0,0 h -5.7 c -0.15,0 0,0.15 0,0 v -1.971 c 0,-0.083 -0.067,-0.15 -0.15,-0.15 h -6 c -0.083,0 -0.15,0.067 -0.15,0.15 v 1.971 c 0,0.15 0.15,0 0,0 h -5.7 c -0.15,0 0,0.15 0,0 v -1.971 c 0,-0.083 -0.067,-0.15 -0.15,-0.15 h -4 c -0.083,0 -0.15,0.067 -0.15,0.15 v 1.242 2.35 c 0,0.15 0.15,0 0,0 h -2.85 c -0.083,0 -0.15,0.068 -0.15,0.15 v 6 c 0,0.083 0.067,0.15 0.15,0.15 h 2.85 c 0.15,0 0,-0.15 0,0 v 5.7 c 0,0.15 0.15,0 0,0 h -2.85 c -0.083,0 -0.15,0.068 -0.15,0.15 v 6 c 0,0.083 0.067,0.15 0.15,0.15 h 2.85 c 0.15,0 0,-0.15 0,0 v 5.7 c 0,0.15 0.15,0 0,0 h -2.85 c -0.083,0 -0.15,0.068 -0.15,0.15 v 6 c 0,0.083 0.067,0.15 0.15,0.15 h 2.85 c 0.15,0 0,-0.15 0,0 v 5.7 c 0,0.15 0.15,0 0,0 h -2.85 c -0.083,0 -0.15,0.068 -0.15,0.15 v 6 c 0,0.083 0.067,0.15 0.15,0.15 h 2.85 c 0.15,0 0,-0.15 0,0 v 2.35 c 0,0.083 0.067,0.15 0.15,0.15"
       stroke="rgb(0,0,0)"
       stroke-width="0.30"
       id="path67"
       style="stroke:#000000;stroke-width:0.02;stroke-dasharray:none;stroke-opacity:1" />
  </g>
  <g
     id="p-9"
     style="fill:none;stroke:#000000;stroke-width:0.02;stroke-linecap:round;stroke-linejoin:round;stroke-dasharray:none;stroke-opacity:1"
     transform="translate(-108.98514,-7.273124)">
    <text
       dominant-baseline="hanging"
       font-size="4px"
       style="font-style:normal;font-weight:normal;font-family:sans-serif;fill:#ff0000;stroke:#000000;stroke-width:0.02;stroke-dasharray:none;stroke-opacity:1"
       text-anchor="middle"
       id="text67"
       x="155.60001"
       y="62.688492">inner horizontal 2</text>
    <path
       d="m 113.6,95.248 h 3.85 c 0.15,0 0,-0.15 0,0 v 2.85 c 0,0.083 0.067,0.15 0.15,0.15 h 6 c 0.083,0 0.15,-0.067 0.15,-0.15 v -2.85 c 0,-0.15 -0.15,0 0,0 h 5.7 c 0.15,0 0,-0.15 0,0 v 2.85 c 0,0.083 0.067,0.15 0.15,0.15 h 6 c 0.083,0 0.15,-0.067 0.15,-0.15 v -2.85 c 0,-0.15 -0.15,0 0,0 h 3.85 c 0.083,0 0.15,-0.067 0.15,-0.15 v -23.35 c 0,-0.15 -0.15,0 0,0 h 2.7 c 0.15,0 0,-0.15 0,0 v 23.35 c 0,0.083 0.067,0.15 0.15,0.15 h 3.85 c 0.15,0 0,-0.15 0,0 v 2.85 c 0,0.083 0.067,0.15 0.15,0.15 h 6 c 0.083,0 0.15,-0.067 0.15,-0.15 v -2.85 c 0,-0.15 -0.15,0 0,0 h 5.7 c 0.15,0 0,-0.15 0,0 v 2.85 c 0,0.083 0.067,0.15 0.15,0.15 h 6 c 0.083,0 0.15,-0.067 0.15,-0.15 v -2.85 c 0,-0.15 -0.15,0 0,0 h 3.85 c 0.083,0 0.15,-0.067 0.15,-0.15 v -23.35 c 0,-0.15 -0.15,0 0,0 h 2.7 c 0.15,0 0,-0.15 0,0 v 23.35 c 0,0.083 0.067,0.15 0.15,0.15 h 3.85 c 0.15,0 0,-0.15 0,0 v 2.85 c 0,0.083 0.067,0.15 0.15,0.15 h 6 c 0.083,0 0.15,-0.067 0.15,-0.15 v -2.85 c 0,-0.15 -0.15,0 0,0 h 5.7 c 0.15,0 0,-0.15 0,0 v 2.85 c 0,0.083 0.067,0.15 0.15,0.15 h 6 c 0.083,0 0.15,-0.067 0.15,-0.15 v -2.85 c 0,-0.15 -0.15,0 0,0 h 3.85 c 0.083,0 0.15,-0.067 0.15,-0.15 v -2.35 c 0,-0.15 -0.15,0 0,0 h 2.85 c 0.083,0 0.15,-0.067 0.15,-0.15 v -6 c 0,-0.083 -0.067,-0.15 -0.15,-0.15 h -2.85 c -0.15,0 0,0.15 0,0 v -5.7 c 0,-0.15 -0.15,0 0,0 h 2.85 c 0.083,0 0.15,-0.067 0.15,-0.15 v -6 c 0,-0.083 -0.067,-0.15 -0.15,-0.15 h -2.85 c -0.15,0 0,0.15 0,0 v -5.7 c 0,-0.15 -0.15,0 0,0 h 2.85 c 0.083,0 0.15,-0.067 0.15,-0.15 v -6 c 0,-0.083 -0.067,-0.15 -0.15,-0.15 h -2.85 c -0.15,0 0,0.15 0,0 v -5.7 c 0,-0.15 -0.15,0 0,0 h 2.85 c 0.083,0 0.15,-0.067 0.15,-0.15 v -6 c 0,-0.083 -0.067,-0.15 -0.15,-0.15 h -2.85 c -0.15,0 0,0.15 0,0 v -2.35 -1.243 c 0,-0.083 -0.067,-0.15 -0.15,-0.15 h -4 c -0.083,0 -0.15,0.067 -0.15,0.15 v 1.971 c 0,0.15 0.15,0 0,0 h -5.7 c -0.15,0 0,0.15 0,0 v -1.971 c 0,-0.083 -0.067,-0.15 -0.15,-0.15 h -6 c -0.083,0 -0.15,0.067 -0.15,0.15 v 1.971 c 0,0.15 0.15,0 0,0 h -5.7 c -0.15,0 0,0.15 0,0 v -1.971 c 0,-0.083 -0.067,-0.15 -0.15,-0.15 h -4 -3 -4 c -0.083,0 -0.15,0.067 -0.15,0.15 v 1.971 c 0,0.15 0.15,0 0,0 h -5.7 c -0.15,0 0,0.15 0,0 v -1.971 c 0,-0.083 -0.067,-0.15 -0.15,-0.15 h -6 c -0.083,0 -0.15,0.067 -0.15,0.15 v 1.971 c 0,0.15 0.15,0 0,0 h -5.7 c -0.15,0 0,0.15 0,0 v -1.971 c 0,-0.083 -0.067,-0.15 -0.15,-0.15 h -4 -3 -4 c -0.083,0 -0.15,0.067 -0.15,0.15 v 1.971 c 0,0.15 0.15,0 0,0 h -5.7 c -0.15,0 0,0.15 0,0 v -1.971 c 0,-0.083 -0.067,-0.15 -0.15,-0.15 h -6 c -0.083,0 -0.15,0.067 -0.15,0.15 v 1.971 c 0,0.15 0.15,0 0,0 h -5.7 c -0.15,0 0,0.15 0,0 v -1.971 c 0,-0.083 -0.067,-0.15 -0.15,-0.15 h -4 c -0.083,0 -0.15,0.067 -0.15,0.15 v 1.243 2.35 c 0,0.15 0.15,0 0,0 h -2.85 c -0.083,0 -0.15,0.067 -0.15,0.15 v 6 c 0,0.083 0.067,0.15 0.15,0.15 h 2.85 c 0.15,0 0,-0.15 0,0 v 5.7 c 0,0.15 0.15,0 0,0 h -2.85 c -0.083,0 -0.15,0.067 -0.15,0.15 v 6 c 0,0.083 0.067,0.15 0.15,0.15 h 2.85 c 0.15,0 0,-0.15 0,0 v 5.7 c 0,0.15 0.15,0 0,0 h -2.85 c -0.083,0 -0.15,0.067 -0.15,0.15 v 6 c 0,0.083 0.067,0.15 0.15,0.15 h 2.85 c 0.15,0 0,-0.15 0,0 v 5.7 c 0,0.15 0.15,0 0,0 h -2.85 c -0.083,0 -0.15,0.067 -0.15,0.15 v 6 c 0,0.083 0.067,0.15 0.15,0.15 h 2.85 c 0.15,0 0,-0.15 0,0 v 2.35 c 0,0.083 0.067,0.15 0.15,0.15"
       stroke="rgb(0,0,0)"
       stroke-width="0.30"
       id="path68"
       style="stroke:#000000;stroke-width:0.02;stroke-dasharray:none;stroke-opacity:1" />
  </g>
  <g
     id="p-10"
     style="fill:none;stroke:#000000;stroke-width:0.02;stroke-linecap:round;stroke-linejoin:round;stroke-dasharray:none;stroke-opacity:1"
     transform="translate(-108.87297,-7.01618)">
    <path
       d="m 142.45,39.216 v 2.85 c 0,0.15 0.15,0 0,0 h -2.7 c -0.15,0 0,0.15 0,0 v -5.7 c 0,-0.15 -0.15,0 0,0 h 2.7 c 0.15,0 0,-0.15 0,0 z"
       stroke="rgb(0,0,255)"
       stroke-width="0.30"
       id="path69"
       style="stroke:#000000;stroke-width:0.02;stroke-dasharray:none;stroke-opacity:1" />
    <path
       d="m 171.45,39.216 v 2.85 c 0,0.15 0.15,0 0,0 h -2.7 c -0.15,0 0,0.15 0,0 v -5.7 c 0,-0.15 -0.15,0 0,0 h 2.7 c 0.15,0 0,-0.15 0,0 z"
       stroke="rgb(0,0,255)"
       stroke-width="0.30"
       id="path70"
       style="stroke:#000000;stroke-width:0.02;stroke-dasharray:none;stroke-opacity:1" />
    <text
       dominant-baseline="hanging"
       font-size="4px"
       style="font-style:normal;font-weight:normal;font-family:sans-serif;fill:#ff0000;stroke:#000000;stroke-width:0.02;stroke-dasharray:none;stroke-opacity:1"
       text-anchor="middle"
       transform="translate(155.6,37.988)"
       id="text70">retainer 1</text>
    <path
       d="m 113.6,43.084 h 3.85 c 0.15,0 0,-0.15 0,0 v 1.971 c 0,0.083 0.067,0.15 0.15,0.15 h 6 c 0.083,0 0.15,-0.067 0.15,-0.15 v -1.971 c 0,-0.15 -0.15,0 0,0 h 5.7 c 0.15,0 0,-0.15 0,0 v 1.971 c 0,0.083 0.067,0.15 0.15,0.15 h 6 c 0.083,0 0.15,-0.067 0.15,-0.15 v -1.971 c 0,-0.15 -0.15,0 0,0 h 3.85 3 3.85 c 0.15,0 0,-0.15 0,0 v 1.971 c 0,0.083 0.067,0.15 0.15,0.15 h 6 c 0.083,0 0.15,-0.067 0.15,-0.15 v -1.971 c 0,-0.15 -0.15,0 0,0 h 5.7 c 0.15,0 0,-0.15 0,0 v 1.971 c 0,0.083 0.067,0.15 0.15,0.15 h 6 c 0.083,0 0.15,-0.067 0.15,-0.15 v -1.971 c 0,-0.15 -0.15,0 0,0 h 3.85 3 3.85 c 0.15,0 0,-0.15 0,0 v 1.971 c 0,0.083 0.067,0.15 0.15,0.15 h 6 c 0.083,0 0.15,-0.067 0.15,-0.15 v -1.971 c 0,-0.15 -0.15,0 0,0 h 5.7 c 0.15,0 0,-0.15 0,0 v 1.971 c 0,0.083 0.067,0.15 0.15,0.15 h 6 c 0.083,0 0.15,-0.067 0.15,-0.15 v -1.971 c 0,-0.15 -0.15,0 0,0 h 3.85 3 c 0.083,0 0.15,-0.067 0.15,-0.15 v 0.878 -1.596 c 0,-0.083 -0.067,-0.15 -0.15,-0.15 h -2.85 c -0.15,0 0,0.15 0,0 v -5.7 c 0,-0.15 -0.15,0 0,0 h 2.85 c 0.083,0 0.15,-0.067 0.15,-0.15 V 34.62 c 0,-0.083 -0.067,-0.15 -0.15,-0.15 h -3 -84 -3 c -0.083,0 -0.15,0.067 -0.15,0.15 v 1.596 c 0,0.083 0.067,0.15 0.15,0.15 h 2.85 c 0.15,0 0,-0.15 0,0 v 5.7 c 0,0.15 0.15,0 0,0 h -2.85 c -0.083,0 -0.15,0.067 -0.15,0.15 v 1.596 -0.878 c 0,0.083 0.067,0.15 0.15,0.15 h 3"
       stroke="rgb(0,0,0)"
       stroke-width="0.30"
       id="path71"
       style="stroke:#000000;stroke-width:0.02;stroke-dasharray:none;stroke-opacity:1" />
  </g>
  <g
     id="p-11"
     style="fill:none;stroke:#000000;stroke-width:0.02;stroke-linecap:round;stroke-linejoin:round;stroke-dasharray:none;stroke-opacity:1"
     transform="translate(-108.87297,-7.01618)">
    <path
       d="m 142.45,26.981 v 2.85 c 0,0.15 0.15,0 0,0 h -2.7 c -0.15,0 0,0.15 0,0 v -5.7 c 0,-0.15 -0.15,0 0,0 h 2.7 c 0.15,0 0,-0.15 0,0 z"
       stroke="rgb(0,0,255)"
       stroke-width="0.30"
       id="path72"
       style="stroke:#000000;stroke-width:0.02;stroke-dasharray:none;stroke-opacity:1" />
    <path
       d="m 171.45,26.981 v 2.85 c 0,0.15 0.15,0 0,0 h -2.7 c -0.15,0 0,0.15 0,0 v -5.7 c 0,-0.15 -0.15,0 0,0 h 2.7 c 0.15,0 0,-0.15 0,0 z"
       stroke="rgb(0,0,255)"
       stroke-width="0.30"
       id="path73"
       style="stroke:#000000;stroke-width:0.02;stroke-dasharray:none;stroke-opacity:1" />
    <text
       dominant-baseline="hanging"
       font-size="4px"
       style="font-style:normal;font-weight:normal;font-family:sans-serif;fill:#ff0000;stroke:#000000;stroke-width:0.02;stroke-dasharray:none;stroke-opacity:1"
       text-anchor="middle"
       transform="translate(155.6,25.753)"
       id="text73">retainer 2</text>
    <path
       d="m 113.6,30.849 h 3.85 c 0.15,0 0,-0.15 0,0 v 1.971 c 0,0.083 0.067,0.15 0.15,0.15 h 6 c 0.083,0 0.15,-0.067 0.15,-0.15 v -1.971 c 0,-0.15 -0.15,0 0,0 h 5.7 c 0.15,0 0,-0.15 0,0 v 1.971 c 0,0.083 0.067,0.15 0.15,0.15 h 6 c 0.083,0 0.15,-0.067 0.15,-0.15 v -1.971 c 0,-0.15 -0.15,0 0,0 h 3.85 3 3.85 c 0.15,0 0,-0.15 0,0 v 1.971 c 0,0.083 0.067,0.15 0.15,0.15 h 6 c 0.083,0 0.15,-0.067 0.15,-0.15 v -1.971 c 0,-0.15 -0.15,0 0,0 h 5.7 c 0.15,0 0,-0.15 0,0 v 1.971 c 0,0.083 0.067,0.15 0.15,0.15 h 6 c 0.083,0 0.15,-0.067 0.15,-0.15 v -1.971 c 0,-0.15 -0.15,0 0,0 h 3.85 3 3.85 c 0.15,0 0,-0.15 0,0 v 1.971 c 0,0.083 0.067,0.15 0.15,0.15 h 6 c 0.083,0 0.15,-0.067 0.15,-0.15 v -1.971 c 0,-0.15 -0.15,0 0,0 h 5.7 c 0.15,0 0,-0.15 0,0 v 1.971 c 0,0.083 0.067,0.15 0.15,0.15 h 6 c 0.083,0 0.15,-0.067 0.15,-0.15 v -1.971 c 0,-0.15 -0.15,0 0,0 h 3.85 3 c 0.083,0 0.15,-0.067 0.15,-0.15 v 0.878 -1.596 c 0,-0.083 -0.067,-0.15 -0.15,-0.15 h -2.85 c -0.15,0 0,0.15 0,0 v -5.7 c 0,-0.15 -0.15,0 0,0 h 2.85 c 0.083,0 0.15,-0.067 0.15,-0.15 v -1.596 c 0,-0.083 -0.067,-0.15 -0.15,-0.15 h -3 -84 -3 c -0.083,0 -0.15,0.067 -0.15,0.15 v 1.596 c 0,0.083 0.067,0.15 0.15,0.15 h 2.85 c 0.15,0 0,-0.15 0,0 v 5.7 c 0,0.15 0.15,0 0,0 h -2.85 c -0.083,0 -0.15,0.067 -0.15,0.15 v 1.596 -0.878 c 0,0.083 0.067,0.15 0.15,0.15 h 3"
       stroke="rgb(0,0,0)"
       stroke-width="0.30"
       id="path74"
       style="stroke:#000000;stroke-width:0.02;stroke-dasharray:none;stroke-opacity:1" />
  </g>
  <g
     id="p-12"
     style="fill:none;stroke:#000000;stroke-width:0.02;stroke-linecap:round;stroke-linejoin:round;stroke-dasharray:none;stroke-opacity:1"
     transform="translate(-108.87297,-7.01618)">
    <path
       d="m 142.45,14.746 v 2.85 c 0,0.15 0.15,0 0,0 h -2.7 c -0.15,0 0,0.15 0,0 v -5.7 c 0,-0.15 -0.15,0 0,0 h 2.7 c 0.15,0 0,-0.15 0,0 z"
       stroke="rgb(0,0,255)"
       stroke-width="0.30"
       id="path75"
       style="stroke:#000000;stroke-width:0.02;stroke-dasharray:none;stroke-opacity:1" />
    <path
       d="m 171.45,14.746 v 2.85 c 0,0.15 0.15,0 0,0 h -2.7 c -0.15,0 0,0.15 0,0 v -5.7 c 0,-0.15 -0.15,0 0,0 h 2.7 c 0.15,0 0,-0.15 0,0 z"
       stroke="rgb(0,0,255)"
       stroke-width="0.30"
       id="path76"
       style="stroke:#000000;stroke-width:0.02;stroke-dasharray:none;stroke-opacity:1" />
    <text
       dominant-baseline="hanging"
       font-size="4px"
       style="font-style:normal;font-weight:normal;font-family:sans-serif;fill:#ff0000;stroke:#000000;stroke-width:0.02;stroke-dasharray:none;stroke-opacity:1"
       text-anchor="middle"
       transform="translate(155.6,13.518)"
       id="text76">retainer 3</text>
    <path
       d="m 113.6,18.614 h 3.85 c 0.15,0 0,-0.15 0,0 v 1.971 c 0,0.083 0.067,0.15 0.15,0.15 h 6 c 0.083,0 0.15,-0.067 0.15,-0.15 v -1.971 c 0,-0.15 -0.15,0 0,0 h 5.7 c 0.15,0 0,-0.15 0,0 v 1.971 c 0,0.083 0.067,0.15 0.15,0.15 h 6 c 0.083,0 0.15,-0.067 0.15,-0.15 v -1.971 c 0,-0.15 -0.15,0 0,0 h 3.85 3 3.85 c 0.15,0 0,-0.15 0,0 v 1.971 c 0,0.083 0.067,0.15 0.15,0.15 h 6 c 0.083,0 0.15,-0.067 0.15,-0.15 v -1.971 c 0,-0.15 -0.15,0 0,0 h 5.7 c 0.15,0 0,-0.15 0,0 v 1.971 c 0,0.083 0.067,0.15 0.15,0.15 h 6 c 0.083,0 0.15,-0.067 0.15,-0.15 v -1.971 c 0,-0.15 -0.15,0 0,0 h 3.85 3 3.85 c 0.15,0 0,-0.15 0,0 v 1.971 c 0,0.083 0.067,0.15 0.15,0.15 h 6 c 0.083,0 0.15,-0.067 0.15,-0.15 v -1.971 c 0,-0.15 -0.15,0 0,0 h 5.7 c 0.15,0 0,-0.15 0,0 v 1.971 c 0,0.083 0.067,0.15 0.15,0.15 h 6 c 0.083,0 0.15,-0.067 0.15,-0.15 v -1.971 c 0,-0.15 -0.15,0 0,0 h 3.85 3 c 0.083,0 0.15,-0.067 0.15,-0.15 v 0.878 -1.596 c 0,-0.083 -0.067,-0.15 -0.15,-0.15 h -2.85 c -0.15,0 0,0.15 0,0 v -5.7 c 0,-0.15 -0.15,0 0,0 h 2.85 c 0.083,0 0.15,-0.067 0.15,-0.15 V 10.15 c 0,-0.083 -0.067,-0.15 -0.15,-0.15 h -3 -84 -3 c -0.083,0 -0.15,0.067 -0.15,0.15 v 1.596 c 0,0.083 0.067,0.15 0.15,0.15 h 2.85 c 0.15,0 0,-0.15 0,0 v 5.7 c 0,0.15 0.15,0 0,0 h -2.85 c -0.083,0 -0.15,0.067 -0.15,0.15 v 1.596 -0.878 c 0,0.083 0.067,0.15 0.15,0.15 h 3"
       stroke="rgb(0,0,0)"
       stroke-width="0.30"
       id="path77"
       style="stroke:#000000;stroke-width:0.02;stroke-dasharray:none;stroke-opacity:1" />
  </g>
  <rect
     style="fill:none;stroke:#000000;stroke-width:0.0195046"
     id="rect1"
     width="187.49249"
     height="291.55914"
     x="0.0097522996"
     y="0.0097522996"
     ry="0.92489213" />
</svg>
