<?xml version="1.0" encoding="UTF-8" standalone="no"?>
<svg
   height="294.43259mm"
   viewBox="0 0 189.56988 294.43258"
   width="189.56989mm"
   version="1.1"
   id="svg77"
   sodipodi:docname="BinTray 0.10k 300x200.svg"
   inkscape:version="1.3.2 (091e20e, 2023-11-25, custom)"
   xmlns:inkscape="http://www.inkscape.org/namespaces/inkscape"
   xmlns:sodipodi="http://sodipodi.sourceforge.net/DTD/sodipodi-0.dtd"
   xmlns="http://www.w3.org/2000/svg"
   xmlns:svg="http://www.w3.org/2000/svg"
   xmlns:rdf="http://www.w3.org/1999/02/22-rdf-syntax-ns#"
   xmlns:cc="http://creativecommons.org/ns#"
   xmlns:dc="http://purl.org/dc/elements/1.1/">
  <defs
     id="defs77" />
  <sodipodi:namedview
     id="namedview77"
     pagecolor="#ffffff"
     bordercolor="#000000"
     borderopacity="0.25"
     inkscape:showpageshadow="2"
     inkscape:pageopacity="0.0"
     inkscape:pagecheckerboard="0"
     inkscape:deskcolor="#d1d1d1"
     inkscape:document-units="mm"
     inkscape:zoom="1.5022375"
     inkscape:cx="198.37076"
     inkscape:cy="787.82483"
     inkscape:window-width="2560"
     inkscape:window-height="1377"
     inkscape:window-x="-8"
     inkscape:window-y="-8"
     inkscape:window-maximized="1"
     inkscape:current-layer="p-6"
     showguides="true" />
  <!--
BinTray - A Type tray variant to be used up right with sloped walls in front

Created with Boxes.py (https://festi.info/boxes.py)
Creation date: 2024-04-08 17:22:20
Command line (remove spaces between dashes): boxes BinTray '- -sx=30*3' '- -sy=30*3' - -h=50 - -hole_dD=2.5:5.0 - -front=0.3
Url: http://www.festi.info/boxes.py/BinTray?FingerJoint_angle=90.0&FingerJoint_style=rectangular&FingerJoint_surroundingspaces=0.5&FingerJoint_bottom_lip=0.0&FingerJoint_edge_width=1.0&FingerJoint_extra_length=0.0&FingerJoint_finger=2.0&FingerJoint_play=0.0&FingerJoint_space=2.0&FingerJoint_width=1.0&sx=30*3&sy=30*3&h=50&outside=0&outside=1&hole_dD=2.5%3A5.0&front=0.3&thickness=3.0&format=svg&tabs=0.0&qr_code=0&debug=0&labels=0&labels=1&reference=100&inner_corners=loop&burn=0.1&language=en&render=2
Url short: http://www.festi.info/boxes.py/BinTray?sx=30*3&sy=30*3&h=50&hole_dD=2.5%3A5.0&front=0.3
SettingsUrl: http://www.festi.info/boxes.py/BinTray?FingerJoint_angle=90.0&FingerJoint_style=rectangular&FingerJoint_surroundingspaces=0.5&FingerJoint_bottom_lip=0.0&FingerJoint_edge_width=1.0&FingerJoint_extra_length=0.0&FingerJoint_finger=2.0&FingerJoint_play=0.0&FingerJoint_space=2.0&FingerJoint_width=1.0&sx=30*3&sy=30*3&h=50&outside=0&outside=1&hole_dD=2.5%3A5.0&front=0.3&thickness=3.0&format=svg&tabs=0.0&qr_code=0&debug=0&labels=0&labels=1&reference=100&inner_corners=loop&burn=0.1&language=en&render=2
SettingsUrl short: http://www.festi.info/boxes.py/BinTray?sx=30*3&sy=30*3&h=50&hole_dD=2.5%3A5.0&front=0.3
-->
  <title
     id="title1">BinTray</title>
  <metadata
     id="metadata1">
    <rdf:RDF>
      <cc:Work>
        <dc:title>BinTray</dc:title>
        <dc:date>2024-04-08 17:22:20</dc:date>
        <dc:source>http://www.festi.info/boxes.py/BinTray?FingerJoint_angle=90.0&amp;FingerJoint_style=rectangular&amp;FingerJoint_surroundingspaces=0.5&amp;FingerJoint_bottom_lip=0.0&amp;FingerJoint_edge_width=1.0&amp;FingerJoint_extra_length=0.0&amp;FingerJoint_finger=2.0&amp;FingerJoint_play=0.0&amp;FingerJoint_space=2.0&amp;FingerJoint_width=1.0&amp;sx=30*3&amp;sy=30*3&amp;h=50&amp;outside=0&amp;outside=1&amp;hole_dD=2.5%3A5.0&amp;front=0.3&amp;thickness=3.0&amp;format=svg&amp;tabs=0.0&amp;qr_code=0&amp;debug=0&amp;labels=0&amp;labels=1&amp;reference=100&amp;inner_corners=loop&amp;burn=0.1&amp;language=en&amp;render=2</dc:source>
        <dc:source>http://www.festi.info/boxes.py/BinTray?sx=30*3&amp;sy=30*3&amp;h=50&amp;hole_dD=2.5%3A5.0&amp;front=0.3</dc:source>
        <dc:description>A Type tray variant to be used up right with sloped walls in front

Created with Boxes.py (https://festi.info/boxes.py)
Command line: boxes BinTray --FingerJoint_angle=90.0 --FingerJoint_style=rectangular --FingerJoint_surroundingspaces=0.5 --FingerJoint_bottom_lip=0.0 --FingerJoint_edge_width=1.0 --FingerJoint_extra_length=0.0 --FingerJoint_finger=2.0 --FingerJoint_play=0.0 --FingerJoint_space=2.0 --FingerJoint_width=1.0 '--sx=30*3' '--sy=30*3' --h=50 --outside=0 --outside=1 --hole_dD=2.5:5.0 --front=0.3 --thickness=3.0 --format=svg --tabs=0.0 --qr_code=0 --debug=0 --labels=0 --labels=1 --reference=100 --inner_corners=loop --burn=0.1
Command line short: boxes BinTray '--sx=30*3' '--sy=30*3' --h=50 --hole_dD=2.5:5.0 --front=0.3
Url: http://www.festi.info/boxes.py/BinTray?FingerJoint_angle=90.0&amp;FingerJoint_style=rectangular&amp;FingerJoint_surroundingspaces=0.5&amp;FingerJoint_bottom_lip=0.0&amp;FingerJoint_edge_width=1.0&amp;FingerJoint_extra_length=0.0&amp;FingerJoint_finger=2.0&amp;FingerJoint_play=0.0&amp;FingerJoint_space=2.0&amp;FingerJoint_width=1.0&amp;sx=30*3&amp;sy=30*3&amp;h=50&amp;outside=0&amp;outside=1&amp;hole_dD=2.5%3A5.0&amp;front=0.3&amp;thickness=3.0&amp;format=svg&amp;tabs=0.0&amp;qr_code=0&amp;debug=0&amp;labels=0&amp;labels=1&amp;reference=100&amp;inner_corners=loop&amp;burn=0.1&amp;language=en&amp;render=2
Url short: http://www.festi.info/boxes.py/BinTray?sx=30*3&amp;sy=30*3&amp;h=50&amp;hole_dD=2.5%3A5.0&amp;front=0.3
SettingsUrl: http://www.festi.info/boxes.py/BinTray?FingerJoint_angle=90.0&amp;FingerJoint_style=rectangular&amp;FingerJoint_surroundingspaces=0.5&amp;FingerJoint_bottom_lip=0.0&amp;FingerJoint_edge_width=1.0&amp;FingerJoint_extra_length=0.0&amp;FingerJoint_finger=2.0&amp;FingerJoint_play=0.0&amp;FingerJoint_space=2.0&amp;FingerJoint_width=1.0&amp;sx=30*3&amp;sy=30*3&amp;h=50&amp;outside=0&amp;outside=1&amp;hole_dD=2.5%3A5.0&amp;front=0.3&amp;thickness=3.0&amp;format=svg&amp;tabs=0.0&amp;qr_code=0&amp;debug=0&amp;labels=0&amp;labels=1&amp;reference=100&amp;inner_corners=loop&amp;burn=0.1&amp;language=en&amp;render=2
SettingsUrl short: http://www.festi.info/boxes.py/BinTray?sx=30*3&amp;sy=30*3&amp;h=50&amp;hole_dD=2.5%3A5.0&amp;front=0.3
</dc:description>
      </cc:Work>
    </rdf:RDF>
  </metadata>
  <g
     id="p-1"
     style="fill:none;stroke:#000000;stroke-width:0.02;stroke-linecap:round;stroke-linejoin:round;stroke-dasharray:none;stroke-opacity:1"
     transform="translate(-14.713649,-102.11486)">
    <path
       d="m 50.7,385.706 v 2.9 c 0,0.1 0.1,0 0,0 h -2.8 c -0.1,0 0,0.1 0,0 v -5.8 c 0,-0.1 -0.1,0 0,0 h 2.8 c 0.1,0 0,-0.1 0,0 z"
       stroke="rgb(0,0,255)"
       stroke-width="0.20"
       id="path2"
       style="stroke:#000000;stroke-width:0.02;stroke-dasharray:none;stroke-opacity:1" />
    <path
       d="m 50.7,373.706 v 2.9 c 0,0.1 0.1,0 0,0 h -2.8 c -0.1,0 0,0.1 0,0 v -5.8 c 0,-0.1 -0.1,0 0,0 h 2.8 c 0.1,0 0,-0.1 0,0 z"
       stroke="rgb(0,0,255)"
       stroke-width="0.20"
       id="path3"
       style="stroke:#000000;stroke-width:0.02;stroke-dasharray:none;stroke-opacity:1" />
    <path
       d="m 50.7,361.706 v 2.9 c 0,0.1 0.1,0 0,0 h -2.8 c -0.1,0 0,0.1 0,0 v -5.8 c 0,-0.1 -0.1,0 0,0 h 2.8 c 0.1,0 0,-0.1 0,0 z"
       stroke="rgb(0,0,255)"
       stroke-width="0.20"
       id="path4"
       style="stroke:#000000;stroke-width:0.02;stroke-dasharray:none;stroke-opacity:1" />
    <path
       d="m 50.7,349.706 v 2.9 c 0,0.1 0.1,0 0,0 h -2.8 c -0.1,0 0,0.1 0,0 v -5.8 c 0,-0.1 -0.1,0 0,0 h 2.8 c 0.1,0 0,-0.1 0,0 z"
       stroke="rgb(0,0,255)"
       stroke-width="0.20"
       id="path5"
       style="stroke:#000000;stroke-width:0.02;stroke-dasharray:none;stroke-opacity:1" />
    <path
       d="m 79.7,385.706 v 2.9 c 0,0.1 0.1,0 0,0 h -2.8 c -0.1,0 0,0.1 0,0 v -5.8 c 0,-0.1 -0.1,0 0,0 h 2.8 c 0.1,0 0,-0.1 0,0 z"
       stroke="rgb(0,0,255)"
       stroke-width="0.20"
       id="path6"
       style="stroke:#000000;stroke-width:0.02;stroke-dasharray:none;stroke-opacity:1" />
    <path
       d="m 79.7,373.706 v 2.9 c 0,0.1 0.1,0 0,0 h -2.8 c -0.1,0 0,0.1 0,0 v -5.8 c 0,-0.1 -0.1,0 0,0 h 2.8 c 0.1,0 0,-0.1 0,0 z"
       stroke="rgb(0,0,255)"
       stroke-width="0.20"
       id="path7"
       style="stroke:#000000;stroke-width:0.02;stroke-dasharray:none;stroke-opacity:1" />
    <path
       d="m 79.7,361.706 v 2.9 c 0,0.1 0.1,0 0,0 h -2.8 c -0.1,0 0,0.1 0,0 v -5.8 c 0,-0.1 -0.1,0 0,0 h 2.8 c 0.1,0 0,-0.1 0,0 z"
       stroke="rgb(0,0,255)"
       stroke-width="0.20"
       id="path8"
       style="stroke:#000000;stroke-width:0.02;stroke-dasharray:none;stroke-opacity:1" />
    <path
       d="m 79.7,349.706 v 2.9 c 0,0.1 0.1,0 0,0 h -2.8 c -0.1,0 0,0.1 0,0 v -5.8 c 0,-0.1 -0.1,0 0,0 h 2.8 c 0.1,0 0,-0.1 0,0 z"
       stroke="rgb(0,0,255)"
       stroke-width="0.20"
       id="path9"
       style="stroke:#000000;stroke-width:0.02;stroke-dasharray:none;stroke-opacity:1" />
    <text
       dominant-baseline="hanging"
       font-size="4px"
       style="font-style:normal;font-weight:normal;font-family:sans-serif;fill:#ff0000;stroke:#000000;stroke-width:0.02;stroke-dasharray:none;stroke-opacity:1"
       text-anchor="middle"
       transform="translate(63.8,366.684)"
       id="text9">bottom</text>
    <path
       d="m 21.8,394.306 h 3 c 0.055,0 0.1,-0.045 0.1,-0.1 v -2.9 c 0,-0.1 -0.1,0 0,0 h 5.8 c 0.1,0 0,-0.1 0,0 v 2.9 c 0,0.055 0.045,0.1 0.1,0.1 h 6 c 0.055,0 0.1,-0.045 0.1,-0.1 v -2.9 c 0,-0.1 -0.1,0 0,0 h 5.8 c 0.1,0 0,-0.1 0,0 v 2.9 c 0,0.055 0.045,0.1 0.1,0.1 h 6 c 0.055,0 0.1,-0.045 0.1,-0.1 v -2.9 c 0,-0.1 -0.1,0 0,0 h 5.8 c 0.1,0 0,-0.1 0,0 v 2.9 c 0,0.055 0.045,0.1 0.1,0.1 h 6 c 0.055,0 0.1,-0.045 0.1,-0.1 v -2.9 c 0,-0.1 -0.1,0 0,0 h 5.8 c 0.1,0 0,-0.1 0,0 v 2.9 c 0,0.055 0.045,0.1 0.1,0.1 h 6 c 0.055,0 0.1,-0.045 0.1,-0.1 v -2.9 c 0,-0.1 -0.1,0 0,0 h 5.8 c 0.1,0 0,-0.1 0,0 v 2.9 c 0,0.055 0.045,0.1 0.1,0.1 h 6 c 0.055,0 0.1,-0.045 0.1,-0.1 v -2.9 c 0,-0.1 -0.1,0 0,0 h 5.8 c 0.1,0 0,-0.1 0,0 v 2.9 c 0,0.055 0.045,0.1 0.1,0.1 h 6 c 0.055,0 0.1,-0.045 0.1,-0.1 v -2.9 c 0,-0.1 -0.1,0 0,0 h 5.8 c 0.1,0 0,-0.1 0,0 v 2.9 c 0,0.055 0.045,0.1 0.1,0.1 h 3 c 0.055,0 0.1,-0.045 0.1,-0.1 v -3 -2.4 c 0,-0.1 -0.1,0 0,0 h 2.9 c 0.055,0 0.1,-0.045 0.1,-0.1 v -6 c 0,-0.055 -0.045,-0.1 -0.1,-0.1 h -2.9 c -0.1,0 0,0.1 0,0 v -5.8 c 0,-0.1 -0.1,0 0,0 h 2.9 c 0.055,0 0.1,-0.045 0.1,-0.1 v -6 c 0,-0.055 -0.045,-0.1 -0.1,-0.1 h -2.9 c -0.1,0 0,0.1 0,0 v -5.8 c 0,-0.1 -0.1,0 0,0 h 2.9 c 0.055,0 0.1,-0.045 0.1,-0.1 v -6 c 0,-0.055 -0.045,-0.1 -0.1,-0.1 h -2.9 c -0.1,0 0,0.1 0,0 v -5.8 c 0,-0.1 -0.1,0 0,0 h 2.9 c 0.055,0 0.1,-0.045 0.1,-0.1 v -6 c 0,-0.055 -0.045,-0.1 -0.1,-0.1 h -2.9 c -0.1,0 0,0.1 0,0 v -2.4 -1.243 c 0,-0.055 -0.045,-0.1 -0.1,-0.1 h -4 c -0.055,0 -0.1,0.045 -0.1,0.1 v 2.021 c 0,0.1 0.1,0 0,0 h -5.8 c -0.1,0 0,0.1 0,0 v -2.021 c 0,-0.055 -0.045,-0.1 -0.1,-0.1 h -6 c -0.055,0 -0.1,0.045 -0.1,0.1 v 2.021 c 0,0.1 0.1,0 0,0 h -5.8 c -0.1,0 0,0.1 0,0 v -2.021 c 0,-0.055 -0.045,-0.1 -0.1,-0.1 h -4 -3 -4 c -0.055,0 -0.1,0.045 -0.1,0.1 v 2.021 c 0,0.1 0.1,0 0,0 h -5.8 c -0.1,0 0,0.1 0,0 v -2.021 c 0,-0.055 -0.045,-0.1 -0.1,-0.1 h -6 c -0.055,0 -0.1,0.045 -0.1,0.1 v 2.021 c 0,0.1 0.1,0 0,0 h -5.8 c -0.1,0 0,0.1 0,0 v -2.021 c 0,-0.055 -0.045,-0.1 -0.1,-0.1 h -4 -3 -4 c -0.055,0 -0.1,0.045 -0.1,0.1 v 2.021 c 0,0.1 0.1,0 0,0 h -5.8 c -0.1,0 0,0.1 0,0 v -2.021 c 0,-0.055 -0.045,-0.1 -0.1,-0.1 h -6 c -0.055,0 -0.1,0.045 -0.1,0.1 v 2.021 c 0,0.1 0.1,0 0,0 h -5.8 c -0.1,0 0,0.1 0,0 v -2.021 c 0,-0.055 -0.045,-0.1 -0.1,-0.1 h -4 c -0.055,0 -0.1,0.045 -0.1,0.1 v 1.243 2.4 c 0,0.1 0.1,0 0,0 h -2.9 c -0.055,0 -0.1,0.045 -0.1,0.1 v 6 c 0,0.055 0.045,0.1 0.1,0.1 h 2.9 c 0.1,0 0,-0.1 0,0 v 5.8 c 0,0.1 0.1,0 0,0 h -2.9 c -0.055,0 -0.1,0.045 -0.1,0.1 v 6 c 0,0.055 0.045,0.1 0.1,0.1 h 2.9 c 0.1,0 0,-0.1 0,0 v 5.8 c 0,0.1 0.1,0 0,0 h -2.9 c -0.055,0 -0.1,0.045 -0.1,0.1 v 6 c 0,0.055 0.045,0.1 0.1,0.1 h 2.9 c 0.1,0 0,-0.1 0,0 v 5.8 c 0,0.1 0.1,0 0,0 h -2.9 c -0.055,0 -0.1,0.045 -0.1,0.1 v 6 c 0,0.055 0.045,0.1 0.1,0.1 h 2.9 c 0.1,0 0,-0.1 0,0 v 2.4 3 c 0,0.055 0.045,0.1 0.1,0.1"
       stroke="rgb(0,0,0)"
       stroke-width="0.20"
       id="path10"
       style="stroke:#000000;stroke-width:0.02;stroke-dasharray:none;stroke-opacity:1" />
  </g>
  <g
     id="p-2"
     style="fill:none;stroke:#000000;stroke-width:0.02;stroke-linecap:round;stroke-linejoin:round;stroke-dasharray:none;stroke-opacity:1"
     transform="translate(-14.713649,-102.11486)">
    <path
       d="m 142.4,385.706 v 2.9 c 0,0.1 0.1,0 0,0 h -2.8 c -0.1,0 0,0.1 0,0 v -5.8 c 0,-0.1 -0.1,0 0,0 h 2.8 c 0.1,0 0,-0.1 0,0 z"
       stroke="rgb(0,0,255)"
       stroke-width="0.20"
       id="path11"
       style="stroke:#000000;stroke-width:0.02;stroke-dasharray:none;stroke-opacity:1" />
    <path
       d="m 142.4,373.706 v 2.9 c 0,0.1 0.1,0 0,0 h -2.8 c -0.1,0 0,0.1 0,0 v -5.8 c 0,-0.1 -0.1,0 0,0 h 2.8 c 0.1,0 0,-0.1 0,0 z"
       stroke="rgb(0,0,255)"
       stroke-width="0.20"
       id="path12"
       style="stroke:#000000;stroke-width:0.02;stroke-dasharray:none;stroke-opacity:1" />
    <path
       d="m 142.4,361.706 v 2.9 c 0,0.1 0.1,0 0,0 h -2.8 c -0.1,0 0,0.1 0,0 v -5.8 c 0,-0.1 -0.1,0 0,0 h 2.8 c 0.1,0 0,-0.1 0,0 z"
       stroke="rgb(0,0,255)"
       stroke-width="0.20"
       id="path13"
       style="stroke:#000000;stroke-width:0.02;stroke-dasharray:none;stroke-opacity:1" />
    <path
       d="m 142.4,349.706 v 2.9 c 0,0.1 0.1,0 0,0 h -2.8 c -0.1,0 0,0.1 0,0 v -5.8 c 0,-0.1 -0.1,0 0,0 h 2.8 c 0.1,0 0,-0.1 0,0 z"
       stroke="rgb(0,0,255)"
       stroke-width="0.20"
       id="path14"
       style="stroke:#000000;stroke-width:0.02;stroke-dasharray:none;stroke-opacity:1" />
    <path
       d="m 171.4,385.706 v 2.9 c 0,0.1 0.1,0 0,0 h -2.8 c -0.1,0 0,0.1 0,0 v -5.8 c 0,-0.1 -0.1,0 0,0 h 2.8 c 0.1,0 0,-0.1 0,0 z"
       stroke="rgb(0,0,255)"
       stroke-width="0.20"
       id="path15"
       style="stroke:#000000;stroke-width:0.02;stroke-dasharray:none;stroke-opacity:1" />
    <path
       d="m 171.4,373.706 v 2.9 c 0,0.1 0.1,0 0,0 h -2.8 c -0.1,0 0,0.1 0,0 v -5.8 c 0,-0.1 -0.1,0 0,0 h 2.8 c 0.1,0 0,-0.1 0,0 z"
       stroke="rgb(0,0,255)"
       stroke-width="0.20"
       id="path16"
       style="stroke:#000000;stroke-width:0.02;stroke-dasharray:none;stroke-opacity:1" />
    <path
       d="m 171.4,361.706 v 2.9 c 0,0.1 0.1,0 0,0 h -2.8 c -0.1,0 0,0.1 0,0 v -5.8 c 0,-0.1 -0.1,0 0,0 h 2.8 c 0.1,0 0,-0.1 0,0 z"
       stroke="rgb(0,0,255)"
       stroke-width="0.20"
       id="path17"
       style="stroke:#000000;stroke-width:0.02;stroke-dasharray:none;stroke-opacity:1" />
    <path
       d="m 171.4,349.706 v 2.9 c 0,0.1 0.1,0 0,0 h -2.8 c -0.1,0 0,0.1 0,0 v -5.8 c 0,-0.1 -0.1,0 0,0 h 2.8 c 0.1,0 0,-0.1 0,0 z"
       stroke="rgb(0,0,255)"
       stroke-width="0.20"
       id="path18"
       style="stroke:#000000;stroke-width:0.02;stroke-dasharray:none;stroke-opacity:1" />
    <text
       dominant-baseline="hanging"
       font-size="4px"
       style="font-style:normal;font-weight:normal;font-family:sans-serif;fill:#ff0000;stroke:#000000;stroke-width:0.02;stroke-dasharray:none;stroke-opacity:1"
       text-anchor="middle"
       transform="translate(155.5,363.406)"
       id="text18">left</text>
    <path
       d="m 113.5,394.306 h 3 c 0.055,0 0.1,-0.045 0.1,-0.1 v -2.9 c 0,-0.1 -0.1,0 0,0 h 5.8 c 0.1,0 0,-0.1 0,0 v 2.9 c 0,0.055 0.045,0.1 0.1,0.1 h 6 c 0.055,0 0.1,-0.045 0.1,-0.1 v -2.9 c 0,-0.1 -0.1,0 0,0 h 5.8 c 0.1,0 0,-0.1 0,0 v 2.9 c 0,0.055 0.045,0.1 0.1,0.1 h 6 c 0.055,0 0.1,-0.045 0.1,-0.1 v -2.9 c 0,-0.1 -0.1,0 0,0 h 5.8 c 0.1,0 0,-0.1 0,0 v 2.9 c 0,0.055 0.045,0.1 0.1,0.1 h 6 c 0.055,0 0.1,-0.045 0.1,-0.1 v -2.9 c 0,-0.1 -0.1,0 0,0 h 5.8 c 0.1,0 0,-0.1 0,0 v 2.9 c 0,0.055 0.045,0.1 0.1,0.1 h 6 c 0.055,0 0.1,-0.045 0.1,-0.1 v -2.9 c 0,-0.1 -0.1,0 0,0 h 5.8 c 0.1,0 0,-0.1 0,0 v 2.9 c 0,0.055 0.045,0.1 0.1,0.1 h 6 c 0.055,0 0.1,-0.045 0.1,-0.1 v -2.9 c 0,-0.1 -0.1,0 0,0 h 5.8 c 0.1,0 0,-0.1 0,0 v 2.9 c 0,0.055 0.045,0.1 0.1,0.1 h 6 c 0.055,0 0.1,-0.045 0.1,-0.1 v -2.9 c 0,-0.1 -0.1,0 0,0 h 5.8 c 0.1,0 0,-0.1 0,0 v 2.9 c 0,0.055 0.045,0.1 0.1,0.1 h 3 3 c 0.055,0 0.1,-0.045 0.1,-0.1 v -3 -2.5 c 0,-0.055 -0.045,-0.1 -0.1,-0.1 h -2.9 c -0.1,0 0,0.1 0,0 v -5.8 c 0,-0.1 -0.1,0 0,0 h 2.9 c 0.055,0 0.1,-0.045 0.1,-0.1 v -6 c 0,-0.055 -0.045,-0.1 -0.1,-0.1 h -2.9 c -0.1,0 0,0.1 0,0 v -5.8 c 0,-0.1 -0.1,0 0,0 h 2.9 c 0.055,0 0.1,-0.045 0.1,-0.1 v -6 c 0,-0.055 -0.045,-0.1 -0.1,-0.1 h -2.9 c -0.1,0 0,0.1 0,0 v -5.8 c 0,-0.1 -0.1,0 0,0 h 2.9 c 0.055,0 0.1,-0.045 0.1,-0.1 v -6 c 0,-0.055 -0.045,-0.1 -0.1,-0.1 h -2.9 c -0.1,0 0,0.1 0,0 v -5.8 c 0,-0.1 -0.1,0 0,0 h 2.9 c 0.055,0 0.1,-0.045 0.1,-0.1 v -2.5 c 0,-0.055 -0.045,-0.1 -0.1,-0.1 h -2.979 c -0.021,0 0.018,0.008 0,0 l -18.182,-7.792 c -0.037,-0.016 -0.081,-0.008 -0.11,0.021 l -1.708,1.708 c -0.07,0.071 0.071,0.071 0,0 l -2.05,-2.051 c -0.039,-0.039 -0.103,-0.039 -0.142,0 l -4.242,4.243 c -0.039,0.039 -0.039,0.102 0,0.142 l 2.05,2.05 c 0.071,0.071 0.071,-0.071 0,0 l -1.678,1.679 c -0.03,0.029 0.041,0 0,0 h -2.938 c -0.021,0 0.018,0.008 0,0 l -18.182,-7.792 c -0.037,-0.016 -0.081,-0.008 -0.11,0.021 l -1.708,1.708 c -0.07,0.071 0.071,0.071 0,0 l -2.05,-2.051 c -0.039,-0.039 -0.103,-0.039 -0.142,0 l -4.242,4.243 c -0.039,0.039 -0.039,0.102 0,0.142 l 2.05,2.05 c 0.071,0.071 0.071,-0.071 0,0 l -1.678,1.679 c -0.03,0.029 0.041,0 0,0 h -2.938 c -0.021,0 0.018,0.008 0,0 l -18.182,-7.792 c -0.037,-0.016 -0.081,-0.008 -0.11,0.021 l -1.708,1.708 c -0.07,0.071 0.071,0.071 0,0 l -2.05,-2.051 c -0.039,-0.039 -0.103,-0.039 -0.142,0 l -4.242,4.243 c -0.039,0.039 -0.039,0.102 0,0.142 l 2.05,2.05 c 0.071,0.071 0.071,-0.071 0,0 l -1.678,1.679 c -0.03,0.029 0.041,0 0,0 H 110.5 c -0.055,0 -0.1,0.045 -0.1,0.1 v 2.5 c 0,0.055 0.045,0.1 0.1,0.1 h 2.9 c 0.1,0 0,-0.1 0,0 v 5.8 c 0,0.1 0.1,0 0,0 h -2.9 c -0.055,0 -0.1,0.045 -0.1,0.1 v 6 c 0,0.055 0.045,0.1 0.1,0.1 h 2.9 c 0.1,0 0,-0.1 0,0 v 5.8 c 0,0.1 0.1,0 0,0 h -2.9 c -0.055,0 -0.1,0.045 -0.1,0.1 v 6 c 0,0.055 0.045,0.1 0.1,0.1 h 2.9 c 0.1,0 0,-0.1 0,0 v 5.8 c 0,0.1 0.1,0 0,0 h -2.9 c -0.055,0 -0.1,0.045 -0.1,0.1 v 6 c 0,0.055 0.045,0.1 0.1,0.1 h 2.9 c 0.1,0 0,-0.1 0,0 v 5.8 c 0,0.1 0.1,0 0,0 h -2.9 c -0.055,0 -0.1,0.045 -0.1,0.1 v 2.5 3 c 0,0.055 0.045,0.1 0.1,0.1 h 3"
       stroke="rgb(0,0,0)"
       stroke-width="0.20"
       id="path19"
       style="stroke:#000000;stroke-width:0.02;stroke-dasharray:none;stroke-opacity:1" />
  </g>
  <g
     id="p-3"
     style="fill:none;stroke:#000000;stroke-width:0.02;stroke-linecap:round;stroke-linejoin:round;stroke-dasharray:none;stroke-opacity:1"
     transform="translate(-14.713649,-102.11486)">
    <path
       d="m 142.4,326.206 v 2.9 c 0,0.1 0.1,0 0,0 h -2.8 c -0.1,0 0,0.1 0,0 v -5.8 c 0,-0.1 -0.1,0 0,0 h 2.8 c 0.1,0 0,-0.1 0,0 z"
       stroke="rgb(0,0,255)"
       stroke-width="0.20"
       id="path20"
       style="stroke:#000000;stroke-width:0.02;stroke-dasharray:none;stroke-opacity:1" />
    <path
       d="m 142.4,314.206 v 2.9 c 0,0.1 0.1,0 0,0 h -2.8 c -0.1,0 0,0.1 0,0 v -5.8 c 0,-0.1 -0.1,0 0,0 h 2.8 c 0.1,0 0,-0.1 0,0 z"
       stroke="rgb(0,0,255)"
       stroke-width="0.20"
       id="path21"
       style="stroke:#000000;stroke-width:0.02;stroke-dasharray:none;stroke-opacity:1" />
    <path
       d="m 142.4,302.206 v 2.9 c 0,0.1 0.1,0 0,0 h -2.8 c -0.1,0 0,0.1 0,0 v -5.8 c 0,-0.1 -0.1,0 0,0 h 2.8 c 0.1,0 0,-0.1 0,0 z"
       stroke="rgb(0,0,255)"
       stroke-width="0.20"
       id="path22"
       style="stroke:#000000;stroke-width:0.02;stroke-dasharray:none;stroke-opacity:1" />
    <path
       d="m 142.4,290.206 v 2.9 c 0,0.1 0.1,0 0,0 h -2.8 c -0.1,0 0,0.1 0,0 v -5.8 c 0,-0.1 -0.1,0 0,0 h 2.8 c 0.1,0 0,-0.1 0,0 z"
       stroke="rgb(0,0,255)"
       stroke-width="0.20"
       id="path23"
       style="stroke:#000000;stroke-width:0.02;stroke-dasharray:none;stroke-opacity:1" />
    <path
       d="m 171.4,326.206 v 2.9 c 0,0.1 0.1,0 0,0 h -2.8 c -0.1,0 0,0.1 0,0 v -5.8 c 0,-0.1 -0.1,0 0,0 h 2.8 c 0.1,0 0,-0.1 0,0 z"
       stroke="rgb(0,0,255)"
       stroke-width="0.20"
       id="path24"
       style="stroke:#000000;stroke-width:0.02;stroke-dasharray:none;stroke-opacity:1" />
    <path
       d="m 171.4,314.206 v 2.9 c 0,0.1 0.1,0 0,0 h -2.8 c -0.1,0 0,0.1 0,0 v -5.8 c 0,-0.1 -0.1,0 0,0 h 2.8 c 0.1,0 0,-0.1 0,0 z"
       stroke="rgb(0,0,255)"
       stroke-width="0.20"
       id="path25"
       style="stroke:#000000;stroke-width:0.02;stroke-dasharray:none;stroke-opacity:1" />
    <path
       d="m 171.4,302.206 v 2.9 c 0,0.1 0.1,0 0,0 h -2.8 c -0.1,0 0,0.1 0,0 v -5.8 c 0,-0.1 -0.1,0 0,0 h 2.8 c 0.1,0 0,-0.1 0,0 z"
       stroke="rgb(0,0,255)"
       stroke-width="0.20"
       id="path26"
       style="stroke:#000000;stroke-width:0.02;stroke-dasharray:none;stroke-opacity:1" />
    <path
       d="m 171.4,290.206 v 2.9 c 0,0.1 0.1,0 0,0 h -2.8 c -0.1,0 0,0.1 0,0 v -5.8 c 0,-0.1 -0.1,0 0,0 h 2.8 c 0.1,0 0,-0.1 0,0 z"
       stroke="rgb(0,0,255)"
       stroke-width="0.20"
       id="path27"
       style="stroke:#000000;stroke-width:0.02;stroke-dasharray:none;stroke-opacity:1" />
    <text
       dominant-baseline="hanging"
       font-size="4px"
       style="font-style:normal;font-weight:normal;font-family:sans-serif;fill:#ff0000;stroke:#000000;stroke-width:0.02;stroke-dasharray:none;stroke-opacity:1"
       text-anchor="middle"
       transform="translate(155.5,303.906)"
       id="text27">right</text>
    <path
       d="m 113.5,334.806 h 3 c 0.055,0 0.1,-0.045 0.1,-0.1 v -2.9 c 0,-0.1 -0.1,0 0,0 h 5.8 c 0.1,0 0,-0.1 0,0 v 2.9 c 0,0.055 0.045,0.1 0.1,0.1 h 6 c 0.055,0 0.1,-0.045 0.1,-0.1 v -2.9 c 0,-0.1 -0.1,0 0,0 h 5.8 c 0.1,0 0,-0.1 0,0 v 2.9 c 0,0.055 0.045,0.1 0.1,0.1 h 6 c 0.055,0 0.1,-0.045 0.1,-0.1 v -2.9 c 0,-0.1 -0.1,0 0,0 h 5.8 c 0.1,0 0,-0.1 0,0 v 2.9 c 0,0.055 0.045,0.1 0.1,0.1 h 6 c 0.055,0 0.1,-0.045 0.1,-0.1 v -2.9 c 0,-0.1 -0.1,0 0,0 h 5.8 c 0.1,0 0,-0.1 0,0 v 2.9 c 0,0.055 0.045,0.1 0.1,0.1 h 6 c 0.055,0 0.1,-0.045 0.1,-0.1 v -2.9 c 0,-0.1 -0.1,0 0,0 h 5.8 c 0.1,0 0,-0.1 0,0 v 2.9 c 0,0.055 0.045,0.1 0.1,0.1 h 6 c 0.055,0 0.1,-0.045 0.1,-0.1 v -2.9 c 0,-0.1 -0.1,0 0,0 h 5.8 c 0.1,0 0,-0.1 0,0 v 2.9 c 0,0.055 0.045,0.1 0.1,0.1 h 6 c 0.055,0 0.1,-0.045 0.1,-0.1 v -2.9 c 0,-0.1 -0.1,0 0,0 h 5.8 c 0.1,0 0,-0.1 0,0 v 2.9 c 0,0.055 0.045,0.1 0.1,0.1 h 3 3 c 0.055,0 0.1,-0.045 0.1,-0.1 v -3 -2.5 c 0,-0.055 -0.045,-0.1 -0.1,-0.1 h -2.9 c -0.1,0 0,0.1 0,0 v -5.8 c 0,-0.1 -0.1,0 0,0 h 2.9 c 0.055,0 0.1,-0.045 0.1,-0.1 v -6 c 0,-0.055 -0.045,-0.1 -0.1,-0.1 h -2.9 c -0.1,0 0,0.1 0,0 v -5.8 c 0,-0.1 -0.1,0 0,0 h 2.9 c 0.055,0 0.1,-0.045 0.1,-0.1 v -6 c 0,-0.055 -0.045,-0.1 -0.1,-0.1 h -2.9 c -0.1,0 0,0.1 0,0 v -5.8 c 0,-0.1 -0.1,0 0,0 h 2.9 c 0.055,0 0.1,-0.045 0.1,-0.1 v -6 c 0,-0.055 -0.045,-0.1 -0.1,-0.1 h -2.9 c -0.1,0 0,0.1 0,0 v -5.8 c 0,-0.1 -0.1,0 0,0 h 2.9 c 0.055,0 0.1,-0.045 0.1,-0.1 v -2.5 c 0,-0.055 -0.045,-0.1 -0.1,-0.1 h -2.979 c -0.021,0 0.018,0.008 0,0 l -18.182,-7.792 c -0.037,-0.016 -0.081,-0.008 -0.11,0.021 l -1.708,1.708 c -0.07,0.071 0.071,0.071 0,0 l -2.05,-2.051 c -0.039,-0.039 -0.103,-0.039 -0.142,0 l -4.242,4.243 c -0.039,0.039 -0.039,0.102 0,0.142 l 2.05,2.05 c 0.071,0.071 0.071,-0.071 0,0 l -1.678,1.679 c -0.03,0.029 0.041,0 0,0 h -2.938 c -0.021,0 0.018,0.008 0,0 l -18.182,-7.792 c -0.037,-0.016 -0.081,-0.008 -0.11,0.021 l -1.708,1.708 c -0.07,0.071 0.071,0.071 0,0 l -2.05,-2.051 c -0.039,-0.039 -0.103,-0.039 -0.142,0 l -4.242,4.243 c -0.039,0.039 -0.039,0.102 0,0.142 l 2.05,2.05 c 0.071,0.071 0.071,-0.071 0,0 l -1.678,1.679 c -0.03,0.029 0.041,0 0,0 h -2.938 c -0.021,0 0.018,0.008 0,0 l -18.182,-7.792 c -0.037,-0.016 -0.081,-0.008 -0.11,0.021 l -1.708,1.708 c -0.07,0.071 0.071,0.071 0,0 l -2.05,-2.051 c -0.039,-0.039 -0.103,-0.039 -0.142,0 l -4.242,4.243 c -0.039,0.039 -0.039,0.102 0,0.142 l 2.05,2.05 c 0.071,0.071 0.071,-0.071 0,0 l -1.678,1.679 c -0.03,0.029 0.041,0 0,0 H 110.5 c -0.055,0 -0.1,0.045 -0.1,0.1 v 2.5 c 0,0.055 0.045,0.1 0.1,0.1 h 2.9 c 0.1,0 0,-0.1 0,0 v 5.8 c 0,0.1 0.1,0 0,0 h -2.9 c -0.055,0 -0.1,0.045 -0.1,0.1 v 6 c 0,0.055 0.045,0.1 0.1,0.1 h 2.9 c 0.1,0 0,-0.1 0,0 v 5.8 c 0,0.1 0.1,0 0,0 h -2.9 c -0.055,0 -0.1,0.045 -0.1,0.1 v 6 c 0,0.055 0.045,0.1 0.1,0.1 h 2.9 c 0.1,0 0,-0.1 0,0 v 5.8 c 0,0.1 0.1,0 0,0 h -2.9 c -0.055,0 -0.1,0.045 -0.1,0.1 v 6 c 0,0.055 0.045,0.1 0.1,0.1 h 2.9 c 0.1,0 0,-0.1 0,0 v 5.8 c 0,0.1 0.1,0 0,0 h -2.9 c -0.055,0 -0.1,0.045 -0.1,0.1 v 2.5 3 c 0,0.055 0.045,0.1 0.1,0.1 h 3"
       stroke="rgb(0,0,0)"
       stroke-width="0.20"
       id="path28"
       style="stroke:#000000;stroke-width:0.02;stroke-dasharray:none;stroke-opacity:1" />
  </g>
  <g
     id="p-4"
     style="fill:none;stroke:#000000;stroke-width:0.02;stroke-linecap:round;stroke-linejoin:round;stroke-dasharray:none;stroke-opacity:1"
     transform="translate(-14.962729,-95.016079)">
    <path
       d="m 50.7,326.206 v 2.9 c 0,0.1 0.1,0 0,0 h -2.8 c -0.1,0 0,0.1 0,0 v -5.8 c 0,-0.1 -0.1,0 0,0 h 2.8 c 0.1,0 0,-0.1 0,0 z"
       stroke="#0000ff"
       stroke-width="0.20"
       id="path29"
       style="stroke:#000000;stroke-width:0.02;stroke-dasharray:none;stroke-opacity:1" />
    <path
       d="m 50.7,314.206 v 2.9 c 0,0.1 0.1,0 0,0 h -2.8 c -0.1,0 0,0.1 0,0 v -5.8 c 0,-0.1 -0.1,0 0,0 h 2.8 c 0.1,0 0,-0.1 0,0 z"
       stroke="#0000ff"
       stroke-width="0.20"
       id="path30"
       style="stroke:#000000;stroke-width:0.02;stroke-dasharray:none;stroke-opacity:1" />
    <path
       d="m 50.7,302.206 v 2.9 c 0,0.1 0.1,0 0,0 h -2.8 c -0.1,0 0,0.1 0,0 v -5.8 c 0,-0.1 -0.1,0 0,0 h 2.8 c 0.1,0 0,-0.1 0,0 z"
       stroke="#0000ff"
       stroke-width="0.20"
       id="path31"
       style="stroke:#000000;stroke-width:0.02;stroke-dasharray:none;stroke-opacity:1" />
    <path
       d="m 50.7,290.206 v 2.9 c 0,0.1 0.1,0 0,0 h -2.8 c -0.1,0 0,0.1 0,0 v -5.8 c 0,-0.1 -0.1,0 0,0 h 2.8 c 0.1,0 0,-0.1 0,0 z"
       stroke="#0000ff"
       stroke-width="0.20"
       id="path32"
       style="stroke:#000000;stroke-width:0.02;stroke-dasharray:none;stroke-opacity:1" />
    <path
       d="m 79.7,326.206 v 2.9 c 0,0.1 0.1,0 0,0 h -2.8 c -0.1,0 0,0.1 0,0 v -5.8 c 0,-0.1 -0.1,0 0,0 h 2.8 c 0.1,0 0,-0.1 0,0 z"
       stroke="#0000ff"
       stroke-width="0.20"
       id="path33"
       style="stroke:#000000;stroke-width:0.02;stroke-dasharray:none;stroke-opacity:1" />
    <path
       d="m 79.7,314.206 v 2.9 c 0,0.1 0.1,0 0,0 h -2.8 c -0.1,0 0,0.1 0,0 v -5.8 c 0,-0.1 -0.1,0 0,0 h 2.8 c 0.1,0 0,-0.1 0,0 z"
       stroke="#0000ff"
       stroke-width="0.20"
       id="path34"
       style="stroke:#000000;stroke-width:0.02;stroke-dasharray:none;stroke-opacity:1" />
    <path
       d="m 79.7,302.206 v 2.9 c 0,0.1 0.1,0 0,0 h -2.8 c -0.1,0 0,0.1 0,0 v -5.8 c 0,-0.1 -0.1,0 0,0 h 2.8 c 0.1,0 0,-0.1 0,0 z"
       stroke="#0000ff"
       stroke-width="0.20"
       id="path35"
       style="stroke:#000000;stroke-width:0.02;stroke-dasharray:none;stroke-opacity:1" />
    <path
       d="m 79.7,290.206 v 2.9 c 0,0.1 0.1,0 0,0 h -2.8 c -0.1,0 0,0.1 0,0 v -5.8 c 0,-0.1 -0.1,0 0,0 h 2.8 c 0.1,0 0,-0.1 0,0 z"
       stroke="#0000ff"
       stroke-width="0.20"
       id="path36"
       style="stroke:#000000;stroke-width:0.02;stroke-dasharray:none;stroke-opacity:1" />
    <text
       dominant-baseline="hanging"
       font-size="4px"
       style="font-style:normal;font-weight:normal;font-family:sans-serif;fill:#ff0000;stroke:#000000;stroke-width:0.02;stroke-dasharray:none;stroke-opacity:1"
       text-anchor="middle"
       transform="translate(63.8,307.806)"
       id="text36">top</text>
    <path
       d="m 21.8,334.806 h 3 c 0.055,0 0.1,-0.045 0.1,-0.1 v -2.9 c 0,-0.1 -0.1,0 0,0 h 5.8 c 0.1,0 0,-0.1 0,0 v 2.9 c 0,0.055 0.045,0.1 0.1,0.1 h 6 c 0.055,0 0.1,-0.045 0.1,-0.1 v -2.9 c 0,-0.1 -0.1,0 0,0 h 5.8 c 0.1,0 0,-0.1 0,0 v 2.9 c 0,0.055 0.045,0.1 0.1,0.1 h 6 c 0.055,0 0.1,-0.045 0.1,-0.1 v -2.9 c 0,-0.1 -0.1,0 0,0 h 5.8 c 0.1,0 0,-0.1 0,0 v 2.9 c 0,0.055 0.045,0.1 0.1,0.1 h 6 c 0.055,0 0.1,-0.045 0.1,-0.1 v -2.9 c 0,-0.1 -0.1,0 0,0 h 5.8 c 0.1,0 0,-0.1 0,0 v 2.9 c 0,0.055 0.045,0.1 0.1,0.1 h 6 c 0.055,0 0.1,-0.045 0.1,-0.1 v -2.9 c 0,-0.1 -0.1,0 0,0 h 5.8 c 0.1,0 0,-0.1 0,0 v 2.9 c 0,0.055 0.045,0.1 0.1,0.1 h 6 c 0.055,0 0.1,-0.045 0.1,-0.1 v -2.9 c 0,-0.1 -0.1,0 0,0 h 5.8 c 0.1,0 0,-0.1 0,0 v 2.9 c 0,0.055 0.045,0.1 0.1,0.1 h 6 c 0.055,0 0.1,-0.045 0.1,-0.1 v -2.9 c 0,-0.1 -0.1,0 0,0 h 5.8 c 0.1,0 0,-0.1 0,0 v 2.9 c 0,0.055 0.045,0.1 0.1,0.1 h 3 c 0.055,0 0.1,-0.045 0.1,-0.1 v -3 -2.4 c 0,-0.1 -0.1,0 0,0 h 2.9 c 0.055,0 0.1,-0.045 0.1,-0.1 v -6 c 0,-0.055 -0.045,-0.1 -0.1,-0.1 h -2.9 c -0.1,0 0,0.1 0,0 v -5.8 c 0,-0.1 -0.1,0 0,0 h 2.9 c 0.055,0 0.1,-0.045 0.1,-0.1 v -6 c 0,-0.055 -0.045,-0.1 -0.1,-0.1 h -2.9 c -0.1,0 0,0.1 0,0 v -5.8 c 0,-0.1 -0.1,0 0,0 h 2.9 c 0.055,0 0.1,-0.045 0.1,-0.1 v -6 c 0,-0.055 -0.045,-0.1 -0.1,-0.1 h -2.9 c -0.1,0 0,0.1 0,0 v -5.8 c 0,-0.1 -0.1,0 0,0 h 2.9 c 0.055,0 0.1,-0.045 0.1,-0.1 v -6 c 0,-0.055 -0.045,-0.1 -0.1,-0.1 h -2.9 c -0.1,0 0,0.1 0,0 v -2.4 c 0,-0.055 -0.045,-0.1 -0.1,-0.1 h -84 c -0.055,0 -0.1,0.045 -0.1,0.1 v 2.4 c 0,0.1 0.1,0 0,0 h -2.9 c -0.055,0 -0.1,0.045 -0.1,0.1 v 6 c 0,0.055 0.045,0.1 0.1,0.1 h 2.9 c 0.1,0 0,-0.1 0,0 v 5.8 c 0,0.1 0.1,0 0,0 h -2.9 c -0.055,0 -0.1,0.045 -0.1,0.1 v 6 c 0,0.055 0.045,0.1 0.1,0.1 h 2.9 c 0.1,0 0,-0.1 0,0 v 5.8 c 0,0.1 0.1,0 0,0 h -2.9 c -0.055,0 -0.1,0.045 -0.1,0.1 v 6 c 0,0.055 0.045,0.1 0.1,0.1 h 2.9 c 0.1,0 0,-0.1 0,0 v 5.8 c 0,0.1 0.1,0 0,0 h -2.9 c -0.055,0 -0.1,0.045 -0.1,0.1 v 6 c 0,0.055 0.045,0.1 0.1,0.1 h 2.9 c 0.1,0 0,-0.1 0,0 v 2.4 3 c 0,0.055 0.045,0.1 0.1,0.1"
       stroke="#000000"
       stroke-width="0.20"
       id="path37"
       style="stroke:#000000;stroke-width:0.02;stroke-dasharray:none;stroke-opacity:1" />
  </g>
  <g
     id="p-5"
     style="fill:none;stroke:#000000;stroke-width:0.02;stroke-linecap:round;stroke-linejoin:round;stroke-dasharray:none;stroke-opacity:1"
     transform="translate(-15.46089,-86.547357)">
    <path
       d="m 50.7,265.206 v 2.9 c 0,0.1 0.1,0 0,0 h -2.8 c -0.1,0 0,0.1 0,0 v -5.8 c 0,-0.1 -0.1,0 0,0 h 2.8 c 0.1,0 0,-0.1 0,0 z"
       stroke="#0000ff"
       stroke-width="0.20"
       id="path38"
       style="stroke:#000000;stroke-width:0.02;stroke-dasharray:none;stroke-opacity:1" />
    <path
       d="m 50.7,253.206 v 2.9 c 0,0.1 0.1,0 0,0 h -2.8 c -0.1,0 0,0.1 0,0 v -5.8 c 0,-0.1 -0.1,0 0,0 h 2.8 c 0.1,0 0,-0.1 0,0 z"
       stroke="#0000ff"
       stroke-width="0.20"
       id="path39"
       style="stroke:#000000;stroke-width:0.02;stroke-dasharray:none;stroke-opacity:1" />
    <path
       d="m 50.7,236.206 v 2.9 c 0,0.1 0.1,0 0,0 h -2.8 c -0.1,0 0,0.1 0,0 v -5.8 c 0,-0.1 -0.1,0 0,0 h 2.8 c 0.1,0 0,-0.1 0,0 z"
       stroke="#0000ff"
       stroke-width="0.20"
       id="path40"
       style="stroke:#000000;stroke-width:0.02;stroke-dasharray:none;stroke-opacity:1" />
    <path
       d="m 50.7,224.206 v 2.9 c 0,0.1 0.1,0 0,0 h -2.8 c -0.1,0 0,0.1 0,0 v -5.8 c 0,-0.1 -0.1,0 0,0 h 2.8 c 0.1,0 0,-0.1 0,0 z"
       stroke="#0000ff"
       stroke-width="0.20"
       id="path41"
       style="stroke:#000000;stroke-width:0.02;stroke-dasharray:none;stroke-opacity:1" />
    <path
       d="m 50.7,207.206 v 2.9 c 0,0.1 0.1,0 0,0 h -2.8 c -0.1,0 0,0.1 0,0 v -5.8 c 0,-0.1 -0.1,0 0,0 h 2.8 c 0.1,0 0,-0.1 0,0 z"
       stroke="#0000ff"
       stroke-width="0.20"
       id="path42"
       style="stroke:#000000;stroke-width:0.02;stroke-dasharray:none;stroke-opacity:1" />
    <path
       d="m 50.7,195.206 v 2.9 c 0,0.1 0.1,0 0,0 h -2.8 c -0.1,0 0,0.1 0,0 v -5.8 c 0,-0.1 -0.1,0 0,0 h 2.8 c 0.1,0 0,-0.1 0,0 z"
       stroke="#0000ff"
       stroke-width="0.20"
       id="path43"
       style="stroke:#000000;stroke-width:0.02;stroke-dasharray:none;stroke-opacity:1" />
    <path
       d="m 79.7,265.206 v 2.9 c 0,0.1 0.1,0 0,0 h -2.8 c -0.1,0 0,0.1 0,0 v -5.8 c 0,-0.1 -0.1,0 0,0 h 2.8 c 0.1,0 0,-0.1 0,0 z"
       stroke="#0000ff"
       stroke-width="0.20"
       id="path44"
       style="stroke:#000000;stroke-width:0.02;stroke-dasharray:none;stroke-opacity:1" />
    <path
       d="m 79.7,253.206 v 2.9 c 0,0.1 0.1,0 0,0 h -2.8 c -0.1,0 0,0.1 0,0 v -5.8 c 0,-0.1 -0.1,0 0,0 h 2.8 c 0.1,0 0,-0.1 0,0 z"
       stroke="#0000ff"
       stroke-width="0.20"
       id="path45"
       style="stroke:#000000;stroke-width:0.02;stroke-dasharray:none;stroke-opacity:1" />
    <path
       d="m 79.7,236.206 v 2.9 c 0,0.1 0.1,0 0,0 h -2.8 c -0.1,0 0,0.1 0,0 v -5.8 c 0,-0.1 -0.1,0 0,0 h 2.8 c 0.1,0 0,-0.1 0,0 z"
       stroke="#0000ff"
       stroke-width="0.20"
       id="path46"
       style="stroke:#000000;stroke-width:0.02;stroke-dasharray:none;stroke-opacity:1" />
    <path
       d="m 79.7,224.206 v 2.9 c 0,0.1 0.1,0 0,0 h -2.8 c -0.1,0 0,0.1 0,0 v -5.8 c 0,-0.1 -0.1,0 0,0 h 2.8 c 0.1,0 0,-0.1 0,0 z"
       stroke="#0000ff"
       stroke-width="0.20"
       id="path47"
       style="stroke:#000000;stroke-width:0.02;stroke-dasharray:none;stroke-opacity:1" />
    <path
       d="m 79.7,207.206 v 2.9 c 0,0.1 0.1,0 0,0 h -2.8 c -0.1,0 0,0.1 0,0 v -5.8 c 0,-0.1 -0.1,0 0,0 h 2.8 c 0.1,0 0,-0.1 0,0 z"
       stroke="#0000ff"
       stroke-width="0.20"
       id="path48"
       style="stroke:#000000;stroke-width:0.02;stroke-dasharray:none;stroke-opacity:1" />
    <path
       d="m 79.7,195.206 v 2.9 c 0,0.1 0.1,0 0,0 h -2.8 c -0.1,0 0,0.1 0,0 v -5.8 c 0,-0.1 -0.1,0 0,0 h 2.8 c 0.1,0 0,-0.1 0,0 z"
       stroke="#0000ff"
       stroke-width="0.20"
       id="path49"
       style="stroke:#000000;stroke-width:0.02;stroke-dasharray:none;stroke-opacity:1" />
    <text
       dominant-baseline="hanging"
       font-size="4px"
       style="font-style:normal;font-weight:normal;font-family:sans-serif;fill:#ff0000;stroke:#000000;stroke-width:0.02;stroke-dasharray:none;stroke-opacity:1"
       text-anchor="middle"
       transform="translate(63.8,228.306)"
       id="text49">back</text>
    <path
       d="m 21.8,272.306 h 2.9 c 0.1,0 0,-0.1 0,0 v 2.9 c 0,0.055 0.045,0.1 0.1,0.1 h 6 c 0.055,0 0.1,-0.045 0.1,-0.1 v -2.9 c 0,-0.1 -0.1,0 0,0 h 5.8 c 0.1,0 0,-0.1 0,0 v 2.9 c 0,0.055 0.045,0.1 0.1,0.1 h 6 c 0.055,0 0.1,-0.045 0.1,-0.1 v -2.9 c 0,-0.1 -0.1,0 0,0 h 5.8 c 0.1,0 0,-0.1 0,0 v 2.9 c 0,0.055 0.045,0.1 0.1,0.1 h 6 c 0.055,0 0.1,-0.045 0.1,-0.1 v -2.9 c 0,-0.1 -0.1,0 0,0 h 5.8 c 0.1,0 0,-0.1 0,0 v 2.9 c 0,0.055 0.045,0.1 0.1,0.1 h 6 c 0.055,0 0.1,-0.045 0.1,-0.1 v -2.9 c 0,-0.1 -0.1,0 0,0 h 5.8 c 0.1,0 0,-0.1 0,0 v 2.9 c 0,0.055 0.045,0.1 0.1,0.1 h 6 c 0.055,0 0.1,-0.045 0.1,-0.1 v -2.9 c 0,-0.1 -0.1,0 0,0 h 5.8 c 0.1,0 0,-0.1 0,0 v 2.9 c 0,0.055 0.045,0.1 0.1,0.1 h 6 c 0.055,0 0.1,-0.045 0.1,-0.1 v -2.9 c 0,-0.1 -0.1,0 0,0 h 5.8 c 0.1,0 0,-0.1 0,0 v 2.9 c 0,0.055 0.045,0.1 0.1,0.1 h 6 c 0.055,0 0.1,-0.045 0.1,-0.1 v -2.9 c 0,-0.1 -0.1,0 0,0 h 2.9 c 0.055,0 0.1,-0.045 0.1,-0.1 v -2.9 c 0,-0.1 -0.1,0 0,0 h 2.9 c 0.055,0 0.1,-0.045 0.1,-0.1 v -6 c 0,-0.055 -0.045,-0.1 -0.1,-0.1 h -2.9 c -0.1,0 0,0.1 0,0 v -5.8 c 0,-0.1 -0.1,0 0,0 h 2.9 c 0.055,0 0.1,-0.045 0.1,-0.1 v -6 c 0,-0.055 -0.045,-0.1 -0.1,-0.1 h -2.9 c -0.1,0 0,0.1 0,0 v -5.8 c 0,-0.1 -0.1,0 0,0 h 2.9 c 0.055,0 0.1,-0.045 0.1,-0.1 v -6 c 0,-0.055 -0.045,-0.1 -0.1,-0.1 h -2.9 c -0.1,0 0,0.1 0,0 v -5.8 c 0,-0.1 -0.1,0 0,0 h 2.9 c 0.055,0 0.1,-0.045 0.1,-0.1 v -6 c 0,-0.055 -0.045,-0.1 -0.1,-0.1 h -2.9 c -0.1,0 0,0.1 0,0 v -5.8 c 0,-0.1 -0.1,0 0,0 h 2.9 c 0.055,0 0.1,-0.045 0.1,-0.1 v -6 c 0,-0.055 -0.045,-0.1 -0.1,-0.1 h -2.9 c -0.1,0 0,0.1 0,0 v -5.8 c 0,-0.1 -0.1,0 0,0 h 2.9 c 0.055,0 0.1,-0.045 0.1,-0.1 v -6 c 0,-0.055 -0.045,-0.1 -0.1,-0.1 h -2.9 c -0.1,0 0,0.1 0,0 v -5.8 c 0,-0.1 -0.1,0 0,0 h 2.9 c 0.055,0 0.1,-0.045 0.1,-0.1 v -6 c 0,-0.055 -0.045,-0.1 -0.1,-0.1 h -2.9 c -0.1,0 0,0.1 0,0 v -2.9 c 0,-0.055 -0.045,-0.1 -0.1,-0.1 h -2.9 c -0.1,0 0,0.1 0,0 v -2.9 c 0,-0.055 -0.045,-0.1 -0.1,-0.1 h -6 c -0.055,0 -0.1,0.045 -0.1,0.1 v 2.9 c 0,0.1 0.1,0 0,0 h -5.8 c -0.1,0 0,0.1 0,0 v -2.9 c 0,-0.055 -0.045,-0.1 -0.1,-0.1 h -6 c -0.055,0 -0.1,0.045 -0.1,0.1 v 2.9 c 0,0.1 0.1,0 0,0 h -5.8 c -0.1,0 0,0.1 0,0 v -2.9 c 0,-0.055 -0.045,-0.1 -0.1,-0.1 h -6 c -0.055,0 -0.1,0.045 -0.1,0.1 v 2.9 c 0,0.1 0.1,0 0,0 h -5.8 c -0.1,0 0,0.1 0,0 v -2.9 c 0,-0.055 -0.045,-0.1 -0.1,-0.1 h -6 c -0.055,0 -0.1,0.045 -0.1,0.1 v 2.9 c 0,0.1 0.1,0 0,0 h -5.8 c -0.1,0 0,0.1 0,0 v -2.9 c 0,-0.055 -0.045,-0.1 -0.1,-0.1 h -6 c -0.055,0 -0.1,0.045 -0.1,0.1 v 2.9 c 0,0.1 0.1,0 0,0 h -5.8 c -0.1,0 0,0.1 0,0 v -2.9 c 0,-0.055 -0.045,-0.1 -0.1,-0.1 h -6 c -0.055,0 -0.1,0.045 -0.1,0.1 v 2.9 c 0,0.1 0.1,0 0,0 h -5.8 c -0.1,0 0,0.1 0,0 v -2.9 c 0,-0.055 -0.045,-0.1 -0.1,-0.1 h -6 c -0.055,0 -0.1,0.045 -0.1,0.1 v 2.9 c 0,0.1 0.1,0 0,0 h -2.9 c -0.055,0 -0.1,0.045 -0.1,0.1 v 2.9 c 0,0.1 0.1,0 0,0 h -2.9 c -0.055,0 -0.1,0.045 -0.1,0.1 v 6 c 0,0.055 0.045,0.1 0.1,0.1 h 2.9 c 0.1,0 0,-0.1 0,0 v 5.8 c 0,0.1 0.1,0 0,0 h -2.9 c -0.055,0 -0.1,0.045 -0.1,0.1 v 6 c 0,0.055 0.045,0.1 0.1,0.1 h 2.9 c 0.1,0 0,-0.1 0,0 v 5.8 c 0,0.1 0.1,0 0,0 h -2.9 c -0.055,0 -0.1,0.045 -0.1,0.1 v 6 c 0,0.055 0.045,0.1 0.1,0.1 h 2.9 c 0.1,0 0,-0.1 0,0 v 5.8 c 0,0.1 0.1,0 0,0 h -2.9 c -0.055,0 -0.1,0.045 -0.1,0.1 v 6 c 0,0.055 0.045,0.1 0.1,0.1 h 2.9 c 0.1,0 0,-0.1 0,0 v 5.8 c 0,0.1 0.1,0 0,0 h -2.9 c -0.055,0 -0.1,0.045 -0.1,0.1 v 6 c 0,0.055 0.045,0.1 0.1,0.1 h 2.9 c 0.1,0 0,-0.1 0,0 v 5.8 c 0,0.1 0.1,0 0,0 h -2.9 c -0.055,0 -0.1,0.045 -0.1,0.1 v 6 c 0,0.055 0.045,0.1 0.1,0.1 h 2.9 c 0.1,0 0,-0.1 0,0 v 5.8 c 0,0.1 0.1,0 0,0 h -2.9 c -0.055,0 -0.1,0.045 -0.1,0.1 v 6 c 0,0.055 0.045,0.1 0.1,0.1 h 2.9 c 0.1,0 0,-0.1 0,0 v 2.9 c 0,0.055 0.045,0.1 0.1,0.1"
       stroke="#000000"
       stroke-width="0.20"
       id="path50"
       style="stroke:#000000;stroke-width:0.02;stroke-dasharray:none;stroke-opacity:1" />
    <path
       d="m 98.8,243.306 h 2.9 c 0.1,0 0,-0.1 0,0 v 2.8 c 0,0.1 0.1,0 0,0 h -5.8 c -0.1,0 0,0.1 0,0 v -2.8 c 0,-0.1 -0.1,0 0,0 z"
       stroke="#0000ff"
       stroke-width="0.20"
       id="path51"
       style="stroke:#000000;stroke-width:0.02;stroke-dasharray:none;stroke-opacity:1" />
    <path
       d="m 86.8,243.306 h 2.9 c 0.1,0 0,-0.1 0,0 v 2.8 c 0,0.1 0.1,0 0,0 h -5.8 c -0.1,0 0,0.1 0,0 v -2.8 c 0,-0.1 -0.1,0 0,0 z"
       stroke="#0000ff"
       stroke-width="0.20"
       id="path52"
       style="stroke:#000000;stroke-width:0.02;stroke-dasharray:none;stroke-opacity:1" />
    <path
       d="m 69.8,243.306 h 2.9 c 0.1,0 0,-0.1 0,0 v 2.8 c 0,0.1 0.1,0 0,0 h -5.8 c -0.1,0 0,0.1 0,0 v -2.8 c 0,-0.1 -0.1,0 0,0 z"
       stroke="#0000ff"
       stroke-width="0.20"
       id="path53"
       style="stroke:#000000;stroke-width:0.02;stroke-dasharray:none;stroke-opacity:1" />
    <path
       d="m 57.8,243.306 h 2.9 c 0.1,0 0,-0.1 0,0 v 2.8 c 0,0.1 0.1,0 0,0 h -5.8 c -0.1,0 0,0.1 0,0 v -2.8 c 0,-0.1 -0.1,0 0,0 z"
       stroke="#0000ff"
       stroke-width="0.20"
       id="path54"
       style="stroke:#000000;stroke-width:0.02;stroke-dasharray:none;stroke-opacity:1" />
    <path
       d="m 40.8,243.306 h 2.9 c 0.1,0 0,-0.1 0,0 v 2.8 c 0,0.1 0.1,0 0,0 h -5.8 c -0.1,0 0,0.1 0,0 v -2.8 c 0,-0.1 -0.1,0 0,0 z"
       stroke="#0000ff"
       stroke-width="0.20"
       id="path55"
       style="stroke:#000000;stroke-width:0.02;stroke-dasharray:none;stroke-opacity:1" />
    <path
       d="m 28.8,243.306 h 2.9 c 0.1,0 0,-0.1 0,0 v 2.8 c 0,0.1 0.1,0 0,0 h -5.8 c -0.1,0 0,0.1 0,0 v -2.8 c 0,-0.1 -0.1,0 0,0 z"
       stroke="#0000ff"
       stroke-width="0.20"
       id="path56"
       style="stroke:#000000;stroke-width:0.02;stroke-dasharray:none;stroke-opacity:1" />
    <path
       d="m 98.8,214.306 h 2.9 c 0.1,0 0,-0.1 0,0 v 2.8 c 0,0.1 0.1,0 0,0 h -5.8 c -0.1,0 0,0.1 0,0 v -2.8 c 0,-0.1 -0.1,0 0,0 z"
       stroke="#0000ff"
       stroke-width="0.20"
       id="path57"
       style="stroke:#000000;stroke-width:0.02;stroke-dasharray:none;stroke-opacity:1" />
    <path
       d="m 86.8,214.306 h 2.9 c 0.1,0 0,-0.1 0,0 v 2.8 c 0,0.1 0.1,0 0,0 h -5.8 c -0.1,0 0,0.1 0,0 v -2.8 c 0,-0.1 -0.1,0 0,0 z"
       stroke="#0000ff"
       stroke-width="0.20"
       id="path58"
       style="stroke:#000000;stroke-width:0.02;stroke-dasharray:none;stroke-opacity:1" />
    <path
       d="m 69.8,214.306 h 2.9 c 0.1,0 0,-0.1 0,0 v 2.8 c 0,0.1 0.1,0 0,0 h -5.8 c -0.1,0 0,0.1 0,0 v -2.8 c 0,-0.1 -0.1,0 0,0 z"
       stroke="#0000ff"
       stroke-width="0.20"
       id="path59"
       style="stroke:#000000;stroke-width:0.02;stroke-dasharray:none;stroke-opacity:1" />
    <path
       d="m 57.8,214.306 h 2.9 c 0.1,0 0,-0.1 0,0 v 2.8 c 0,0.1 0.1,0 0,0 h -5.8 c -0.1,0 0,0.1 0,0 v -2.8 c 0,-0.1 -0.1,0 0,0 z"
       stroke="#0000ff"
       stroke-width="0.20"
       id="path60"
       style="stroke:#000000;stroke-width:0.02;stroke-dasharray:none;stroke-opacity:1" />
    <path
       d="m 40.8,214.306 h 2.9 c 0.1,0 0,-0.1 0,0 v 2.8 c 0,0.1 0.1,0 0,0 h -5.8 c -0.1,0 0,0.1 0,0 v -2.8 c 0,-0.1 -0.1,0 0,0 z"
       stroke="#0000ff"
       stroke-width="0.20"
       id="path61"
       style="stroke:#000000;stroke-width:0.02;stroke-dasharray:none;stroke-opacity:1" />
    <path
       d="m 28.8,214.306 h 2.9 c 0.1,0 0,-0.1 0,0 v 2.8 c 0,0.1 0.1,0 0,0 h -5.8 c -0.1,0 0,0.1 0,0 v -2.8 c 0,-0.1 -0.1,0 0,0 z"
       stroke="#0000ff"
       stroke-width="0.20"
       id="path62"
       style="stroke:#000000;stroke-width:0.02;stroke-dasharray:none;stroke-opacity:1" />
    <path
       d="m 94.15,193.706 c 0,-0.202 0.053,-0.4 0.154,-0.575 0.101,-0.175 0.246,-0.32 0.421,-0.421 0.175,-0.101 0.373,-0.154 0.575,-0.154 0.202,0 0.4,0.053 0.575,0.154 0.175,0.101 0.32,0.246 0.421,0.421 0.101,0.175 0.154,0.373 0.154,0.575 v 2.5 c 0,0.036 0.019,0.069 0.05,0.086 0.406,0.235 0.734,0.583 0.945,1.002 0.21,0.419 0.293,0.89 0.239,1.355 -0.055,0.466 -0.244,0.905 -0.545,1.265 -0.302,0.359 -0.702,0.622 -1.151,0.756 -0.449,0.134 -0.927,0.134 -1.376,0 -0.449,-0.134 -0.849,-0.397 -1.151,-0.756 -0.301,-0.36 -0.49,-0.799 -0.545,-1.265 -0.054,-0.465 0.029,-0.936 0.239,-1.355 0.211,-0.419 0.539,-0.767 0.945,-1.002 0.031,-0.017 0.05,-0.05 0.05,-0.086 z"
       stroke="#0000ff"
       stroke-width="0.20"
       id="path63"
       style="stroke:#000000;stroke-width:0.02;stroke-dasharray:none;stroke-opacity:1" />
    <path
       d="m 31.15,193.706 c 0,-0.202 0.053,-0.4 0.154,-0.575 0.101,-0.175 0.246,-0.32 0.421,-0.421 0.175,-0.101 0.373,-0.154 0.575,-0.154 0.202,0 0.4,0.053 0.575,0.154 0.175,0.101 0.32,0.246 0.421,0.421 0.101,0.175 0.154,0.373 0.154,0.575 v 2.5 c 0,0.036 0.019,0.069 0.05,0.086 0.406,0.235 0.734,0.583 0.945,1.002 0.21,0.419 0.293,0.89 0.239,1.355 -0.055,0.466 -0.244,0.905 -0.545,1.265 -0.302,0.359 -0.702,0.622 -1.151,0.756 -0.449,0.134 -0.927,0.134 -1.376,0 -0.449,-0.134 -0.849,-0.397 -1.151,-0.756 -0.301,-0.36 -0.49,-0.799 -0.545,-1.265 -0.054,-0.465 0.029,-0.936 0.239,-1.355 0.211,-0.419 0.539,-0.767 0.945,-1.002 0.031,-0.017 0.05,-0.05 0.05,-0.086 z"
       stroke="#0000ff"
       stroke-width="0.20"
       id="path64"
       style="stroke:#000000;stroke-width:0.02;stroke-dasharray:none;stroke-opacity:1" />
  </g>
  <g
     id="p-6"
     style="fill:none;stroke:#000000;stroke-width:0.02;stroke-linecap:round;stroke-linejoin:round;stroke-dasharray:none;stroke-opacity:1"
     transform="translate(-14.713649,-102.11486)">
    <text
       dominant-baseline="hanging"
       font-size="4px"
       style="font-style:normal;font-weight:normal;font-family:sans-serif;fill:#ff0000;stroke:#000000;stroke-width:0.02;stroke-dasharray:none;stroke-opacity:1"
       text-anchor="middle"
       id="text64"
       x="155.5"
       y="254.46004">inner vertical 1</text>
    <path
       d="m 113.5,272.306 h 3.9 c 0.1,0 0,-0.1 0,0 v 2.9 c 0,0.055 0.045,0.1 0.1,0.1 h 6 c 0.055,0 0.1,-0.045 0.1,-0.1 v -2.9 c 0,-0.1 -0.1,0 0,0 h 5.8 c 0.1,0 0,-0.1 0,0 v 2.9 c 0,0.055 0.045,0.1 0.1,0.1 h 6 c 0.055,0 0.1,-0.045 0.1,-0.1 v -2.9 c 0,-0.1 -0.1,0 0,0 h 3.9 3 3.9 c 0.1,0 0,-0.1 0,0 v 2.9 c 0,0.055 0.045,0.1 0.1,0.1 h 6 c 0.055,0 0.1,-0.045 0.1,-0.1 v -2.9 c 0,-0.1 -0.1,0 0,0 h 5.8 c 0.1,0 0,-0.1 0,0 v 2.9 c 0,0.055 0.045,0.1 0.1,0.1 h 6 c 0.055,0 0.1,-0.045 0.1,-0.1 v -2.9 c 0,-0.1 -0.1,0 0,0 h 3.9 3 3.9 c 0.1,0 0,-0.1 0,0 v 2.9 c 0,0.055 0.045,0.1 0.1,0.1 h 6 c 0.055,0 0.1,-0.045 0.1,-0.1 v -2.9 c 0,-0.1 -0.1,0 0,0 h 5.8 c 0.1,0 0,-0.1 0,0 v 2.9 c 0,0.055 0.045,0.1 0.1,0.1 h 6 c 0.055,0 0.1,-0.045 0.1,-0.1 v -2.9 c 0,-0.1 -0.1,0 0,0 h 3.9 c 0.055,0 0.1,-0.045 0.1,-0.1 v -2.4 c 0,-0.1 -0.1,0 0,0 h 2.9 c 0.055,0 0.1,-0.045 0.1,-0.1 v -6 c 0,-0.055 -0.045,-0.1 -0.1,-0.1 h -2.9 c -0.1,0 0,0.1 0,0 v -5.8 c 0,-0.1 -0.1,0 0,0 h 2.9 c 0.055,0 0.1,-0.045 0.1,-0.1 v -6 c 0,-0.055 -0.045,-0.1 -0.1,-0.1 h -2.9 c -0.1,0 0,0.1 0,0 v -5.8 c 0,-0.1 -0.1,0 0,0 h 2.9 c 0.055,0 0.1,-0.045 0.1,-0.1 v -6 c 0,-0.055 -0.045,-0.1 -0.1,-0.1 h -2.9 c -0.1,0 0,0.1 0,0 v -5.8 c 0,-0.1 -0.1,0 0,0 h 2.9 c 0.055,0 0.1,-0.045 0.1,-0.1 v -6 c 0,-0.055 -0.045,-0.1 -0.1,-0.1 h -2.9 c -0.1,0 0,0.1 0,0 v -2.4 c 0,-0.055 -0.045,-0.1 -0.1,-0.1 0.014,0 0.027,0.003 0.039,0.008 l -18.2,-7.8 c -0.037,-0.016 -0.081,-0.008 -0.11,0.021 l -1.708,1.708 c -0.07,0.071 0.071,0.071 0,0 l -2.05,-2.051 c -0.039,-0.039 -0.103,-0.039 -0.142,0 l -4.242,4.243 c -0.039,0.039 -0.039,0.102 0,0.142 l 2.05,2.05 c 0.071,0.071 0.071,-0.071 0,0 l -1.708,1.708 c -0.018,0.019 -0.029,0.044 -0.029,0.071 v 23.4 c 0,0.1 0.1,0 0,0 h -2.8 c -0.1,0 0,0.1 0,0 v -23.4 c 0,-0.04 -0.024,-0.076 -0.061,-0.092 l -18.2,-7.8 c -0.037,-0.016 -0.081,-0.008 -0.11,0.021 l -1.708,1.708 c -0.07,0.071 0.071,0.071 0,0 l -2.05,-2.051 c -0.039,-0.039 -0.103,-0.039 -0.142,0 l -4.242,4.243 c -0.039,0.039 -0.039,0.102 0,0.142 l 2.05,2.05 c 0.071,0.071 0.071,-0.071 0,0 l -1.708,1.708 c -0.018,0.019 -0.029,0.044 -0.029,0.071 v 23.4 c 0,0.1 0.1,0 0,0 h -2.8 c -0.1,0 0,0.1 0,0 v -23.4 c 0,-0.04 -0.024,-0.076 -0.061,-0.092 l -18.2,-7.8 c -0.037,-0.016 -0.081,-0.008 -0.11,0.021 l -1.708,1.708 c -0.07,0.071 0.071,0.071 0,0 l -2.05,-2.051 c -0.039,-0.039 -0.103,-0.039 -0.142,0 l -4.242,4.243 c -0.039,0.039 -0.039,0.102 0,0.142 l 2.05,2.05 c 0.071,0.071 0.071,-0.071 0,0 l -1.708,1.708 c 0.019,-0.019 0.044,-0.029 0.071,-0.029 -0.055,0 -0.1,0.045 -0.1,0.1 v 2.4 c 0,0.1 0.1,0 0,0 h -2.9 c -0.055,0 -0.1,0.045 -0.1,0.1 v 6 c 0,0.055 0.045,0.1 0.1,0.1 h 2.9 c 0.1,0 0,-0.1 0,0 v 5.8 c 0,0.1 0.1,0 0,0 h -2.9 c -0.055,0 -0.1,0.045 -0.1,0.1 v 6 c 0,0.055 0.045,0.1 0.1,0.1 h 2.9 c 0.1,0 0,-0.1 0,0 v 5.8 c 0,0.1 0.1,0 0,0 h -2.9 c -0.055,0 -0.1,0.045 -0.1,0.1 v 6 c 0,0.055 0.045,0.1 0.1,0.1 h 2.9 c 0.1,0 0,-0.1 0,0 v 5.8 c 0,0.1 0.1,0 0,0 h -2.9 c -0.055,0 -0.1,0.045 -0.1,0.1 v 6 c 0,0.055 0.045,0.1 0.1,0.1 h 2.9 c 0.1,0 0,-0.1 0,0 v 2.4 c 0,0.055 0.045,0.1 0.1,0.1"
       stroke="rgb(0,0,0)"
       stroke-width="0.20"
       id="path65"
       style="stroke:#000000;stroke-width:0.02;stroke-dasharray:none;stroke-opacity:1" />
  </g>
  <g
     id="p-7"
     style="fill:none;stroke:#000000;stroke-width:0.02;stroke-linecap:round;stroke-linejoin:round;stroke-dasharray:none;stroke-opacity:1"
     transform="translate(-14.713649,-102.11486)">
    <text
       dominant-baseline="hanging"
       font-size="4px"
       style="font-style:normal;font-weight:normal;font-family:sans-serif;fill:#ff0000;stroke:#000000;stroke-width:0.02;stroke-dasharray:none;stroke-opacity:1"
       text-anchor="middle"
       id="text65"
       x="155.5"
       y="192.31424">inner vertical 2</text>
    <path
       d="m 113.5,212.806 h 3.9 c 0.1,0 0,-0.1 0,0 v 2.9 c 0,0.055 0.045,0.1 0.1,0.1 h 6 c 0.055,0 0.1,-0.045 0.1,-0.1 v -2.9 c 0,-0.1 -0.1,0 0,0 h 5.8 c 0.1,0 0,-0.1 0,0 v 2.9 c 0,0.055 0.045,0.1 0.1,0.1 h 6 c 0.055,0 0.1,-0.045 0.1,-0.1 v -2.9 c 0,-0.1 -0.1,0 0,0 h 3.9 3 3.9 c 0.1,0 0,-0.1 0,0 v 2.9 c 0,0.055 0.045,0.1 0.1,0.1 h 6 c 0.055,0 0.1,-0.045 0.1,-0.1 v -2.9 c 0,-0.1 -0.1,0 0,0 h 5.8 c 0.1,0 0,-0.1 0,0 v 2.9 c 0,0.055 0.045,0.1 0.1,0.1 h 6 c 0.055,0 0.1,-0.045 0.1,-0.1 v -2.9 c 0,-0.1 -0.1,0 0,0 h 3.9 3 3.9 c 0.1,0 0,-0.1 0,0 v 2.9 c 0,0.055 0.045,0.1 0.1,0.1 h 6 c 0.055,0 0.1,-0.045 0.1,-0.1 v -2.9 c 0,-0.1 -0.1,0 0,0 h 5.8 c 0.1,0 0,-0.1 0,0 v 2.9 c 0,0.055 0.045,0.1 0.1,0.1 h 6 c 0.055,0 0.1,-0.045 0.1,-0.1 v -2.9 c 0,-0.1 -0.1,0 0,0 h 3.9 c 0.055,0 0.1,-0.045 0.1,-0.1 v -2.4 c 0,-0.1 -0.1,0 0,0 h 2.9 c 0.055,0 0.1,-0.045 0.1,-0.1 v -6 c 0,-0.055 -0.045,-0.1 -0.1,-0.1 h -2.9 c -0.1,0 0,0.1 0,0 v -5.8 c 0,-0.1 -0.1,0 0,0 h 2.9 c 0.055,0 0.1,-0.045 0.1,-0.1 v -6 c 0,-0.055 -0.045,-0.1 -0.1,-0.1 h -2.9 c -0.1,0 0,0.1 0,0 v -5.8 c 0,-0.1 -0.1,0 0,0 h 2.9 c 0.055,0 0.1,-0.045 0.1,-0.1 v -6 c 0,-0.055 -0.045,-0.1 -0.1,-0.1 h -2.9 c -0.1,0 0,0.1 0,0 v -5.8 c 0,-0.1 -0.1,0 0,0 h 2.9 c 0.055,0 0.1,-0.045 0.1,-0.1 v -6 c 0,-0.055 -0.045,-0.1 -0.1,-0.1 h -2.9 c -0.1,0 0,0.1 0,0 v -2.4 c 0,-0.055 -0.045,-0.1 -0.1,-0.1 0.014,0 0.027,0.003 0.039,0.008 l -18.2,-7.8 c -0.037,-0.016 -0.081,-0.008 -0.11,0.021 l -1.708,1.708 c -0.07,0.071 0.071,0.071 0,0 l -2.05,-2.051 c -0.039,-0.039 -0.103,-0.039 -0.142,0 l -4.242,4.243 c -0.039,0.039 -0.039,0.102 0,0.142 l 2.05,2.05 c 0.071,0.071 0.071,-0.071 0,0 l -1.708,1.708 c -0.018,0.019 -0.029,0.044 -0.029,0.071 v 23.4 c 0,0.1 0.1,0 0,0 h -2.8 c -0.1,0 0,0.1 0,0 v -23.4 c 0,-0.04 -0.024,-0.076 -0.061,-0.092 l -18.2,-7.8 c -0.037,-0.016 -0.081,-0.008 -0.11,0.021 l -1.708,1.708 c -0.07,0.071 0.071,0.071 0,0 l -2.05,-2.051 c -0.039,-0.039 -0.103,-0.039 -0.142,0 l -4.242,4.243 c -0.039,0.039 -0.039,0.102 0,0.142 l 2.05,2.05 c 0.071,0.071 0.071,-0.071 0,0 l -1.708,1.708 c -0.018,0.019 -0.029,0.044 -0.029,0.071 v 23.4 c 0,0.1 0.1,0 0,0 h -2.8 c -0.1,0 0,0.1 0,0 v -23.4 c 0,-0.04 -0.024,-0.076 -0.061,-0.092 l -18.2,-7.8 c -0.037,-0.016 -0.081,-0.008 -0.11,0.021 l -1.708,1.708 c -0.07,0.071 0.071,0.071 0,0 l -2.05,-2.051 c -0.039,-0.039 -0.103,-0.039 -0.142,0 l -4.242,4.243 c -0.039,0.039 -0.039,0.102 0,0.142 l 2.05,2.05 c 0.071,0.071 0.071,-0.071 0,0 l -1.708,1.708 c 0.019,-0.019 0.044,-0.029 0.071,-0.029 -0.055,0 -0.1,0.045 -0.1,0.1 v 2.4 c 0,0.1 0.1,0 0,0 h -2.9 c -0.055,0 -0.1,0.045 -0.1,0.1 v 6 c 0,0.055 0.045,0.1 0.1,0.1 h 2.9 c 0.1,0 0,-0.1 0,0 v 5.8 c 0,0.1 0.1,0 0,0 h -2.9 c -0.055,0 -0.1,0.045 -0.1,0.1 v 6 c 0,0.055 0.045,0.1 0.1,0.1 h 2.9 c 0.1,0 0,-0.1 0,0 v 5.8 c 0,0.1 0.1,0 0,0 h -2.9 c -0.055,0 -0.1,0.045 -0.1,0.1 v 6 c 0,0.055 0.045,0.1 0.1,0.1 h 2.9 c 0.1,0 0,-0.1 0,0 v 5.8 c 0,0.1 0.1,0 0,0 h -2.9 c -0.055,0 -0.1,0.045 -0.1,0.1 v 6 c 0,0.055 0.045,0.1 0.1,0.1 h 2.9 c 0.1,0 0,-0.1 0,0 v 2.4 c 0,0.055 0.045,0.1 0.1,0.1"
       stroke="rgb(0,0,0)"
       stroke-width="0.20"
       id="path66"
       style="stroke:#000000;stroke-width:0.02;stroke-dasharray:none;stroke-opacity:1" />
  </g>
  <g
     id="p-8"
     style="fill:none;stroke:#000000;stroke-width:0.02;stroke-linecap:round;stroke-linejoin:round;stroke-dasharray:none;stroke-opacity:1"
     transform="translate(2.7488534,-110.58153)">
    <text
       dominant-baseline="hanging"
       font-size="4px"
       style="font-style:normal;font-weight:normal;font-family:sans-serif;fill:#ff0000;stroke:#000000;stroke-width:0.02;stroke-dasharray:none;stroke-opacity:1"
       text-anchor="middle"
       id="text66"
       x="138.03773"
       y="130.80064">inner horizontal 1</text>
    <path
       d="m 96.037414,161.77272 h 3.899979 c 0.1,0 0,-0.1 0,0 v 2.9 c 0,0.055 0.045,0.1 0.1,0.1 h 6 c 0.055,0 0.1,-0.045 0.1,-0.1 v -2.9 c 0,-0.1 -0.1,0 0,0 h 5.8 c 0.1,0 0,-0.1 0,0 v 2.9 c 0,0.055 0.045,0.1 0.1,0.1 h 6 c 0.055,0 0.1,-0.045 0.1,-0.1 v -2.9 c 0,-0.1 -0.1,0 0,0 h 3.9 c 0.055,0 0.1,-0.045 0.1,-0.1 v -23.4 c 0,-0.1 -0.1,0 0,0 h 2.8 c 0.1,0 0,-0.1 0,0 v 23.4 c 0,0.055 0.045,0.1 0.1,0.1 h 3.9 c 0.1,0 0,-0.1 0,0 v 2.9 c 0,0.055 0.045,0.1 0.1,0.1 h 6 c 0.055,0 0.1,-0.045 0.1,-0.1 v -2.9 c 0,-0.1 -0.1,0 0,0 h 5.8 c 0.1,0 0,-0.1 0,0 v 2.9 c 0,0.055 0.045,0.1 0.1,0.1 h 6 c 0.055,0 0.1,-0.045 0.1,-0.1 v -2.9 c 0,-0.1 -0.1,0 0,0 h 3.9 c 0.055,0 0.1,-0.045 0.1,-0.1 v -23.4 c 0,-0.1 -0.1,0 0,0 h 2.8 c 0.1,0 0,-0.1 0,0 v 23.4 c 0,0.055 0.045,0.1 0.1,0.1 h 3.9 c 0.1,0 0,-0.1 0,0 v 2.9 c 0,0.055 0.045,0.1 0.1,0.1 h 6 c 0.055,0 0.1,-0.045 0.1,-0.1 v -2.9 c 0,-0.1 -0.1,0 0,0 h 5.8 c 0.1,0 0,-0.1 0,0 v 2.9 c 0,0.055 0.045,0.1 0.1,0.1 h 6 c 0.055,0 0.1,-0.045 0.1,-0.1 v -2.9 c 0,-0.1 -0.1,0 0,0 h 3.9 c 0.055,0 0.1,-0.045 0.1,-0.1 v -2.4 c 0,-0.1 -0.1,0 0,0 h 2.9 c 0.055,0 0.1,-0.045 0.1,-0.1 v -6 c 0,-0.055 -0.045,-0.1 -0.1,-0.1 h -2.9 c -0.1,0 0,0.1 0,0 v -5.8 c 0,-0.1 -0.1,0 0,0 h 2.9 c 0.055,0 0.1,-0.045 0.1,-0.1 v -6 c 0,-0.055 -0.045,-0.1 -0.1,-0.1 h -2.9 c -0.1,0 0,0.1 0,0 v -5.8 c 0,-0.1 -0.1,0 0,0 h 2.9 c 0.055,0 0.1,-0.045 0.1,-0.1 v -6 c 0,-0.055 -0.045,-0.1 -0.1,-0.1 h -2.9 c -0.1,0 0,0.1 0,0 v -5.8 c 0,-0.1 -0.1,0 0,0 h 2.9 c 0.055,0 0.1,-0.045 0.1,-0.1 v -6 c 0,-0.055 -0.045,-0.1 -0.1,-0.1 h -2.9 c -0.1,0 0,0.1 0,0 v -2.4 -1.243 c 0,-0.055 -0.045,-0.1 -0.1,-0.1 h -4 c -0.055,0 -0.1,0.045 -0.1,0.1 v 2.021 c 0,0.1 0.1,0 0,0 h -5.8 c -0.1,0 0,0.1 0,0 v -2.021 c 0,-0.055 -0.045,-0.1 -0.1,-0.1 h -6 c -0.055,0 -0.1,0.045 -0.1,0.1 v 2.021 c 0,0.1 0.1,0 0,0 h -5.8 c -0.1,0 0,0.1 0,0 v -2.021 c 0,-0.055 -0.045,-0.1 -0.1,-0.1 h -4 -3 -4 c -0.055,0 -0.1,0.045 -0.1,0.1 v 2.021 c 0,0.1 0.1,0 0,0 h -5.8 c -0.1,0 0,0.1 0,0 v -2.021 c 0,-0.055 -0.045,-0.1 -0.1,-0.1 h -6 c -0.055,0 -0.1,0.045 -0.1,0.1 v 2.021 c 0,0.1 0.1,0 0,0 h -5.8 c -0.1,0 0,0.1 0,0 v -2.021 c 0,-0.055 -0.045,-0.1 -0.1,-0.1 h -4 -3 -4 c -0.055,0 -0.1,0.045 -0.1,0.1 v 2.021 c 0,0.1 0.1,0 0,0 h -5.8 c -0.1,0 0,0.1 0,0 v -2.021 c 0,-0.055 -0.045,-0.1 -0.1,-0.1 h -6 c -0.055,0 -0.1,0.045 -0.1,0.1 v 2.021 c 0,0.1 0.1,0 0,0 h -5.8 c -0.1,0 0,0.1 0,0 v -2.021 c 0,-0.055 -0.045,-0.1 -0.1,-0.1 h -3.999946 c -0.055,0 -0.1,0.045 -0.1,0.1 v 1.243 2.4 c 0,0.1 0.1,0 0,0 H 93.03745 c -0.055,0 -0.1,0.045 -0.1,0.1 v 6 c 0,0.055 0.045,0.1 0.1,0.1 h 2.899982 c 0.1,0 0,-0.1 0,0 v 5.8 c 0,0.1 0.1,0 0,0 H 93.03745 c -0.055,0 -0.1,0.045 -0.1,0.1 v 6 c 0,0.055 0.045,0.1 0.1,0.1 h 2.899982 c 0.1,0 0,-0.1 0,0 v 5.8 c 0,0.1 0.1,0 0,0 H 93.03745 c -0.055,0 -0.1,0.045 -0.1,0.1 v 6 c 0,0.055 0.045,0.1 0.1,0.1 h 2.899982 c 0.1,0 0,-0.1 0,0 v 5.8 c 0,0.1 0.1,0 0,0 H 93.03745 c -0.055,0 -0.1,0.045 -0.1,0.1 v 6 c 0,0.055 0.045,0.1 0.1,0.1 h 2.899982 c 0.1,0 0,-0.1 0,0 v 2.4 c 0,0.055 0.045,0.1 0.1,0.1"
       stroke="rgb(0,0,0)"
       stroke-width="0.20"
       id="path67"
       style="stroke:#000000;stroke-width:0.02;stroke-dasharray:none;stroke-opacity:1" />
    <text
       dominant-baseline="hanging"
       font-size="4px"
       style="font-style:normal;font-weight:normal;font-family:sans-serif;fill:#ff0000;stroke:#000000;stroke-width:0.02;stroke-linecap:round;stroke-linejoin:round;stroke-dasharray:none;stroke-opacity:1"
       text-anchor="middle"
       id="text66-6"
       x="45.27972"
       y="169.07623"><tspan
         sodipodi:role="line"
         id="tspan77"
         x="45.27972"
         y="169.07623">inner horizontal 2</tspan><tspan
         sodipodi:role="line"
         id="tspan78"
         x="45.27972"
         y="174.07623" /></text>
  </g>
  <g
     id="p-9"
     style="fill:none;stroke-width:0.02;stroke-linecap:round;stroke-linejoin:round;stroke-dasharray:none;stroke:#000000;stroke-opacity:1"
     transform="translate(-104.99288,-23.031953)">
    <path
       d="m 112.13006,117.42498 h 3.9 c 0.1,0 0,-0.1 0,0 v 2.9 c 0,0.055 0.045,0.1 0.1,0.1 h 6 c 0.055,0 0.1,-0.045 0.1,-0.1 v -2.9 c 0,-0.1 -0.1,0 0,0 h 5.8 c 0.1,0 0,-0.1 0,0 v 2.9 c 0,0.055 0.045,0.1 0.1,0.1 h 6 c 0.055,0 0.1,-0.045 0.1,-0.1 v -2.9 c 0,-0.1 -0.1,0 0,0 h 3.9 c 0.055,0 0.1,-0.045 0.1,-0.1 V 93.924981 c 0,-0.1 -0.1,0 0,0 h 2.8 c 0.1,0 0,-0.1 0,0 v 23.399999 c 0,0.055 0.045,0.1 0.1,0.1 h 3.9 c 0.1,0 0,-0.1 0,0 v 2.9 c 0,0.055 0.045,0.1 0.1,0.1 h 6 c 0.055,0 0.1,-0.045 0.1,-0.1 v -2.9 c 0,-0.1 -0.1,0 0,0 h 5.8 c 0.1,0 0,-0.1 0,0 v 2.9 c 0,0.055 0.045,0.1 0.1,0.1 h 6 c 0.055,0 0.1,-0.045 0.1,-0.1 v -2.9 c 0,-0.1 -0.1,0 0,0 h 3.9 c 0.055,0 0.1,-0.045 0.1,-0.1 V 93.924981 c 0,-0.1 -0.1,0 0,0 h 2.8 c 0.1,0 0,-0.1 0,0 v 23.399999 c 0,0.055 0.045,0.1 0.1,0.1 h 3.9 c 0.1,0 0,-0.1 0,0 v 2.9 c 0,0.055 0.045,0.1 0.1,0.1 h 6 c 0.055,0 0.1,-0.045 0.1,-0.1 v -2.9 c 0,-0.1 -0.1,0 0,0 h 5.8 c 0.1,0 0,-0.1 0,0 v 2.9 c 0,0.055 0.045,0.1 0.1,0.1 h 6 c 0.055,0 0.1,-0.045 0.1,-0.1 v -2.9 c 0,-0.1 -0.1,0 0,0 h 3.9 c 0.055,0 0.1,-0.045 0.1,-0.1 v -2.4 c 0,-0.1 -0.1,0 0,0 h 2.9 c 0.055,0 0.1,-0.045 0.1,-0.1 v -6 c 0,-0.055 -0.045,-0.1 -0.1,-0.1 h -2.9 c -0.1,0 0,0.1 0,0 v -5.8 c 0,-0.1 -0.1,0 0,0 h 2.9 c 0.055,0 0.1,-0.045 0.1,-0.1 v -5.999999 c 0,-0.055 -0.045,-0.1 -0.1,-0.1 h -2.9 c -0.1,0 0,0.1 0,0 v -5.8 c 0,-0.1 -0.1,0 0,0 h 2.9 c 0.055,0 0.1,-0.045 0.1,-0.1 v -6 c 0,-0.055 -0.045,-0.1 -0.1,-0.1 h -2.9 c -0.1,0 0,0.1 0,0 v -5.8 c 0,-0.1 -0.1,0 0,0 h 2.9 c 0.055,0 0.1,-0.045 0.1,-0.1 v -6 c 0,-0.055 -0.045,-0.1 -0.1,-0.1 h -2.9 c -0.1,0 0,0.1 0,0 v -2.4 -1.242 c 0,-0.056 -0.045,-0.1 -0.1,-0.1 h -4 c -0.055,0 -0.1,0.044 -0.1,0.1 v 2.021 c 0,0.1 0.1,0 0,0 h -5.8 c -0.1,0 0,0.1 0,0 v -2.021 c 0,-0.056 -0.045,-0.1 -0.1,-0.1 h -6 c -0.055,0 -0.1,0.044 -0.1,0.1 v 2.021 c 0,0.1 0.1,0 0,0 h -5.8 c -0.1,0 0,0.1 0,0 v -2.021 c 0,-0.056 -0.045,-0.1 -0.1,-0.1 h -4 -3 -4 c -0.055,0 -0.1,0.044 -0.1,0.1 v 2.021 c 0,0.1 0.1,0 0,0 h -5.8 c -0.1,0 0,0.1 0,0 v -2.021 c 0,-0.056 -0.045,-0.1 -0.1,-0.1 h -6 c -0.055,0 -0.1,0.044 -0.1,0.1 v 2.021 c 0,0.1 0.1,0 0,0 h -5.8 c -0.1,0 0,0.1 0,0 v -2.021 c 0,-0.056 -0.045,-0.1 -0.1,-0.1 h -4 -3 -4 c -0.055,0 -0.1,0.044 -0.1,0.1 v 2.021 c 0,0.1 0.1,0 0,0 h -5.8 c -0.1,0 0,0.1 0,0 v -2.021 c 0,-0.056 -0.045,-0.1 -0.1,-0.1 h -6 c -0.055,0 -0.1,0.044 -0.1,0.1 v 2.021 c 0,0.1 0.1,0 0,0 h -5.8 c -0.1,0 0,0.1 0,0 v -2.021 c 0,-0.056 -0.045,-0.1 -0.1,-0.1 h -4 c -0.055,0 -0.1,0.044 -0.1,0.1 v 1.242 2.4 c 0,0.1 0.1,0 0,0 h -2.9 c -0.055,0 -0.1,0.045 -0.1,0.1 v 6 c 0,0.055 0.045,0.1 0.1,0.1 h 2.9 c 0.1,0 0,-0.1 0,0 v 5.8 c 0,0.1 0.1,0 0,0 h -2.9 c -0.055,0 -0.1,0.045 -0.1,0.1 v 6 c 0,0.055 0.045,0.1 0.1,0.1 h 2.9 c 0.1,0 0,-0.1 0,0 v 5.8 c 0,0.1 0.1,0 0,0 h -2.9 c -0.055,0 -0.1,0.045 -0.1,0.1 v 5.999999 c 0,0.055 0.045,0.1 0.1,0.1 h 2.9 c 0.1,0 0,-0.1 0,0 v 5.8 c 0,0.1 0.1,0 0,0 h -2.9 c -0.055,0 -0.1,0.045 -0.1,0.1 v 6 c 0,0.055 0.045,0.1 0.1,0.1 h 2.9 c 0.1,0 0,-0.1 0,0 v 2.4 c 0,0.055 0.045,0.1 0.1,0.1"
       stroke="#000000"
       stroke-width="0.20"
       id="path68"
       style="fill:none;stroke:#000000;stroke-width:0.02;stroke-dasharray:none;stroke-opacity:1" />
  </g>
  <g
     id="p-10"
     style="fill:none;stroke:#000000;stroke-width:0.02;stroke-linecap:round;stroke-linejoin:round;stroke-dasharray:none;stroke-opacity:1"
     transform="translate(-106.40716,-6.3435698)">
    <path
       d="m 142.4,43.562 v 2.9 c 0,0.1 0.1,0 0,0 h -2.8 c -0.1,0 0,0.1 0,0 v -5.8 c 0,-0.1 -0.1,0 0,0 h 2.8 c 0.1,0 0,-0.1 0,0 z"
       stroke="#0000ff"
       stroke-width="0.20"
       id="path69"
       style="stroke:#000000;stroke-width:0.02;stroke-dasharray:none;stroke-opacity:1" />
    <path
       d="m 171.4,43.562 v 2.9 c 0,0.1 0.1,0 0,0 h -2.8 c -0.1,0 0,0.1 0,0 v -5.8 c 0,-0.1 -0.1,0 0,0 h 2.8 c 0.1,0 0,-0.1 0,0 z"
       stroke="#0000ff"
       stroke-width="0.20"
       id="path70"
       style="stroke:#000000;stroke-width:0.02;stroke-dasharray:none;stroke-opacity:1" />
    <text
       dominant-baseline="hanging"
       font-size="4px"
       style="font-style:normal;font-weight:normal;font-family:sans-serif;fill:#ff0000;stroke:#000000;stroke-width:0.02;stroke-dasharray:none;stroke-opacity:1"
       text-anchor="middle"
       transform="translate(155.5,42.284)"
       id="text70">retainer 1</text>
    <path
       d="m 113.5,48.299 h 3.9 c 0.1,0 0,-0.1 0,0 v 2.022 c 0,0.055 0.045,0.1 0.1,0.1 h 6 c 0.055,0 0.1,-0.045 0.1,-0.1 v -2.022 c 0,-0.1 -0.1,0 0,0 h 5.8 c 0.1,0 0,-0.1 0,0 v 2.022 c 0,0.055 0.045,0.1 0.1,0.1 h 6 c 0.055,0 0.1,-0.045 0.1,-0.1 v -2.022 c 0,-0.1 -0.1,0 0,0 h 3.9 3 3.9 c 0.1,0 0,-0.1 0,0 v 2.022 c 0,0.055 0.045,0.1 0.1,0.1 h 6 c 0.055,0 0.1,-0.045 0.1,-0.1 v -2.022 c 0,-0.1 -0.1,0 0,0 h 5.8 c 0.1,0 0,-0.1 0,0 v 2.022 c 0,0.055 0.045,0.1 0.1,0.1 h 6 c 0.055,0 0.1,-0.045 0.1,-0.1 v -2.022 c 0,-0.1 -0.1,0 0,0 h 3.9 3 3.9 c 0.1,0 0,-0.1 0,0 v 2.022 c 0,0.055 0.045,0.1 0.1,0.1 h 6 c 0.055,0 0.1,-0.045 0.1,-0.1 v -2.022 c 0,-0.1 -0.1,0 0,0 h 5.8 c 0.1,0 0,-0.1 0,0 v 2.022 c 0,0.055 0.045,0.1 0.1,0.1 h 6 c 0.055,0 0.1,-0.045 0.1,-0.1 v -2.022 c 0,-0.1 -0.1,0 0,0 h 3.9 3 c 0.055,0 0.1,-0.045 0.1,-0.1 v 0.879 -2.516 c 0,-0.055 -0.045,-0.1 -0.1,-0.1 h -2.9 c -0.1,0 0,0.1 0,0 v -5.8 c 0,-0.1 -0.1,0 0,0 h 2.9 c 0.055,0 0.1,-0.044 0.1,-0.1 v -2.515 c 0,-0.055 -0.045,-0.1 -0.1,-0.1 h -3 -84 -3 c -0.055,0 -0.1,0.045 -0.1,0.1 v 2.515 c 0,0.056 0.045,0.1 0.1,0.1 h 2.9 c 0.1,0 0,-0.1 0,0 v 5.8 c 0,0.1 0.1,0 0,0 h -2.9 c -0.055,0 -0.1,0.045 -0.1,0.1 v 2.516 -0.879 c 0,0.055 0.045,0.1 0.1,0.1 h 3"
       stroke="#000000"
       stroke-width="0.20"
       id="path71"
       style="stroke:#000000;stroke-width:0.02;stroke-dasharray:none;stroke-opacity:1" />
  </g>
  <g
     id="p-11"
     style="fill:none;stroke:#000000;stroke-width:0.02;stroke-linecap:round;stroke-linejoin:round;stroke-dasharray:none;stroke-opacity:1"
     transform="translate(-106.40716,-6.3435698)">
    <path
       d="m 142.4,29.589 v 2.9 c 0,0.1 0.1,0 0,0 h -2.8 c -0.1,0 0,0.1 0,0 v -5.8 c 0,-0.1 -0.1,0 0,0 h 2.8 c 0.1,0 0,-0.1 0,0 z"
       stroke="#0000ff"
       stroke-width="0.20"
       id="path72"
       style="stroke:#000000;stroke-width:0.02;stroke-dasharray:none;stroke-opacity:1" />
    <path
       d="m 171.4,29.589 v 2.9 c 0,0.1 0.1,0 0,0 h -2.8 c -0.1,0 0,0.1 0,0 v -5.8 c 0,-0.1 -0.1,0 0,0 h 2.8 c 0.1,0 0,-0.1 0,0 z"
       stroke="#0000ff"
       stroke-width="0.20"
       id="path73"
       style="stroke:#000000;stroke-width:0.02;stroke-dasharray:none;stroke-opacity:1" />
    <text
       dominant-baseline="hanging"
       font-size="4px"
       style="font-style:normal;font-weight:normal;font-family:sans-serif;fill:#ff0000;stroke:#000000;stroke-width:0.02;stroke-dasharray:none;stroke-opacity:1"
       text-anchor="middle"
       transform="translate(155.5,28.31)"
       id="text73">retainer 2</text>
    <path
       d="m 113.5,34.326 h 3.9 c 0.1,0 0,-0.1 0,0 v 2.021 c 0,0.055 0.045,0.1 0.1,0.1 h 6 c 0.055,0 0.1,-0.045 0.1,-0.1 v -2.021 c 0,-0.1 -0.1,0 0,0 h 5.8 c 0.1,0 0,-0.1 0,0 v 2.021 c 0,0.055 0.045,0.1 0.1,0.1 h 6 c 0.055,0 0.1,-0.045 0.1,-0.1 v -2.021 c 0,-0.1 -0.1,0 0,0 h 3.9 3 3.9 c 0.1,0 0,-0.1 0,0 v 2.021 c 0,0.055 0.045,0.1 0.1,0.1 h 6 c 0.055,0 0.1,-0.045 0.1,-0.1 v -2.021 c 0,-0.1 -0.1,0 0,0 h 5.8 c 0.1,0 0,-0.1 0,0 v 2.021 c 0,0.055 0.045,0.1 0.1,0.1 h 6 c 0.055,0 0.1,-0.045 0.1,-0.1 v -2.021 c 0,-0.1 -0.1,0 0,0 h 3.9 3 3.9 c 0.1,0 0,-0.1 0,0 v 2.021 c 0,0.055 0.045,0.1 0.1,0.1 h 6 c 0.055,0 0.1,-0.045 0.1,-0.1 v -2.021 c 0,-0.1 -0.1,0 0,0 h 5.8 c 0.1,0 0,-0.1 0,0 v 2.021 c 0,0.055 0.045,0.1 0.1,0.1 h 6 c 0.055,0 0.1,-0.045 0.1,-0.1 v -2.021 c 0,-0.1 -0.1,0 0,0 h 3.9 3 c 0.055,0 0.1,-0.045 0.1,-0.1 v 0.878 -2.515 c 0,-0.055 -0.045,-0.1 -0.1,-0.1 h -2.9 c -0.1,0 0,0.1 0,0 v -5.8 c 0,-0.1 -0.1,0 0,0 h 2.9 c 0.055,0 0.1,-0.045 0.1,-0.1 v -2.515 c 0,-0.056 -0.045,-0.1 -0.1,-0.1 h -3 -84 -3 c -0.055,0 -0.1,0.044 -0.1,0.1 v 2.515 c 0,0.055 0.045,0.1 0.1,0.1 h 2.9 c 0.1,0 0,-0.1 0,0 v 5.8 c 0,0.1 0.1,0 0,0 h -2.9 c -0.055,0 -0.1,0.045 -0.1,0.1 v 2.515 -0.878 c 0,0.055 0.045,0.1 0.1,0.1 h 3"
       stroke="#000000"
       stroke-width="0.20"
       id="path74"
       style="stroke:#000000;stroke-width:0.02;stroke-dasharray:none;stroke-opacity:1" />
  </g>
  <g
     id="p-12"
     style="fill:none;stroke:#000000;stroke-width:0.02;stroke-linecap:round;stroke-linejoin:round;stroke-dasharray:none;stroke-opacity:1"
     transform="translate(-106.40716,-6.3435698)">
    <path
       d="m 142.4,15.615 v 2.9 c 0,0.1 0.1,0 0,0 h -2.8 c -0.1,0 0,0.1 0,0 v -5.8 c 0,-0.1 -0.1,0 0,0 h 2.8 c 0.1,0 0,-0.1 0,0 z"
       stroke="#0000ff"
       stroke-width="0.20"
       id="path75"
       style="stroke:#000000;stroke-width:0.02;stroke-dasharray:none;stroke-opacity:1" />
    <path
       d="m 171.4,15.615 v 2.9 c 0,0.1 0.1,0 0,0 h -2.8 c -0.1,0 0,0.1 0,0 v -5.8 c 0,-0.1 -0.1,0 0,0 h 2.8 c 0.1,0 0,-0.1 0,0 z"
       stroke="#0000ff"
       stroke-width="0.20"
       id="path76"
       style="stroke:#000000;stroke-width:0.02;stroke-dasharray:none;stroke-opacity:1" />
    <text
       dominant-baseline="hanging"
       font-size="4px"
       style="font-style:normal;font-weight:normal;font-family:sans-serif;fill:#ff0000;stroke:#000000;stroke-width:0.02;stroke-dasharray:none;stroke-opacity:1"
       text-anchor="middle"
       transform="translate(155.5,14.337)"
       id="text76">retainer 3</text>
    <path
       d="m 113.5,20.352 h 3.9 c 0.1,0 0,-0.1 0,0 v 2.022 c 0,0.055 0.045,0.1 0.1,0.1 h 6 c 0.055,0 0.1,-0.045 0.1,-0.1 v -2.022 c 0,-0.1 -0.1,0 0,0 h 5.8 c 0.1,0 0,-0.1 0,0 v 2.022 c 0,0.055 0.045,0.1 0.1,0.1 h 6 c 0.055,0 0.1,-0.045 0.1,-0.1 v -2.022 c 0,-0.1 -0.1,0 0,0 h 3.9 3 3.9 c 0.1,0 0,-0.1 0,0 v 2.022 c 0,0.055 0.045,0.1 0.1,0.1 h 6 c 0.055,0 0.1,-0.045 0.1,-0.1 v -2.022 c 0,-0.1 -0.1,0 0,0 h 5.8 c 0.1,0 0,-0.1 0,0 v 2.022 c 0,0.055 0.045,0.1 0.1,0.1 h 6 c 0.055,0 0.1,-0.045 0.1,-0.1 v -2.022 c 0,-0.1 -0.1,0 0,0 h 3.9 3 3.9 c 0.1,0 0,-0.1 0,0 v 2.022 c 0,0.055 0.045,0.1 0.1,0.1 h 6 c 0.055,0 0.1,-0.045 0.1,-0.1 v -2.022 c 0,-0.1 -0.1,0 0,0 h 5.8 c 0.1,0 0,-0.1 0,0 v 2.022 c 0,0.055 0.045,0.1 0.1,0.1 h 6 c 0.055,0 0.1,-0.045 0.1,-0.1 v -2.022 c 0,-0.1 -0.1,0 0,0 h 3.9 3 c 0.055,0 0.1,-0.045 0.1,-0.1 v 0.879 -2.516 c 0,-0.055 -0.045,-0.1 -0.1,-0.1 h -2.9 c -0.1,0 0,0.1 0,0 v -5.8 c 0,-0.1 -0.1,0 0,0 h 2.9 c 0.055,0 0.1,-0.044 0.1,-0.1 V 10.1 c 0,-0.055 -0.045,-0.1 -0.1,-0.1 h -3 -84 -3 c -0.055,0 -0.1,0.045 -0.1,0.1 v 2.515 c 0,0.056 0.045,0.1 0.1,0.1 h 2.9 c 0.1,0 0,-0.1 0,0 v 5.8 c 0,0.1 0.1,0 0,0 h -2.9 c -0.055,0 -0.1,0.045 -0.1,0.1 v 2.516 -0.879 c 0,0.055 0.045,0.1 0.1,0.1 h 3"
       stroke="#000000"
       stroke-width="0.20"
       id="path77"
       style="stroke:#000000;stroke-width:0.02;stroke-dasharray:none;stroke-opacity:1" />
  </g>
  <rect
     style="fill:none;stroke-width:0.02"
     id="rect1"
     width="59.031963"
     height="16.439281"
     x="201.01758"
     y="152.94514"
     ry="0.95926702" />
  <rect
     style="fill:none;stroke:#000000;stroke-width:0.02;stroke-opacity:1;stroke-dasharray:none"
     id="rect3"
     width="189.54988"
     height="294.4126"
     x="0.0099999998"
     y="0.0099999998"
     ry="0.95926702" />
  <g
     id="p-0"
     style="fill:none;stroke:#000000;stroke-width:0.02;stroke-linecap:round;stroke-linejoin:round;stroke-dasharray:none;stroke-opacity:1"
     transform="translate(14.080347,-95.044903)">
    <text
       dominant-baseline="hanging"
       font-size="8px"
       style="font-style:normal;font-weight:normal;font-family:sans-serif;fill:#ff0000;stroke:#000000;stroke-width:0.02;stroke-dasharray:none;stroke-opacity:1"
       text-anchor="middle"
       id="text1"
       x="68.924545"
       y="395.91281">Size ~300x200, burn/kerf:0.10mm</text>
  </g>
</svg>
