<?xml version="1.0" encoding="UTF-8" standalone="no"?>
<svg
   height="206.0365mm"
   viewBox="0 0 356.48842 206.0365"
   width="356.48843mm"
   version="1.1"
   id="svg8"
   sodipodi:docname="FlexBox 0.15k 360x210.svg.svg"
   inkscape:version="1.3.2 (091e20e, 2023-11-25, custom)"
   xmlns:inkscape="http://www.inkscape.org/namespaces/inkscape"
   xmlns:sodipodi="http://sodipodi.sourceforge.net/DTD/sodipodi-0.dtd"
   xmlns="http://www.w3.org/2000/svg"
   xmlns:svg="http://www.w3.org/2000/svg"
   xmlns:rdf="http://www.w3.org/1999/02/22-rdf-syntax-ns#"
   xmlns:cc="http://creativecommons.org/ns#"
   xmlns:dc="http://purl.org/dc/elements/1.1/">
  <defs
     id="defs8" />
  <sodipodi:namedview
     id="namedview8"
     pagecolor="#ffffff"
     bordercolor="#000000"
     borderopacity="0.25"
     inkscape:showpageshadow="2"
     inkscape:pageopacity="0.0"
     inkscape:pagecheckerboard="0"
     inkscape:deskcolor="#d1d1d1"
     inkscape:document-units="mm"
     inkscape:zoom="0.92853603"
     inkscape:cx="455.55583"
     inkscape:cy="425.93931"
     inkscape:window-width="2560"
     inkscape:window-height="1377"
     inkscape:window-x="-8"
     inkscape:window-y="-8"
     inkscape:window-maximized="1"
     inkscape:current-layer="svg8" />
  <!--
FlexBox - Box with living hinge and round corners

Created with Boxes.py (https://festi.info/boxes.py)
Creation date: 2024-04-09 09:31:02
Command line (remove spaces between dashes): boxes FlexBox - -burn=0.15
Url: http://www.festi.info/boxes.py/FlexBox?FingerJoint_angle=90.0&FingerJoint_style=rectangular&FingerJoint_surroundingspaces=2.0&FingerJoint_bottom_lip=0.0&FingerJoint_edge_width=1.0&FingerJoint_extra_length=0.0&FingerJoint_finger=2.0&FingerJoint_play=0.0&FingerJoint_space=2.0&FingerJoint_width=1.0&Flex_stretch=1.05&Flex_connection=1.0&Flex_distance=0.5&Flex_width=5.0&x=100.0&y=100.0&h=100.0&outside=0&outside=1&radius=15&latchsize=8&thickness=3.0&format=svg&tabs=0.0&qr_code=0&debug=0&labels=0&labels=1&reference=100&inner_corners=loop&burn=0.15&language=en&render=2
Url short: http://www.festi.info/boxes.py/FlexBox?burn=0.15
SettingsUrl: http://www.festi.info/boxes.py/FlexBox?FingerJoint_angle=90.0&FingerJoint_style=rectangular&FingerJoint_surroundingspaces=2.0&FingerJoint_bottom_lip=0.0&FingerJoint_edge_width=1.0&FingerJoint_extra_length=0.0&FingerJoint_finger=2.0&FingerJoint_play=0.0&FingerJoint_space=2.0&FingerJoint_width=1.0&Flex_stretch=1.05&Flex_connection=1.0&Flex_distance=0.5&Flex_width=5.0&x=100.0&y=100.0&h=100.0&outside=0&outside=1&radius=15&latchsize=8&thickness=3.0&format=svg&tabs=0.0&qr_code=0&debug=0&labels=0&labels=1&reference=100&inner_corners=loop&burn=0.15&language=en&render=2
SettingsUrl short: http://www.festi.info/boxes.py/FlexBox?burn=0.15
-->
  <title
     id="title1">FlexBox</title>
  <metadata
     id="metadata1">
    <rdf:RDF>
      <cc:Work>
        <dc:title>FlexBox - FlexBox</dc:title>
        <dc:date>2024-04-09 09:31:02</dc:date>
        <dc:source>http://www.festi.info/boxes.py/FlexBox?FingerJoint_angle=90.0&amp;FingerJoint_style=rectangular&amp;FingerJoint_surroundingspaces=2.0&amp;FingerJoint_bottom_lip=0.0&amp;FingerJoint_edge_width=1.0&amp;FingerJoint_extra_length=0.0&amp;FingerJoint_finger=2.0&amp;FingerJoint_play=0.0&amp;FingerJoint_space=2.0&amp;FingerJoint_width=1.0&amp;Flex_stretch=1.05&amp;Flex_connection=1.0&amp;Flex_distance=0.5&amp;Flex_width=5.0&amp;x=100.0&amp;y=100.0&amp;h=100.0&amp;outside=0&amp;outside=1&amp;radius=15&amp;latchsize=8&amp;thickness=3.0&amp;format=svg&amp;tabs=0.0&amp;qr_code=0&amp;debug=0&amp;labels=0&amp;labels=1&amp;reference=100&amp;inner_corners=loop&amp;burn=0.15&amp;language=en&amp;render=2</dc:source>
        <dc:source>http://www.festi.info/boxes.py/FlexBox?burn=0.15</dc:source>
        <dc:description>Box with living hinge and round corners

Created with Boxes.py (https://festi.info/boxes.py)
Command line: boxes FlexBox --FingerJoint_angle=90.0 --FingerJoint_style=rectangular --FingerJoint_surroundingspaces=2.0 --FingerJoint_bottom_lip=0.0 --FingerJoint_edge_width=1.0 --FingerJoint_extra_length=0.0 --FingerJoint_finger=2.0 --FingerJoint_play=0.0 --FingerJoint_space=2.0 --FingerJoint_width=1.0 --Flex_stretch=1.05 --Flex_connection=1.0 --Flex_distance=0.5 --Flex_width=5.0 --x=100.0 --y=100.0 --h=100.0 --outside=0 --outside=1 --radius=15 --latchsize=8 --thickness=3.0 --format=svg --tabs=0.0 --qr_code=0 --debug=0 --labels=0 --labels=1 --reference=100 --inner_corners=loop --burn=0.15
Command line short: boxes FlexBox --burn=0.15
Url: http://www.festi.info/boxes.py/FlexBox?FingerJoint_angle=90.0&amp;FingerJoint_style=rectangular&amp;FingerJoint_surroundingspaces=2.0&amp;FingerJoint_bottom_lip=0.0&amp;FingerJoint_edge_width=1.0&amp;FingerJoint_extra_length=0.0&amp;FingerJoint_finger=2.0&amp;FingerJoint_play=0.0&amp;FingerJoint_space=2.0&amp;FingerJoint_width=1.0&amp;Flex_stretch=1.05&amp;Flex_connection=1.0&amp;Flex_distance=0.5&amp;Flex_width=5.0&amp;x=100.0&amp;y=100.0&amp;h=100.0&amp;outside=0&amp;outside=1&amp;radius=15&amp;latchsize=8&amp;thickness=3.0&amp;format=svg&amp;tabs=0.0&amp;qr_code=0&amp;debug=0&amp;labels=0&amp;labels=1&amp;reference=100&amp;inner_corners=loop&amp;burn=0.15&amp;language=en&amp;render=2
Url short: http://www.festi.info/boxes.py/FlexBox?burn=0.15
SettingsUrl: http://www.festi.info/boxes.py/FlexBox?FingerJoint_angle=90.0&amp;FingerJoint_style=rectangular&amp;FingerJoint_surroundingspaces=2.0&amp;FingerJoint_bottom_lip=0.0&amp;FingerJoint_edge_width=1.0&amp;FingerJoint_extra_length=0.0&amp;FingerJoint_finger=2.0&amp;FingerJoint_play=0.0&amp;FingerJoint_space=2.0&amp;FingerJoint_width=1.0&amp;Flex_stretch=1.05&amp;Flex_connection=1.0&amp;Flex_distance=0.5&amp;Flex_width=5.0&amp;x=100.0&amp;y=100.0&amp;h=100.0&amp;outside=0&amp;outside=1&amp;radius=15&amp;latchsize=8&amp;thickness=3.0&amp;format=svg&amp;tabs=0.0&amp;qr_code=0&amp;debug=0&amp;labels=0&amp;labels=1&amp;reference=100&amp;inner_corners=loop&amp;burn=0.15&amp;language=en&amp;render=2
SettingsUrl short: http://www.festi.info/boxes.py/FlexBox?burn=0.15
</dc:description>
      </cc:Work>
    </rdf:RDF>
  </metadata>
  <g
     id="p-0"
     style="fill:none;stroke:#000000;stroke-width:0.02;stroke-linecap:round;stroke-linejoin:round;stroke-dasharray:none;stroke-opacity:1"
     transform="translate(-15.092178,0.57961147)">
    <path
       d="m 18.8,222.4 h 100 v -10 h -100 z"
       stroke="rgb(0,0,0)"
       stroke-width="0.30"
       id="path1"
       style="stroke:#000000;stroke-width:0.02;stroke-dasharray:none;stroke-opacity:1" />
    <text
       dominant-baseline="hanging"
       font-size="8px"
       style="font-style:normal;font-weight:normal;font-family:sans-serif;fill:#ff0000;stroke:#000000;stroke-width:0.02;stroke-dasharray:none;stroke-opacity:1"
       text-anchor="middle"
       transform="translate(68.8,213.4)"
       id="text1">100.00mm, burn:0.15mm</text>
  </g>
  <g
     id="p-1"
     style="fill:none;stroke:#000000;stroke-width:0.02;stroke-linecap:round;stroke-linejoin:round;stroke-dasharray:none;stroke-opacity:1"
     transform="translate(-15.092178,-6.8287222)">
    <path
       d="m 18.8,209.85 h 11 c 0.083,0 0.15,-0.067 0.15,-0.15 v -2.85 c 0,-0.15 -0.15,0 0,0 h 5.7 c 0.15,0 0,-0.15 0,0 v 2.85 c 0,0.083 0.067,0.15 0.15,0.15 h 6 c 0.083,0 0.15,-0.067 0.15,-0.15 v -2.85 c 0,-0.15 -0.15,0 0,0 h 5.7 c 0.15,0 0,-0.15 0,0 v 2.85 c 0,0.083 0.067,0.15 0.15,0.15 h 11 23.562 11 c 0.083,0 0.15,-0.067 0.15,-0.15 v -2.85 c 0,-0.15 -0.15,0 0,0 h 5.7 c 0.15,0 0,-0.15 0,0 v 2.85 c 0,0.083 0.067,0.15 0.15,0.15 h 6 c 0.083,0 0.15,-0.067 0.15,-0.15 v -2.85 c 0,-0.15 -0.15,0 0,0 h 5.7 c 0.15,0 0,-0.15 0,0 v 2.85 c 0,0.083 0.067,0.15 0.15,0.15 h 6 c 0.083,0 0.15,-0.067 0.15,-0.15 v -2.85 c 0,-0.15 -0.15,0 0,0 h 5.7 c 0.15,0 0,-0.15 0,0 v 2.85 c 0,0.083 0.067,0.15 0.15,0.15 h 6 c 0.083,0 0.15,-0.067 0.15,-0.15 v -2.85 c 0,-0.15 -0.15,0 0,0 h 5.7 c 0.15,0 0,-0.15 0,0 v 2.85 c 0,0.083 0.067,0.15 0.15,0.15 h 11 23.562 11 c 0.083,0 0.15,-0.067 0.15,-0.15 v -2.85 c 0,-0.15 -0.15,0 0,0 h 5.7 c 0.15,0 0,-0.15 0,0 v 2.85 c 0,0.083 0.067,0.15 0.15,0.15 h 6 c 0.083,0 0.15,-0.067 0.15,-0.15 v -2.85 c 0,-0.15 -0.15,0 0,0 h 5.7 c 0.15,0 0,-0.15 0,0 v 2.85 c 0,0.083 0.067,0.15 0.15,0.15 h 6 c 0.083,0 0.15,-0.067 0.15,-0.15 v -2.85 c 0,-0.15 -0.15,0 0,0 h 5.7 c 0.15,0 0,-0.15 0,0 v 2.85 c 0,0.083 0.067,0.15 0.15,0.15 h 6 c 0.083,0 0.15,-0.067 0.15,-0.15 v -2.85 c 0,-0.15 -0.15,0 0,0 h 5.7 c 0.15,0 0,-0.15 0,0 v 2.85 c 0,0.083 0.067,0.15 0.15,0.15 h 11 23.562 64 23.562 c 0.083,0 0.15,-0.067 0.15,-0.15 v -3.15 c 0,-0.15 -0.15,0 0,0 h 12.3 c 0.15,0 0,-0.15 0,0 v 3.15 c 0,0.158 0.041,0.313 0.12,0.45 0.079,0.137 0.193,0.25 0.33,0.329 0.137,0.079 0.292,0.121 0.45,0.121 0.135,0 0.267,-0.036 0.384,-0.103 0.117,-0.067 0.214,-0.165 0.282,-0.281 0.067,-0.117 0.103,-0.25 0.103,-0.385 0,-0.082 0.021,-0.163 0.062,-0.234 0.041,-0.071 0.101,-0.131 0.172,-0.172 0.071,-0.041 0.152,-0.062 0.234,-0.062 0.083,0 0.163,0.021 0.235,0.062 0.071,0.041 0.13,0.101 0.171,0.172 0.041,0.071 0.063,0.152 0.063,0.234 0,0.135 0.036,0.268 0.103,0.385 0.067,0.116 0.165,0.214 0.281,0.281 0.117,0.067 0.25,0.103 0.385,0.103 0.135,0 0.267,-0.036 0.384,-0.103 0.117,-0.067 0.214,-0.165 0.282,-0.281 0.067,-0.117 0.103,-0.25 0.103,-0.385 0,-0.082 0.021,-0.163 0.062,-0.234 0.041,-0.071 0.101,-0.131 0.172,-0.172 0.071,-0.041 0.152,-0.062 0.234,-0.062 0.083,0 0.163,0.021 0.235,0.062 0.071,0.041 0.13,0.101 0.171,0.172 0.041,0.071 0.063,0.152 0.063,0.234 0,0.135 0.036,0.268 0.103,0.385 0.067,0.116 0.165,0.214 0.281,0.281 0.117,0.067 0.25,0.103 0.385,0.103 0.135,0 0.267,-0.036 0.384,-0.103 0.117,-0.067 0.214,-0.165 0.282,-0.281 0.067,-0.117 0.103,-0.25 0.103,-0.385 0,-0.082 0.021,-0.163 0.062,-0.234 0.041,-0.071 0.101,-0.131 0.172,-0.172 0.071,-0.041 0.152,-0.062 0.234,-0.062 0.083,0 0.163,0.021 0.235,0.062 0.071,0.041 0.13,0.101 0.171,0.172 0.041,0.071 0.063,0.152 0.063,0.234 0,0.135 0.036,0.268 0.103,0.385 0.067,0.116 0.165,0.214 0.281,0.281 0.117,0.067 0.25,0.103 0.385,0.103 0.135,0 0.267,-0.036 0.384,-0.103 0.117,-0.067 0.214,-0.165 0.282,-0.281 0.067,-0.117 0.103,-0.25 0.103,-0.385 0,-0.082 0.021,-0.163 0.062,-0.234 0.041,-0.071 0.101,-0.131 0.172,-0.172 0.071,-0.041 0.152,-0.062 0.234,-0.062 0.083,0 0.163,0.021 0.235,0.062 0.071,0.041 0.13,0.101 0.171,0.172 0.041,0.071 0.063,0.152 0.063,0.234 0,0.135 0.036,0.268 0.103,0.385 0.067,0.116 0.165,0.214 0.281,0.281 0.117,0.067 0.25,0.103 0.385,0.103 0.158,0 0.313,-0.042 0.45,-0.121 0.137,-0.079 0.25,-0.192 0.329,-0.329 0.079,-0.137 0.121,-0.292 0.121,-0.45 v -100 c 0,-0.158 -0.042,-0.313 -0.121,-0.45 -0.079,-0.137 -0.192,-0.25 -0.329,-0.329 -0.137,-0.079 -0.292,-0.121 -0.45,-0.121 -0.135,0 -0.268,0.036 -0.385,0.103 -0.116,0.067 -0.214,0.165 -0.281,0.281 -0.067,0.117 -0.103,0.25 -0.103,0.385 0,0.082 -0.022,0.163 -0.063,0.234 -0.041,0.071 -0.1,0.131 -0.171,0.172 -0.072,0.041 -0.152,0.063 -0.235,0.063 -0.082,0 -0.163,-0.022 -0.234,-0.063 -0.071,-0.041 -0.131,-0.101 -0.172,-0.172 -0.041,-0.071 -0.062,-0.152 -0.062,-0.234 0,-0.135 -0.036,-0.268 -0.103,-0.385 -0.068,-0.116 -0.165,-0.214 -0.282,-0.281 -0.117,-0.067 -0.249,-0.103 -0.384,-0.103 -0.135,0 -0.268,0.036 -0.385,0.103 -0.116,0.067 -0.214,0.165 -0.281,0.281 -0.067,0.117 -0.103,0.25 -0.103,0.385 0,0.082 -0.022,0.163 -0.063,0.234 -0.041,0.071 -0.1,0.131 -0.171,0.172 -0.072,0.041 -0.152,0.063 -0.235,0.063 -0.082,0 -0.163,-0.022 -0.234,-0.063 -0.071,-0.041 -0.131,-0.101 -0.172,-0.172 -0.041,-0.071 -0.062,-0.152 -0.062,-0.234 0,-0.135 -0.036,-0.268 -0.103,-0.385 -0.068,-0.116 -0.165,-0.214 -0.282,-0.281 -0.117,-0.067 -0.249,-0.103 -0.384,-0.103 -0.135,0 -0.268,0.036 -0.385,0.103 -0.116,0.067 -0.214,0.165 -0.281,0.281 -0.067,0.117 -0.103,0.25 -0.103,0.385 0,0.082 -0.022,0.163 -0.063,0.234 -0.041,0.071 -0.1,0.131 -0.171,0.172 -0.072,0.041 -0.152,0.063 -0.235,0.063 -0.082,0 -0.163,-0.022 -0.234,-0.063 -0.071,-0.041 -0.131,-0.101 -0.172,-0.172 -0.041,-0.071 -0.062,-0.152 -0.062,-0.234 0,-0.135 -0.036,-0.268 -0.103,-0.385 -0.068,-0.116 -0.165,-0.214 -0.282,-0.281 -0.117,-0.067 -0.249,-0.103 -0.384,-0.103 -0.135,0 -0.268,0.036 -0.385,0.103 -0.116,0.067 -0.214,0.165 -0.281,0.281 -0.067,0.117 -0.103,0.25 -0.103,0.385 0,0.082 -0.022,0.163 -0.063,0.234 -0.041,0.071 -0.1,0.131 -0.171,0.172 -0.072,0.041 -0.152,0.062 -0.235,0.062 -0.082,0 -0.163,-0.021 -0.234,-0.062 -0.071,-0.041 -0.131,-0.101 -0.172,-0.172 -0.041,-0.071 -0.062,-0.152 -0.062,-0.234 0,-0.135 -0.036,-0.268 -0.103,-0.385 -0.068,-0.116 -0.165,-0.214 -0.282,-0.281 -0.117,-0.067 -0.249,-0.103 -0.384,-0.103 -0.158,0 -0.313,0.042 -0.45,0.121 -0.137,0.079 -0.251,0.192 -0.33,0.329 -0.079,0.137 -0.12,0.292 -0.12,0.45 v 3.15 c 0,0.15 0.15,0 0,0 h -12.3 c -0.15,0 0,0.15 0,0 v -3.15 c 0,-0.083 -0.067,-0.15 -0.15,-0.15 h -23.562 -64 -23.562 -11 c -0.083,0 -0.15,0.067 -0.15,0.15 v 2.85 c 0,0.15 0.15,0 0,0 h -5.7 c -0.15,0 0,0.15 0,0 v -2.85 c 0,-0.083 -0.067,-0.15 -0.15,-0.15 h -6 c -0.083,0 -0.15,0.067 -0.15,0.15 v 2.85 c 0,0.15 0.15,0 0,0 h -5.7 c -0.15,0 0,0.15 0,0 v -2.85 c 0,-0.083 -0.067,-0.15 -0.15,-0.15 h -6 c -0.083,0 -0.15,0.067 -0.15,0.15 v 2.85 c 0,0.15 0.15,0 0,0 h -5.7 c -0.15,0 0,0.15 0,0 v -2.85 c 0,-0.083 -0.067,-0.15 -0.15,-0.15 h -6 c -0.083,0 -0.15,0.067 -0.15,0.15 v 2.85 c 0,0.15 0.15,0 0,0 h -5.7 c -0.15,0 0,0.15 0,0 v -2.85 c 0,-0.083 -0.067,-0.15 -0.15,-0.15 h -11 -23.562 -11 c -0.083,0 -0.15,0.067 -0.15,0.15 v 2.85 c 0,0.15 0.15,0 0,0 h -5.7 c -0.15,0 0,0.15 0,0 v -2.85 c 0,-0.083 -0.067,-0.15 -0.15,-0.15 h -6 c -0.083,0 -0.15,0.067 -0.15,0.15 v 2.85 c 0,0.15 0.15,0 0,0 h -5.7 c -0.15,0 0,0.15 0,0 v -2.85 c 0,-0.083 -0.067,-0.15 -0.15,-0.15 h -6 c -0.083,0 -0.15,0.067 -0.15,0.15 v 2.85 c 0,0.15 0.15,0 0,0 h -5.7 c -0.15,0 0,0.15 0,0 v -2.85 c 0,-0.083 -0.067,-0.15 -0.15,-0.15 h -6 c -0.083,0 -0.15,0.067 -0.15,0.15 v 2.85 c 0,0.15 0.15,0 0,0 h -5.7 c -0.15,0 0,0.15 0,0 v -2.85 c 0,-0.083 -0.067,-0.15 -0.15,-0.15 h -11 -23.562 -11 c -0.083,0 -0.15,0.067 -0.15,0.15 v 2.85 c 0,0.15 0.15,0 0,0 h -5.7 c -0.15,0 0,0.15 0,0 v -2.85 c 0,-0.083 -0.067,-0.15 -0.15,-0.15 h -6 c -0.083,0 -0.15,0.067 -0.15,0.15 v 2.85 c 0,0.15 0.15,0 0,0 h -5.7 c -0.15,0 0,0.15 0,0 v -2.85 c 0,-0.083 -0.067,-0.15 -0.15,-0.15 h -11 c -0.083,0 -0.15,0.067 -0.15,0.15 v 100 c 0,0.083 0.067,0.15 0.15,0.15 z"
       stroke="rgb(0,0,0)"
       stroke-width="0.30"
       id="path2"
       style="stroke:#000000;stroke-width:0.02;stroke-dasharray:none;stroke-opacity:1" />
    <path
       d="m 60.831,209.85 v -16.217 m 0,-3 V 161.2 m 0,-3 v -29.433 m 0,-3 V 109.55 m 1.5,3 v 29.433 m 0,3 v 29.434 m 0,3 v 29.433 m 1.5,3 v -16.217 m 0,-3 V 161.2 m 0,-3 v -29.433 m 0,-3 V 109.55 m 1.5,3 v 29.433 m 0,3 v 29.434 m 0,3 v 29.433 m 1.5,3 v -16.217 m 0,-3 V 161.2 m 0,-3 v -29.433 m 0,-3 V 109.55 m 1.5,3 v 29.433 m 0,3 v 29.434 m 0,3 v 29.433 m 1.5,3 v -16.217 m 0,-3 V 161.2 m 0,-3 v -29.433 m 0,-3 V 109.55 m 1.5,3 v 29.433 m 0,3 v 29.434 m 0,3 v 29.433 m 1.5,3 v -16.217 m 0,-3 V 161.2 m 0,-3 v -29.433 m 0,-3 V 109.55 m 1.5,3 v 29.433 m 0,3 v 29.434 m 0,3 v 29.433 m 1.5,3 v -16.217 m 0,-3 V 161.2 m 0,-3 v -29.433 m 0,-3 V 109.55 m 1.5,3 v 29.433 m 0,3 v 29.434 m 0,3 v 29.433 m 1.5,3 v -16.217 m 0,-3 V 161.2 m 0,-3 v -29.433 m 0,-3 V 109.55 m 1.5,3 v 29.433 m 0,3 v 29.434 m 0,3 v 29.433"
       stroke="rgb(0,0,0)"
       stroke-width="0.30"
       id="path3"
       style="stroke:#000000;stroke-width:0.02;stroke-dasharray:none;stroke-opacity:1" />
    <path
       d="m 148.393,209.85 v -16.217 m 0,-3 V 161.2 m 0,-3 v -29.433 m 0,-3 V 109.55 m 1.5,3 v 29.433 m 0,3 v 29.434 m 0,3 v 29.433 m 1.5,3 v -16.217 m 0,-3 V 161.2 m 0,-3 v -29.433 m 0,-3 V 109.55 m 1.5,3 v 29.433 m 0,3 v 29.434 m 0,3 v 29.433 m 1.5,3 v -16.217 m 0,-3 V 161.2 m 0,-3 v -29.433 m 0,-3 V 109.55 m 1.5,3 v 29.433 m 0,3 v 29.434 m 0,3 v 29.433 m 1.5,3 v -16.217 m 0,-3 V 161.2 m 0,-3 v -29.433 m 0,-3 V 109.55 m 1.5,3 v 29.433 m 0,3 v 29.434 m 0,3 v 29.433 m 1.5,3 v -16.217 m 0,-3 V 161.2 m 0,-3 v -29.433 m 0,-3 V 109.55 m 1.5,3 v 29.433 m 0,3 v 29.434 m 0,3 v 29.433 m 1.5,3 v -16.217 m 0,-3 V 161.2 m 0,-3 v -29.433 m 0,-3 V 109.55 m 1.5,3 v 29.433 m 0,3 v 29.434 m 0,3 v 29.433 m 1.5,3 v -16.217 m 0,-3 V 161.2 m 0,-3 v -29.433 m 0,-3 V 109.55 m 1.5,3 v 29.433 m 0,3 v 29.434 m 0,3 v 29.433"
       stroke="rgb(0,0,0)"
       stroke-width="0.30"
       id="path4"
       style="stroke:#000000;stroke-width:0.02;stroke-dasharray:none;stroke-opacity:1" />
    <path
       d="m 235.955,209.85 v -16.217 m 0,-3 V 161.2 m 0,-3 v -29.433 m 0,-3 V 109.55 m 1.5,3 v 29.433 m 0,3 v 29.434 m 0,3 v 29.433 m 1.5,3 v -16.217 m 0,-3 V 161.2 m 0,-3 v -29.433 m 0,-3 V 109.55 m 1.5,3 v 29.433 m 0,3 v 29.434 m 0,3 v 29.433 m 1.5,3 v -16.217 m 0,-3 V 161.2 m 0,-3 v -29.433 m 0,-3 V 109.55 m 1.5,3 v 29.433 m 0,3 v 29.434 m 0,3 v 29.433 m 1.5,3 v -16.217 m 0,-3 V 161.2 m 0,-3 v -29.433 m 0,-3 V 109.55 m 1.5,3 v 29.433 m 0,3 v 29.434 m 0,3 v 29.433 m 1.5,3 v -16.217 m 0,-3 V 161.2 m 0,-3 v -29.433 m 0,-3 V 109.55 m 1.5,3 v 29.433 m 0,3 v 29.434 m 0,3 v 29.433 m 1.5,3 v -16.217 m 0,-3 V 161.2 m 0,-3 v -29.433 m 0,-3 V 109.55 m 1.5,3 v 29.433 m 0,3 v 29.434 m 0,3 v 29.433 m 1.5,3 v -16.217 m 0,-3 V 161.2 m 0,-3 v -29.433 m 0,-3 V 109.55 m 1.5,3 v 29.433 m 0,3 v 29.434 m 0,3 v 29.433"
       stroke="rgb(0,0,0)"
       stroke-width="0.30"
       id="path5"
       style="stroke:#000000;stroke-width:0.02;stroke-dasharray:none;stroke-opacity:1" />
    <path
       d="m 323.517,209.85 v -16.217 m 0,-3 V 161.2 m 0,-3 v -29.433 m 0,-3 V 109.55 m 1.5,3 v 29.433 m 0,3 v 29.434 m 0,3 v 29.433 m 1.5,3 v -16.217 m 0,-3 V 161.2 m 0,-3 v -29.433 m 0,-3 V 109.55 m 1.5,3 v 29.433 m 0,3 v 29.434 m 0,3 v 29.433 m 1.5,3 v -16.217 m 0,-3 V 161.2 m 0,-3 v -29.433 m 0,-3 V 109.55 m 1.5,3 v 29.433 m 0,3 v 29.434 m 0,3 v 29.433 m 1.5,3 v -16.217 m 0,-3 V 161.2 m 0,-3 v -29.433 m 0,-3 V 109.55 m 1.5,3 v 29.433 m 0,3 v 29.434 m 0,3 v 29.433 m 1.5,3 v -16.217 m 0,-3 V 161.2 m 0,-3 v -29.433 m 0,-3 V 109.55 m 1.5,3 v 29.433 m 0,3 v 29.434 m 0,3 v 29.433 m 1.5,3 v -16.217 m 0,-3 V 161.2 m 0,-3 v -29.433 m 0,-3 V 109.55 m 1.5,3 v 29.433 m 0,3 v 29.434 m 0,3 v 29.433 m 1.5,3 v -16.217 m 0,-3 V 161.2 m 0,-3 v -29.433 m 0,-3 V 109.55 m 1.5,3 v 29.433 m 0,3 v 29.434 m 0,3 v 29.433"
       stroke="rgb(0,0,0)"
       stroke-width="0.30"
       id="path6"
       style="stroke:#000000;stroke-width:0.02;stroke-dasharray:none;stroke-opacity:1" />
  </g>
  <g
     id="p-2"
     style="fill:none;stroke:#000000;stroke-width:0.02;stroke-linecap:round;stroke-linejoin:round;stroke-dasharray:none;stroke-opacity:1"
     transform="translate(-15.092178,-6.8287222)">
    <path
       d="m 36.8,104.3 h 10.85 c 0.15,0 0,-0.15 0,0 v 2.85 c 0,0.083 0.067,0.15 0.15,0.15 h 6 c 0.083,0 0.15,-0.067 0.15,-0.15 v -2.85 c 0,-0.15 -0.15,0 0,0 h 5.7 c 0.15,0 0,-0.15 0,0 v 2.85 c 0,0.083 0.067,0.15 0.15,0.15 h 6 c 0.083,0 0.15,-0.067 0.15,-0.15 v -2.85 c 0,-0.15 -0.15,0 0,0 h 5.7 c 0.15,0 0,-0.15 0,0 v 2.85 c 0,0.083 0.067,0.15 0.15,0.15 h 6 c 0.083,0 0.15,-0.067 0.15,-0.15 v -2.85 c 0,-0.15 -0.15,0 0,0 h 5.7 c 0.15,0 0,-0.15 0,0 v 2.85 c 0,0.083 0.067,0.15 0.15,0.15 h 6 c 0.083,0 0.15,-0.067 0.15,-0.15 v -2.85 c 0,-0.15 -0.15,0 0,0 h 10.85 c 2.659,0 5.272,-0.7 7.575,-2.03 2.303,-1.329 4.216,-3.242 5.545,-5.545 1.33,-2.303 2.03,-4.916 2.03,-7.575 V 78.3 c 0,-0.15 -0.15,0 0,0 h 2.85 c 0.083,0 0.15,-0.067 0.15,-0.15 v -6 c 0,-0.083 -0.067,-0.15 -0.15,-0.15 h -2.85 c -0.15,0 0,0.15 0,0 v -5.7 c 0,-0.15 -0.15,0 0,0 h 2.85 c 0.083,0 0.15,-0.067 0.15,-0.15 v -6 c 0,-0.083 -0.067,-0.15 -0.15,-0.15 h -2.85 c -0.15,0 0,0.15 0,0 v -5.7 c 0,-0.15 -0.15,0 0,0 h 2.85 c 0.083,0 0.15,-0.067 0.15,-0.15 v -6 c 0,-0.083 -0.067,-0.15 -0.15,-0.15 h -2.85 c -0.15,0 0,0.15 0,0 v -5.7 c 0,-0.15 -0.15,0 0,0 h 2.85 c 0.083,0 0.15,-0.067 0.15,-0.15 v -6 c 0,-0.083 -0.067,-0.15 -0.15,-0.15 h -2.85 c -0.15,0 0,0.15 0,0 V 25.15 c 0,-2.659 -0.7,-5.272 -2.03,-7.575 -1.329,-2.303 -3.242,-4.216 -5.545,-5.545 C 106.072,10.7 103.459,10 100.8,10 h -64 c -2.659,0 -5.272,0.7 -7.575,2.03 -2.303,1.329 -4.216,3.242 -5.545,5.545 -1.33,2.303 -2.03,4.916 -2.03,7.575 0,-0.083 0.067,-0.15 0.15,-0.15 h -3 c -0.083,0 -0.15,0.067 -0.15,0.15 v 12 c 0,0.083 0.067,0.15 0.15,0.15 h 2.85 c 0.15,0 0,-0.15 0,0 V 49.15 60 c 0,0.15 0.15,0 0,0 H 18.8 c -0.083,0 -0.15,0.067 -0.15,0.15 v 6 c 0,0.083 0.067,0.15 0.15,0.15 h 2.85 c 0.15,0 0,-0.15 0,0 V 72 c 0,0.15 0.15,0 0,0 H 18.8 c -0.083,0 -0.15,0.067 -0.15,0.15 v 6 c 0,0.083 0.067,0.15 0.15,0.15 h 2.85 c 0.15,0 0,-0.15 0,0 v 10.85 c 0,2.659 0.7,5.272 2.03,7.575 1.329,2.303 3.242,4.216 5.545,5.545 2.303,1.33 4.916,2.03 7.575,2.03 z"
       stroke="rgb(0,0,0)"
       stroke-width="0.30"
       id="path7"
       style="stroke:#000000;stroke-width:0.02;stroke-dasharray:none;stroke-opacity:1" />
  </g>
  <g
     id="p-3"
     style="fill:none;stroke:#000000;stroke-width:0.02;stroke-linecap:round;stroke-linejoin:round;stroke-dasharray:none;stroke-opacity:1"
     transform="translate(-15.092178,-6.8287222)">
    <path
       d="m 202.6,104.3 h -10.85 c -0.15,0 0,-0.15 0,0 v 2.85 c 0,0.083 -0.067,0.15 -0.15,0.15 h -6 c -0.083,0 -0.15,-0.067 -0.15,-0.15 v -2.85 c 0,-0.15 0.15,0 0,0 h -5.7 c -0.15,0 0,-0.15 0,0 v 2.85 c 0,0.083 -0.067,0.15 -0.15,0.15 h -6 c -0.083,0 -0.15,-0.067 -0.15,-0.15 v -2.85 c 0,-0.15 0.15,0 0,0 h -5.7 c -0.15,0 0,-0.15 0,0 v 2.85 c 0,0.083 -0.067,0.15 -0.15,0.15 h -6 c -0.083,0 -0.15,-0.067 -0.15,-0.15 v -2.85 c 0,-0.15 0.15,0 0,0 h -5.7 c -0.15,0 0,-0.15 0,0 v 2.85 c 0,0.083 -0.067,0.15 -0.15,0.15 h -6 c -0.083,0 -0.15,-0.067 -0.15,-0.15 v -2.85 c 0,-0.15 0.15,0 0,0 H 138.6 c -2.659,0 -5.272,-0.7 -7.575,-2.03 -2.303,-1.329 -4.216,-3.242 -5.545,-5.545 -1.33,-2.303 -2.03,-4.916 -2.03,-7.575 V 78.3 c 0,-0.15 0.15,0 0,0 h -2.85 c -0.083,0 -0.15,-0.067 -0.15,-0.15 v -6 c 0,-0.083 0.067,-0.15 0.15,-0.15 h 2.85 c 0.15,0 0,0.15 0,0 v -5.7 c 0,-0.15 0.15,0 0,0 h -2.85 c -0.083,0 -0.15,-0.067 -0.15,-0.15 v -6 c 0,-0.083 0.067,-0.15 0.15,-0.15 h 2.85 c 0.15,0 0,0.15 0,0 v -5.7 c 0,-0.15 0.15,0 0,0 h -2.85 c -0.083,0 -0.15,-0.067 -0.15,-0.15 v -6 c 0,-0.083 0.067,-0.15 0.15,-0.15 h 2.85 c 0.15,0 0,0.15 0,0 v -5.7 c 0,-0.15 0.15,0 0,0 h -2.85 c -0.083,0 -0.15,-0.067 -0.15,-0.15 v -6 c 0,-0.083 0.067,-0.15 0.15,-0.15 h 2.85 c 0.15,0 0,0.15 0,0 V 25.15 c 0,-2.659 0.7,-5.272 2.03,-7.575 1.329,-2.303 3.242,-4.216 5.545,-5.545 C 133.328,10.7 135.941,10 138.6,10 h 64 c 2.659,0 5.272,0.7 7.575,2.03 2.303,1.329 4.216,3.242 5.545,5.545 1.33,2.303 2.03,4.916 2.03,7.575 0,-0.083 -0.067,-0.15 -0.15,-0.15 h 3 c 0.083,0 0.15,0.067 0.15,0.15 v 12 c 0,0.083 -0.067,0.15 -0.15,0.15 h -2.85 c -0.15,0 0,-0.15 0,0 V 49.15 60 c 0,0.15 -0.15,0 0,0 h 2.85 c 0.083,0 0.15,0.067 0.15,0.15 v 6 c 0,0.083 -0.067,0.15 -0.15,0.15 h -2.85 c -0.15,0 0,-0.15 0,0 V 72 c 0,0.15 -0.15,0 0,0 h 2.85 c 0.083,0 0.15,0.067 0.15,0.15 v 6 c 0,0.083 -0.067,0.15 -0.15,0.15 h -2.85 c -0.15,0 0,-0.15 0,0 v 10.85 c 0,2.659 -0.7,5.272 -2.03,7.575 -1.329,2.303 -3.242,4.216 -5.545,5.545 -2.303,1.33 -4.916,2.03 -7.575,2.03 z"
       stroke="rgb(0,0,0)"
       stroke-width="0.30"
       id="path8"
       style="stroke:#000000;stroke-width:0.02;stroke-dasharray:none;stroke-opacity:1" />
  </g>
  <rect
     style="fill:none;stroke:#000000;stroke-width:0.02;stroke-dasharray:none;stroke-opacity:1"
     id="rect8"
     width="356.46844"
     height="206.01649"
     x="0.0099999998"
     y="0.0099999998"
     ry="0.95926702" />
</svg>
