<?xml version="1.0" encoding="UTF-8" standalone="no"?>
<svg
   height="206.57915mm"
   viewBox="0 0 355.3017 206.57914"
   width="355.3017mm"
   version="1.1"
   id="svg8"
   sodipodi:docname="FlexBox 0.10k.svg"
   inkscape:version="1.3.2 (091e20e, 2023-11-25, custom)"
   inkscape:export-filename="FlexBox 0.10k 360x210.pdf"
   inkscape:export-xdpi="600"
   inkscape:export-ydpi="600"
   xmlns:inkscape="http://www.inkscape.org/namespaces/inkscape"
   xmlns:sodipodi="http://sodipodi.sourceforge.net/DTD/sodipodi-0.dtd"
   xmlns="http://www.w3.org/2000/svg"
   xmlns:svg="http://www.w3.org/2000/svg"
   xmlns:rdf="http://www.w3.org/1999/02/22-rdf-syntax-ns#"
   xmlns:cc="http://creativecommons.org/ns#"
   xmlns:dc="http://purl.org/dc/elements/1.1/">
  <defs
     id="defs8" />
  <sodipodi:namedview
     id="namedview8"
     pagecolor="#ffffff"
     bordercolor="#000000"
     borderopacity="0.25"
     inkscape:showpageshadow="2"
     inkscape:pageopacity="0.0"
     inkscape:pagecheckerboard="0"
     inkscape:deskcolor="#d1d1d1"
     inkscape:document-units="mm"
     inkscape:zoom="0.92865854"
     inkscape:cx="431.80565"
     inkscape:cy="467.87918"
     inkscape:window-width="2560"
     inkscape:window-height="1377"
     inkscape:window-x="-8"
     inkscape:window-y="-8"
     inkscape:window-maximized="1"
     inkscape:current-layer="svg8" />
  <!--
FlexBox - Box with living hinge and round corners

Created with Boxes.py (https://festi.info/boxes.py)
Creation date: 2024-04-09 09:25:13
Command line (remove spaces between dashes): boxes FlexBox 
Url: http://www.festi.info/boxes.py/FlexBox?FingerJoint_angle=90.0&FingerJoint_style=rectangular&FingerJoint_surroundingspaces=2.0&FingerJoint_bottom_lip=0.0&FingerJoint_edge_width=1.0&FingerJoint_extra_length=0.0&FingerJoint_finger=2.0&FingerJoint_play=0.0&FingerJoint_space=2.0&FingerJoint_width=1.0&Flex_stretch=1.05&Flex_connection=1.0&Flex_distance=0.5&Flex_width=5.0&x=100.0&y=100.0&h=100.0&outside=0&outside=1&radius=15&latchsize=8&thickness=3.0&format=svg&tabs=0.0&qr_code=0&debug=0&labels=0&labels=1&reference=100&inner_corners=loop&burn=0.1&language=en&render=2
Url short: http://www.festi.info/boxes.py/FlexBox
SettingsUrl: http://www.festi.info/boxes.py/FlexBox?FingerJoint_angle=90.0&FingerJoint_style=rectangular&FingerJoint_surroundingspaces=2.0&FingerJoint_bottom_lip=0.0&FingerJoint_edge_width=1.0&FingerJoint_extra_length=0.0&FingerJoint_finger=2.0&FingerJoint_play=0.0&FingerJoint_space=2.0&FingerJoint_width=1.0&Flex_stretch=1.05&Flex_connection=1.0&Flex_distance=0.5&Flex_width=5.0&x=100.0&y=100.0&h=100.0&outside=0&outside=1&radius=15&latchsize=8&thickness=3.0&format=svg&tabs=0.0&qr_code=0&debug=0&labels=0&labels=1&reference=100&inner_corners=loop&burn=0.1&language=en&render=2
SettingsUrl short: http://www.festi.info/boxes.py/FlexBox
-->
  <title
     id="title1">FlexBox</title>
  <metadata
     id="metadata1">
    <rdf:RDF>
      <cc:Work>
        <dc:title>FlexBox - FlexBox</dc:title>
        <dc:date>2024-04-09 09:25:13</dc:date>
        <dc:source>http://www.festi.info/boxes.py/FlexBox?FingerJoint_angle=90.0&amp;FingerJoint_style=rectangular&amp;FingerJoint_surroundingspaces=2.0&amp;FingerJoint_bottom_lip=0.0&amp;FingerJoint_edge_width=1.0&amp;FingerJoint_extra_length=0.0&amp;FingerJoint_finger=2.0&amp;FingerJoint_play=0.0&amp;FingerJoint_space=2.0&amp;FingerJoint_width=1.0&amp;Flex_stretch=1.05&amp;Flex_connection=1.0&amp;Flex_distance=0.5&amp;Flex_width=5.0&amp;x=100.0&amp;y=100.0&amp;h=100.0&amp;outside=0&amp;outside=1&amp;radius=15&amp;latchsize=8&amp;thickness=3.0&amp;format=svg&amp;tabs=0.0&amp;qr_code=0&amp;debug=0&amp;labels=0&amp;labels=1&amp;reference=100&amp;inner_corners=loop&amp;burn=0.1&amp;language=en&amp;render=2</dc:source>
        <dc:source>http://www.festi.info/boxes.py/FlexBox</dc:source>
        <dc:description>Box with living hinge and round corners

Created with Boxes.py (https://festi.info/boxes.py)
Command line: boxes FlexBox --FingerJoint_angle=90.0 --FingerJoint_style=rectangular --FingerJoint_surroundingspaces=2.0 --FingerJoint_bottom_lip=0.0 --FingerJoint_edge_width=1.0 --FingerJoint_extra_length=0.0 --FingerJoint_finger=2.0 --FingerJoint_play=0.0 --FingerJoint_space=2.0 --FingerJoint_width=1.0 --Flex_stretch=1.05 --Flex_connection=1.0 --Flex_distance=0.5 --Flex_width=5.0 --x=100.0 --y=100.0 --h=100.0 --outside=0 --outside=1 --radius=15 --latchsize=8 --thickness=3.0 --format=svg --tabs=0.0 --qr_code=0 --debug=0 --labels=0 --labels=1 --reference=100 --inner_corners=loop --burn=0.1
Command line short: boxes FlexBox 
Url: http://www.festi.info/boxes.py/FlexBox?FingerJoint_angle=90.0&amp;FingerJoint_style=rectangular&amp;FingerJoint_surroundingspaces=2.0&amp;FingerJoint_bottom_lip=0.0&amp;FingerJoint_edge_width=1.0&amp;FingerJoint_extra_length=0.0&amp;FingerJoint_finger=2.0&amp;FingerJoint_play=0.0&amp;FingerJoint_space=2.0&amp;FingerJoint_width=1.0&amp;Flex_stretch=1.05&amp;Flex_connection=1.0&amp;Flex_distance=0.5&amp;Flex_width=5.0&amp;x=100.0&amp;y=100.0&amp;h=100.0&amp;outside=0&amp;outside=1&amp;radius=15&amp;latchsize=8&amp;thickness=3.0&amp;format=svg&amp;tabs=0.0&amp;qr_code=0&amp;debug=0&amp;labels=0&amp;labels=1&amp;reference=100&amp;inner_corners=loop&amp;burn=0.1&amp;language=en&amp;render=2
Url short: http://www.festi.info/boxes.py/FlexBox
SettingsUrl: http://www.festi.info/boxes.py/FlexBox?FingerJoint_angle=90.0&amp;FingerJoint_style=rectangular&amp;FingerJoint_surroundingspaces=2.0&amp;FingerJoint_bottom_lip=0.0&amp;FingerJoint_edge_width=1.0&amp;FingerJoint_extra_length=0.0&amp;FingerJoint_finger=2.0&amp;FingerJoint_play=0.0&amp;FingerJoint_space=2.0&amp;FingerJoint_width=1.0&amp;Flex_stretch=1.05&amp;Flex_connection=1.0&amp;Flex_distance=0.5&amp;Flex_width=5.0&amp;x=100.0&amp;y=100.0&amp;h=100.0&amp;outside=0&amp;outside=1&amp;radius=15&amp;latchsize=8&amp;thickness=3.0&amp;format=svg&amp;tabs=0.0&amp;qr_code=0&amp;debug=0&amp;labels=0&amp;labels=1&amp;reference=100&amp;inner_corners=loop&amp;burn=0.1&amp;language=en&amp;render=2
SettingsUrl short: http://www.festi.info/boxes.py/FlexBox
</dc:description>
      </cc:Work>
    </rdf:RDF>
  </metadata>
  <g
     id="p-0"
     style="fill:none;stroke:#000000;stroke-width:0.02;stroke-linecap:round;stroke-linejoin:round;stroke-dasharray:none;stroke-opacity:1"
     transform="translate(-9.5563509,4.5678515)">
    <path
       d="m 18.8,222.1 h 100 v -10 h -100 z"
       stroke="rgb(0,0,0)"
       stroke-width="0.20"
       id="path1"
       style="stroke:#000000;stroke-width:0.02;stroke-dasharray:none;stroke-opacity:1" />
    <text
       dominant-baseline="hanging"
       font-size="8px"
       style="font-style:normal;font-weight:normal;font-family:sans-serif;fill:#ff0000;stroke:#000000;stroke-width:0.02;stroke-dasharray:none;stroke-opacity:1"
       text-anchor="middle"
       transform="translate(68.8,213.1)"
       id="text1">100.00mm, burn:0.10mm</text>
  </g>
  <g
     id="p-1"
     style="fill:none;stroke:#000000;stroke-width:0.02;stroke-linecap:round;stroke-linejoin:round;stroke-dasharray:none;stroke-opacity:1"
     transform="translate(-16.963989,-7.1134245)">
    <path
       d="m 18.8,209.65 h 11 c 0.055,0 0.1,-0.045 0.1,-0.1 v -2.9 c 0,-0.1 -0.1,0 0,0 h 5.8 c 0.1,0 0,-0.1 0,0 v 2.9 c 0,0.055 0.045,0.1 0.1,0.1 h 6 c 0.055,0 0.1,-0.045 0.1,-0.1 v -2.9 c 0,-0.1 -0.1,0 0,0 h 5.8 c 0.1,0 0,-0.1 0,0 v 2.9 c 0,0.055 0.045,0.1 0.1,0.1 h 11 23.562 11 c 0.055,0 0.1,-0.045 0.1,-0.1 v -2.9 c 0,-0.1 -0.1,0 0,0 h 5.8 c 0.1,0 0,-0.1 0,0 v 2.9 c 0,0.055 0.045,0.1 0.1,0.1 h 6 c 0.055,0 0.1,-0.045 0.1,-0.1 v -2.9 c 0,-0.1 -0.1,0 0,0 h 5.8 c 0.1,0 0,-0.1 0,0 v 2.9 c 0,0.055 0.045,0.1 0.1,0.1 h 6 c 0.055,0 0.1,-0.045 0.1,-0.1 v -2.9 c 0,-0.1 -0.1,0 0,0 h 5.8 c 0.1,0 0,-0.1 0,0 v 2.9 c 0,0.055 0.045,0.1 0.1,0.1 h 6 c 0.055,0 0.1,-0.045 0.1,-0.1 v -2.9 c 0,-0.1 -0.1,0 0,0 h 5.8 c 0.1,0 0,-0.1 0,0 v 2.9 c 0,0.055 0.045,0.1 0.1,0.1 h 11 23.562 11 c 0.055,0 0.1,-0.045 0.1,-0.1 v -2.9 c 0,-0.1 -0.1,0 0,0 h 5.8 c 0.1,0 0,-0.1 0,0 v 2.9 c 0,0.055 0.045,0.1 0.1,0.1 h 6 c 0.055,0 0.1,-0.045 0.1,-0.1 v -2.9 c 0,-0.1 -0.1,0 0,0 h 5.8 c 0.1,0 0,-0.1 0,0 v 2.9 c 0,0.055 0.045,0.1 0.1,0.1 h 6 c 0.055,0 0.1,-0.045 0.1,-0.1 v -2.9 c 0,-0.1 -0.1,0 0,0 h 5.8 c 0.1,0 0,-0.1 0,0 v 2.9 c 0,0.055 0.045,0.1 0.1,0.1 h 6 c 0.055,0 0.1,-0.045 0.1,-0.1 v -2.9 c 0,-0.1 -0.1,0 0,0 h 5.8 c 0.1,0 0,-0.1 0,0 v 2.9 c 0,0.055 0.045,0.1 0.1,0.1 h 11 23.562 64 23.562 c 0.055,0 0.1,-0.045 0.1,-0.1 v -3.2 c 0,-0.1 -0.1,0 0,0 h 12.4 c 0.1,0 0,-0.1 0,0 v 3.2 c 0,0.149 0.039,0.296 0.114,0.425 0.074,0.129 0.182,0.237 0.311,0.311 0.129,0.075 0.276,0.114 0.425,0.114 0.126,0 0.25,-0.033 0.359,-0.096 0.109,-0.063 0.2,-0.154 0.263,-0.263 0.063,-0.11 0.097,-0.234 0.097,-0.36 0,-0.091 0.023,-0.18 0.069,-0.259 0.046,-0.079 0.111,-0.144 0.19,-0.19 0.079,-0.046 0.168,-0.069 0.259,-0.069 0.091,0 0.181,0.023 0.26,0.069 0.079,0.046 0.144,0.111 0.19,0.19 0.045,0.079 0.069,0.168 0.069,0.259 0,0.126 0.033,0.25 0.096,0.36 0.063,0.109 0.154,0.2 0.263,0.263 0.11,0.063 0.234,0.096 0.36,0.096 0.126,0 0.25,-0.033 0.359,-0.096 0.109,-0.063 0.2,-0.154 0.263,-0.263 0.063,-0.11 0.097,-0.234 0.097,-0.36 0,-0.091 0.023,-0.18 0.069,-0.259 0.046,-0.079 0.111,-0.144 0.19,-0.19 0.079,-0.046 0.168,-0.069 0.259,-0.069 0.091,0 0.181,0.023 0.26,0.069 0.079,0.046 0.144,0.111 0.19,0.19 0.045,0.079 0.069,0.168 0.069,0.259 0,0.126 0.033,0.25 0.096,0.36 0.063,0.109 0.154,0.2 0.263,0.263 0.11,0.063 0.234,0.096 0.36,0.096 0.126,0 0.25,-0.033 0.359,-0.096 0.109,-0.063 0.2,-0.154 0.263,-0.263 0.063,-0.11 0.097,-0.234 0.097,-0.36 0,-0.091 0.023,-0.18 0.069,-0.259 0.046,-0.079 0.111,-0.144 0.19,-0.19 0.079,-0.046 0.168,-0.069 0.259,-0.069 0.091,0 0.181,0.023 0.26,0.069 0.079,0.046 0.144,0.111 0.19,0.19 0.045,0.079 0.069,0.168 0.069,0.259 0,0.126 0.033,0.25 0.096,0.36 0.063,0.109 0.154,0.2 0.263,0.263 0.11,0.063 0.234,0.096 0.36,0.096 0.126,0 0.25,-0.033 0.359,-0.096 0.109,-0.063 0.2,-0.154 0.263,-0.263 0.063,-0.11 0.097,-0.234 0.097,-0.36 0,-0.091 0.023,-0.18 0.069,-0.259 0.046,-0.079 0.111,-0.144 0.19,-0.19 0.079,-0.046 0.168,-0.069 0.259,-0.069 0.091,0 0.181,0.023 0.26,0.069 0.079,0.046 0.144,0.111 0.19,0.19 0.045,0.079 0.069,0.168 0.069,0.259 0,0.126 0.033,0.25 0.096,0.36 0.063,0.109 0.154,0.2 0.263,0.263 0.11,0.063 0.234,0.096 0.36,0.096 0.149,0 0.296,-0.039 0.425,-0.114 0.129,-0.074 0.236,-0.182 0.311,-0.311 0.075,-0.129 0.114,-0.276 0.114,-0.425 v -100 c 0,-0.149 -0.039,-0.296 -0.114,-0.425 -0.075,-0.129 -0.182,-0.237 -0.311,-0.311 -0.129,-0.075 -0.276,-0.114 -0.425,-0.114 -0.126,0 -0.25,0.033 -0.36,0.096 -0.109,0.063 -0.2,0.154 -0.263,0.263 -0.063,0.11 -0.096,0.234 -0.096,0.36 0,0.091 -0.024,0.18 -0.069,0.259 -0.046,0.079 -0.111,0.144 -0.19,0.19 -0.079,0.046 -0.169,0.07 -0.26,0.07 -0.091,0 -0.18,-0.024 -0.259,-0.07 -0.079,-0.046 -0.144,-0.111 -0.19,-0.19 -0.046,-0.079 -0.069,-0.168 -0.069,-0.259 0,-0.126 -0.034,-0.25 -0.097,-0.36 -0.063,-0.109 -0.154,-0.2 -0.263,-0.263 -0.109,-0.063 -0.233,-0.096 -0.359,-0.096 -0.126,0 -0.25,0.033 -0.36,0.096 -0.109,0.063 -0.2,0.154 -0.263,0.263 -0.063,0.11 -0.096,0.234 -0.096,0.36 0,0.091 -0.024,0.18 -0.069,0.259 -0.046,0.079 -0.111,0.144 -0.19,0.19 -0.079,0.046 -0.169,0.07 -0.26,0.07 -0.091,0 -0.18,-0.024 -0.259,-0.07 -0.079,-0.046 -0.144,-0.111 -0.19,-0.19 -0.046,-0.079 -0.069,-0.168 -0.069,-0.259 0,-0.126 -0.034,-0.25 -0.097,-0.36 -0.063,-0.109 -0.154,-0.2 -0.263,-0.263 -0.109,-0.063 -0.233,-0.096 -0.359,-0.096 -0.126,0 -0.25,0.033 -0.36,0.096 -0.109,0.063 -0.2,0.154 -0.263,0.263 -0.063,0.11 -0.096,0.234 -0.096,0.36 0,0.091 -0.024,0.18 -0.069,0.259 -0.046,0.079 -0.111,0.144 -0.19,0.19 -0.079,0.046 -0.169,0.07 -0.26,0.07 -0.091,0 -0.18,-0.024 -0.259,-0.07 -0.079,-0.046 -0.144,-0.111 -0.19,-0.19 -0.046,-0.079 -0.069,-0.168 -0.069,-0.259 0,-0.126 -0.034,-0.25 -0.097,-0.36 -0.063,-0.109 -0.154,-0.2 -0.263,-0.263 -0.109,-0.063 -0.233,-0.096 -0.359,-0.096 -0.126,0 -0.25,0.033 -0.36,0.096 -0.109,0.063 -0.2,0.154 -0.263,0.263 -0.063,0.11 -0.096,0.234 -0.096,0.36 0,0.091 -0.024,0.18 -0.069,0.259 -0.046,0.079 -0.111,0.144 -0.19,0.19 -0.079,0.046 -0.169,0.069 -0.26,0.069 -0.091,0 -0.18,-0.023 -0.259,-0.069 -0.079,-0.046 -0.144,-0.111 -0.19,-0.19 -0.046,-0.079 -0.069,-0.168 -0.069,-0.259 0,-0.126 -0.034,-0.25 -0.097,-0.36 -0.063,-0.109 -0.154,-0.2 -0.263,-0.263 -0.109,-0.063 -0.233,-0.096 -0.359,-0.096 -0.149,0 -0.296,0.039 -0.425,0.114 -0.129,0.074 -0.237,0.182 -0.311,0.311 -0.075,0.129 -0.114,0.276 -0.114,0.425 v 3.2 c 0,0.1 0.1,0 0,0 h -12.4 c -0.1,0 0,0.1 0,0 v -3.2 c 0,-0.055 -0.045,-0.1 -0.1,-0.1 h -23.562 -64 -23.562 -11 c -0.055,0 -0.1,0.045 -0.1,0.1 v 2.9 c 0,0.1 0.1,0 0,0 h -5.8 c -0.1,0 0,0.1 0,0 v -2.9 c 0,-0.055 -0.045,-0.1 -0.1,-0.1 h -6 c -0.055,0 -0.1,0.045 -0.1,0.1 v 2.9 c 0,0.1 0.1,0 0,0 h -5.8 c -0.1,0 0,0.1 0,0 v -2.9 c 0,-0.055 -0.045,-0.1 -0.1,-0.1 h -6 c -0.055,0 -0.1,0.045 -0.1,0.1 v 2.9 c 0,0.1 0.1,0 0,0 h -5.8 c -0.1,0 0,0.1 0,0 v -2.9 c 0,-0.055 -0.045,-0.1 -0.1,-0.1 h -6 c -0.055,0 -0.1,0.045 -0.1,0.1 v 2.9 c 0,0.1 0.1,0 0,0 h -5.8 c -0.1,0 0,0.1 0,0 v -2.9 c 0,-0.055 -0.045,-0.1 -0.1,-0.1 h -11 -23.562 -11 c -0.055,0 -0.1,0.045 -0.1,0.1 v 2.9 c 0,0.1 0.1,0 0,0 h -5.8 c -0.1,0 0,0.1 0,0 v -2.9 c 0,-0.055 -0.045,-0.1 -0.1,-0.1 h -6 c -0.055,0 -0.1,0.045 -0.1,0.1 v 2.9 c 0,0.1 0.1,0 0,0 h -5.8 c -0.1,0 0,0.1 0,0 v -2.9 c 0,-0.055 -0.045,-0.1 -0.1,-0.1 h -6 c -0.055,0 -0.1,0.045 -0.1,0.1 v 2.9 c 0,0.1 0.1,0 0,0 h -5.8 c -0.1,0 0,0.1 0,0 v -2.9 c 0,-0.055 -0.045,-0.1 -0.1,-0.1 h -6 c -0.055,0 -0.1,0.045 -0.1,0.1 v 2.9 c 0,0.1 0.1,0 0,0 h -5.8 c -0.1,0 0,0.1 0,0 v -2.9 c 0,-0.055 -0.045,-0.1 -0.1,-0.1 h -11 -23.562 -11 c -0.055,0 -0.1,0.045 -0.1,0.1 v 2.9 c 0,0.1 0.1,0 0,0 h -5.8 c -0.1,0 0,0.1 0,0 v -2.9 c 0,-0.055 -0.045,-0.1 -0.1,-0.1 h -6 c -0.055,0 -0.1,0.045 -0.1,0.1 v 2.9 c 0,0.1 0.1,0 0,0 h -5.8 c -0.1,0 0,0.1 0,0 v -2.9 c 0,-0.055 -0.045,-0.1 -0.1,-0.1 h -11 c -0.055,0 -0.1,0.045 -0.1,0.1 v 100 c 0,0.055 0.045,0.1 0.1,0.1 z"
       stroke="rgb(0,0,0)"
       stroke-width="0.20"
       id="path2"
       style="stroke:#000000;stroke-width:0.02;stroke-dasharray:none;stroke-opacity:1" />
    <path
       d="m 60.831,209.65 v -16.2 m 0,-3 v -29.4 m 0,-3 v -29.4 m 0,-3 v -16.2 m 1.5,3 v 29.4 m 0,3 v 29.4 m 0,3 v 29.4 m 1.5,3 v -16.2 m 0,-3 v -29.4 m 0,-3 v -29.4 m 0,-3 v -16.2 m 1.5,3 v 29.4 m 0,3 v 29.4 m 0,3 v 29.4 m 1.5,3 v -16.2 m 0,-3 v -29.4 m 0,-3 v -29.4 m 0,-3 v -16.2 m 1.5,3 v 29.4 m 0,3 v 29.4 m 0,3 v 29.4 m 1.5,3 v -16.2 m 0,-3 v -29.4 m 0,-3 v -29.4 m 0,-3 v -16.2 m 1.5,3 v 29.4 m 0,3 v 29.4 m 0,3 v 29.4 m 1.5,3 v -16.2 m 0,-3 v -29.4 m 0,-3 v -29.4 m 0,-3 v -16.2 m 1.5,3 v 29.4 m 0,3 v 29.4 m 0,3 v 29.4 m 1.5,3 v -16.2 m 0,-3 v -29.4 m 0,-3 v -29.4 m 0,-3 v -16.2 m 1.5,3 v 29.4 m 0,3 v 29.4 m 0,3 v 29.4 m 1.5,3 v -16.2 m 0,-3 v -29.4 m 0,-3 v -29.4 m 0,-3 v -16.2 m 1.5,3 v 29.4 m 0,3 v 29.4 m 0,3 v 29.4"
       stroke="rgb(0,0,0)"
       stroke-width="0.20"
       id="path3"
       style="stroke:#000000;stroke-width:0.02;stroke-dasharray:none;stroke-opacity:1" />
    <path
       d="m 148.393,209.65 v -16.2 m 0,-3 v -29.4 m 0,-3 v -29.4 m 0,-3 v -16.2 m 1.5,3 v 29.4 m 0,3 v 29.4 m 0,3 v 29.4 m 1.5,3 v -16.2 m 0,-3 v -29.4 m 0,-3 v -29.4 m 0,-3 v -16.2 m 1.5,3 v 29.4 m 0,3 v 29.4 m 0,3 v 29.4 m 1.5,3 v -16.2 m 0,-3 v -29.4 m 0,-3 v -29.4 m 0,-3 v -16.2 m 1.5,3 v 29.4 m 0,3 v 29.4 m 0,3 v 29.4 m 1.5,3 v -16.2 m 0,-3 v -29.4 m 0,-3 v -29.4 m 0,-3 v -16.2 m 1.5,3 v 29.4 m 0,3 v 29.4 m 0,3 v 29.4 m 1.5,3 v -16.2 m 0,-3 v -29.4 m 0,-3 v -29.4 m 0,-3 v -16.2 m 1.5,3 v 29.4 m 0,3 v 29.4 m 0,3 v 29.4 m 1.5,3 v -16.2 m 0,-3 v -29.4 m 0,-3 v -29.4 m 0,-3 v -16.2 m 1.5,3 v 29.4 m 0,3 v 29.4 m 0,3 v 29.4 m 1.5,3 v -16.2 m 0,-3 v -29.4 m 0,-3 v -29.4 m 0,-3 v -16.2 m 1.5,3 v 29.4 m 0,3 v 29.4 m 0,3 v 29.4"
       stroke="rgb(0,0,0)"
       stroke-width="0.20"
       id="path4"
       style="stroke:#000000;stroke-width:0.02;stroke-dasharray:none;stroke-opacity:1" />
    <path
       d="m 235.955,209.65 v -16.2 m 0,-3 v -29.4 m 0,-3 v -29.4 m 0,-3 v -16.2 m 1.5,3 v 29.4 m 0,3 v 29.4 m 0,3 v 29.4 m 1.5,3 v -16.2 m 0,-3 v -29.4 m 0,-3 v -29.4 m 0,-3 v -16.2 m 1.5,3 v 29.4 m 0,3 v 29.4 m 0,3 v 29.4 m 1.5,3 v -16.2 m 0,-3 v -29.4 m 0,-3 v -29.4 m 0,-3 v -16.2 m 1.5,3 v 29.4 m 0,3 v 29.4 m 0,3 v 29.4 m 1.5,3 v -16.2 m 0,-3 v -29.4 m 0,-3 v -29.4 m 0,-3 v -16.2 m 1.5,3 v 29.4 m 0,3 v 29.4 m 0,3 v 29.4 m 1.5,3 v -16.2 m 0,-3 v -29.4 m 0,-3 v -29.4 m 0,-3 v -16.2 m 1.5,3 v 29.4 m 0,3 v 29.4 m 0,3 v 29.4 m 1.5,3 v -16.2 m 0,-3 v -29.4 m 0,-3 v -29.4 m 0,-3 v -16.2 m 1.5,3 v 29.4 m 0,3 v 29.4 m 0,3 v 29.4 m 1.5,3 v -16.2 m 0,-3 v -29.4 m 0,-3 v -29.4 m 0,-3 v -16.2 m 1.5,3 v 29.4 m 0,3 v 29.4 m 0,3 v 29.4"
       stroke="rgb(0,0,0)"
       stroke-width="0.20"
       id="path5"
       style="stroke:#000000;stroke-width:0.02;stroke-dasharray:none;stroke-opacity:1" />
    <path
       d="m 323.517,209.65 v -16.2 m 0,-3 v -29.4 m 0,-3 v -29.4 m 0,-3 v -16.2 m 1.5,3 v 29.4 m 0,3 v 29.4 m 0,3 v 29.4 m 1.5,3 v -16.2 m 0,-3 v -29.4 m 0,-3 v -29.4 m 0,-3 v -16.2 m 1.5,3 v 29.4 m 0,3 v 29.4 m 0,3 v 29.4 m 1.5,3 v -16.2 m 0,-3 v -29.4 m 0,-3 v -29.4 m 0,-3 v -16.2 m 1.5,3 v 29.4 m 0,3 v 29.4 m 0,3 v 29.4 m 1.5,3 v -16.2 m 0,-3 v -29.4 m 0,-3 v -29.4 m 0,-3 v -16.2 m 1.5,3 v 29.4 m 0,3 v 29.4 m 0,3 v 29.4 m 1.5,3 v -16.2 m 0,-3 v -29.4 m 0,-3 v -29.4 m 0,-3 v -16.2 m 1.5,3 v 29.4 m 0,3 v 29.4 m 0,3 v 29.4 m 1.5,3 v -16.2 m 0,-3 v -29.4 m 0,-3 v -29.4 m 0,-3 v -16.2 m 1.5,3 v 29.4 m 0,3 v 29.4 m 0,3 v 29.4 m 1.5,3 v -16.2 m 0,-3 v -29.4 m 0,-3 v -29.4 m 0,-3 v -16.2 m 1.5,3 v 29.4 m 0,3 v 29.4 m 0,3 v 29.4"
       stroke="rgb(0,0,0)"
       stroke-width="0.20"
       id="path6"
       style="stroke:#000000;stroke-width:0.02;stroke-dasharray:none;stroke-opacity:1" />
  </g>
  <g
     id="p-2"
     style="fill:none;stroke:#000000;stroke-width:0.02;stroke-linecap:round;stroke-linejoin:round;stroke-dasharray:none;stroke-opacity:1"
     transform="translate(-16.963989,-7.1134245)">
    <path
       d="m 36.8,104.2 h 10.9 c 0.1,0 0,-0.1 0,0 v 2.9 c 0,0.055 0.045,0.1 0.1,0.1 h 6 c 0.055,0 0.1,-0.045 0.1,-0.1 v -2.9 c 0,-0.1 -0.1,0 0,0 h 5.8 c 0.1,0 0,-0.1 0,0 v 2.9 c 0,0.055 0.045,0.1 0.1,0.1 h 6 c 0.055,0 0.1,-0.045 0.1,-0.1 v -2.9 c 0,-0.1 -0.1,0 0,0 h 5.8 c 0.1,0 0,-0.1 0,0 v 2.9 c 0,0.055 0.045,0.1 0.1,0.1 h 6 c 0.055,0 0.1,-0.045 0.1,-0.1 v -2.9 c 0,-0.1 -0.1,0 0,0 h 5.8 c 0.1,0 0,-0.1 0,0 v 2.9 c 0,0.055 0.045,0.1 0.1,0.1 h 6 c 0.055,0 0.1,-0.045 0.1,-0.1 v -2.9 c 0,-0.1 -0.1,0 0,0 h 10.9 c 2.651,0 5.255,-0.698 7.55,-2.023 2.295,-1.325 4.202,-3.232 5.527,-5.527 1.325,-2.295 2.023,-4.899 2.023,-7.55 V 78.2 c 0,-0.1 -0.1,0 0,0 h 2.9 c 0.055,0 0.1,-0.045 0.1,-0.1 v -6 c 0,-0.055 -0.045,-0.1 -0.1,-0.1 h -2.9 c -0.1,0 0,0.1 0,0 v -5.8 c 0,-0.1 -0.1,0 0,0 h 2.9 c 0.055,0 0.1,-0.045 0.1,-0.1 v -6 c 0,-0.055 -0.045,-0.1 -0.1,-0.1 h -2.9 c -0.1,0 0,0.1 0,0 v -5.8 c 0,-0.1 -0.1,0 0,0 h 2.9 c 0.055,0 0.1,-0.045 0.1,-0.1 v -6 c 0,-0.055 -0.045,-0.1 -0.1,-0.1 h -2.9 c -0.1,0 0,0.1 0,0 v -5.8 c 0,-0.1 -0.1,0 0,0 h 2.9 c 0.055,0 0.1,-0.045 0.1,-0.1 v -6 c 0,-0.055 -0.045,-0.1 -0.1,-0.1 h -2.9 c -0.1,0 0,0.1 0,0 V 25.1 c 0,-2.651 -0.698,-5.255 -2.023,-7.55 -1.325,-2.295 -3.232,-4.202 -5.527,-5.527 C 106.055,10.698 103.451,10 100.8,10 h -64 c -2.651,0 -5.255,0.698 -7.55,2.023 -2.295,1.325 -4.202,3.232 -5.527,5.527 -1.325,2.295 -2.023,4.899 -2.023,7.55 0,-0.055 0.045,-0.1 0.1,-0.1 h -3 c -0.055,0 -0.1,0.045 -0.1,0.1 v 12 c 0,0.055 0.045,0.1 0.1,0.1 h 2.9 c 0.1,0 0,-0.1 0,0 V 49.1 60 c 0,0.1 0.1,0 0,0 h -2.9 c -0.055,0 -0.1,0.045 -0.1,0.1 v 6 c 0,0.055 0.045,0.1 0.1,0.1 h 2.9 c 0.1,0 0,-0.1 0,0 V 72 c 0,0.1 0.1,0 0,0 h -2.9 c -0.055,0 -0.1,0.045 -0.1,0.1 v 6 c 0,0.055 0.045,0.1 0.1,0.1 h 2.9 c 0.1,0 0,-0.1 0,0 v 10.9 c 0,2.651 0.698,5.255 2.023,7.55 1.325,2.295 3.232,4.202 5.527,5.527 2.295,1.325 4.899,2.023 7.55,2.023 z"
       stroke="rgb(0,0,0)"
       stroke-width="0.20"
       id="path7"
       style="stroke:#000000;stroke-width:0.02;stroke-dasharray:none;stroke-opacity:1" />
  </g>
  <g
     id="p-3"
     style="fill:none;stroke:#000000;stroke-width:0.02;stroke-linecap:round;stroke-linejoin:round;stroke-dasharray:none;stroke-opacity:1"
     transform="translate(-16.963989,-7.1134245)">
    <path
       d="m 202.5,104.2 h -10.9 c -0.1,0 0,-0.1 0,0 v 2.9 c 0,0.055 -0.045,0.1 -0.1,0.1 h -6 c -0.055,0 -0.1,-0.045 -0.1,-0.1 v -2.9 c 0,-0.1 0.1,0 0,0 h -5.8 c -0.1,0 0,-0.1 0,0 v 2.9 c 0,0.055 -0.045,0.1 -0.1,0.1 h -6 c -0.055,0 -0.1,-0.045 -0.1,-0.1 v -2.9 c 0,-0.1 0.1,0 0,0 h -5.8 c -0.1,0 0,-0.1 0,0 v 2.9 c 0,0.055 -0.045,0.1 -0.1,0.1 h -6 c -0.055,0 -0.1,-0.045 -0.1,-0.1 v -2.9 c 0,-0.1 0.1,0 0,0 h -5.8 c -0.1,0 0,-0.1 0,0 v 2.9 c 0,0.055 -0.045,0.1 -0.1,0.1 h -6 c -0.055,0 -0.1,-0.045 -0.1,-0.1 v -2.9 c 0,-0.1 0.1,0 0,0 h -10.9 c -2.651,0 -5.255,-0.698 -7.55,-2.023 -2.295,-1.325 -4.202,-3.232 -5.527,-5.527 C 124.098,94.355 123.4,91.751 123.4,89.1 V 78.2 c 0,-0.1 0.1,0 0,0 h -2.9 c -0.055,0 -0.1,-0.045 -0.1,-0.1 v -6 c 0,-0.055 0.045,-0.1 0.1,-0.1 h 2.9 c 0.1,0 0,0.1 0,0 v -5.8 c 0,-0.1 0.1,0 0,0 h -2.9 c -0.055,0 -0.1,-0.045 -0.1,-0.1 v -6 c 0,-0.055 0.045,-0.1 0.1,-0.1 h 2.9 c 0.1,0 0,0.1 0,0 v -5.8 c 0,-0.1 0.1,0 0,0 h -2.9 c -0.055,0 -0.1,-0.045 -0.1,-0.1 v -6 c 0,-0.055 0.045,-0.1 0.1,-0.1 h 2.9 c 0.1,0 0,0.1 0,0 v -5.8 c 0,-0.1 0.1,0 0,0 h -2.9 c -0.055,0 -0.1,-0.045 -0.1,-0.1 v -6 c 0,-0.055 0.045,-0.1 0.1,-0.1 h 2.9 c 0.1,0 0,0.1 0,0 V 25.1 c 0,-2.651 0.698,-5.255 2.023,-7.55 1.325,-2.295 3.232,-4.202 5.527,-5.527 C 133.245,10.698 135.849,10 138.5,10 h 64 c 2.651,0 5.255,0.698 7.55,2.023 2.295,1.325 4.202,3.232 5.527,5.527 1.325,2.295 2.023,4.899 2.023,7.55 0,-0.055 -0.045,-0.1 -0.1,-0.1 h 3 c 0.055,0 0.1,0.045 0.1,0.1 v 12 c 0,0.055 -0.045,0.1 -0.1,0.1 h -2.9 c -0.1,0 0,-0.1 0,0 V 49.1 60 c 0,0.1 -0.1,0 0,0 h 2.9 c 0.055,0 0.1,0.045 0.1,0.1 v 6 c 0,0.055 -0.045,0.1 -0.1,0.1 h -2.9 c -0.1,0 0,-0.1 0,0 V 72 c 0,0.1 -0.1,0 0,0 h 2.9 c 0.055,0 0.1,0.045 0.1,0.1 v 6 c 0,0.055 -0.045,0.1 -0.1,0.1 h -2.9 c -0.1,0 0,-0.1 0,0 v 10.9 c 0,2.651 -0.698,5.255 -2.023,7.55 -1.325,2.295 -3.232,4.202 -5.527,5.527 -2.295,1.325 -4.899,2.023 -7.55,2.023 z"
       stroke="rgb(0,0,0)"
       stroke-width="0.20"
       id="path8"
       style="stroke:#000000;stroke-width:0.02;stroke-dasharray:none;stroke-opacity:1" />
  </g>
  <rect
     style="fill:none;stroke:#000000;stroke-width:0.02"
     id="rect1"
     width="355.28171"
     height="206.55914"
     x="0.0099999998"
     y="0.0099999998"
     ry="0.95926702" />
</svg>
