<?xml version="1.0" encoding="UTF-8" standalone="no"?>
<svg
   height="98.243843mm"
   viewBox="0 0 374.61676 98.243846"
   width="374.61676mm"
   version="1.1"
   id="svg2"
   sodipodi:docname="LaptopStand 0.10k 400x100.svg"
   inkscape:version="1.3.2 (091e20e, 2023-11-25, custom)"
   xmlns:inkscape="http://www.inkscape.org/namespaces/inkscape"
   xmlns:sodipodi="http://sodipodi.sourceforge.net/DTD/sodipodi-0.dtd"
   xmlns="http://www.w3.org/2000/svg"
   xmlns:svg="http://www.w3.org/2000/svg"
   xmlns:rdf="http://www.w3.org/1999/02/22-rdf-syntax-ns#"
   xmlns:cc="http://creativecommons.org/ns#"
   xmlns:dc="http://purl.org/dc/elements/1.1/">
  <defs
     id="defs2" />
  <sodipodi:namedview
     id="namedview2"
     pagecolor="#ffffff"
     bordercolor="#000000"
     borderopacity="0.25"
     inkscape:showpageshadow="2"
     inkscape:pageopacity="0.0"
     inkscape:pagecheckerboard="0"
     inkscape:deskcolor="#d1d1d1"
     inkscape:document-units="mm"
     inkscape:zoom="1.2579472"
     inkscape:cx="691.60295"
     inkscape:cy="202.31374"
     inkscape:window-width="2560"
     inkscape:window-height="1377"
     inkscape:window-x="-8"
     inkscape:window-y="-8"
     inkscape:window-maximized="1"
     inkscape:current-layer="p-1" />
  <!--
LaptopStand - A simple X shaped frame to support a laptop on a given angle

Created with Boxes.py (https://festi.info/boxes.py)
Creation date: 2024-04-09 11:06:49
Command line (remove spaces between dashes): boxes LaptopStand 
Url: http://www.festi.info/boxes.py/LaptopStand?l_depth=250&l_thickness=10&angle=15&ground_offset=10&nub_size=10&thickness=3.0&format=svg&tabs=0.0&qr_code=0&debug=0&labels=0&labels=1&reference=100&inner_corners=loop&burn=0.1&language=en&render=2
Url short: http://www.festi.info/boxes.py/LaptopStand
SettingsUrl: http://www.festi.info/boxes.py/LaptopStand?l_depth=250&l_thickness=10&angle=15&ground_offset=10&nub_size=10&thickness=3.0&format=svg&tabs=0.0&qr_code=0&debug=0&labels=0&labels=1&reference=100&inner_corners=loop&burn=0.1&language=en&render=2
SettingsUrl short: http://www.festi.info/boxes.py/LaptopStand
-->
  <title
     id="title1">LaptopStand</title>
  <metadata
     id="metadata1">
    <rdf:RDF>
      <cc:Work>
        <dc:title>LaptopStand</dc:title>
        <dc:date>2024-04-09 11:06:49</dc:date>
        <dc:source>http://www.festi.info/boxes.py/LaptopStand?l_depth=250&amp;l_thickness=10&amp;angle=15&amp;ground_offset=10&amp;nub_size=10&amp;thickness=3.0&amp;format=svg&amp;tabs=0.0&amp;qr_code=0&amp;debug=0&amp;labels=0&amp;labels=1&amp;reference=100&amp;inner_corners=loop&amp;burn=0.1&amp;language=en&amp;render=2</dc:source>
        <dc:source>http://www.festi.info/boxes.py/LaptopStand</dc:source>
        <dc:description>A simple X shaped frame to support a laptop on a given angle

Created with Boxes.py (https://festi.info/boxes.py)
Command line: boxes LaptopStand --l_depth=250 --l_thickness=10 --angle=15 --ground_offset=10 --nub_size=10 --thickness=3.0 --format=svg --tabs=0.0 --qr_code=0 --debug=0 --labels=0 --labels=1 --reference=100 --inner_corners=loop --burn=0.1
Command line short: boxes LaptopStand 
Url: http://www.festi.info/boxes.py/LaptopStand?l_depth=250&amp;l_thickness=10&amp;angle=15&amp;ground_offset=10&amp;nub_size=10&amp;thickness=3.0&amp;format=svg&amp;tabs=0.0&amp;qr_code=0&amp;debug=0&amp;labels=0&amp;labels=1&amp;reference=100&amp;inner_corners=loop&amp;burn=0.1&amp;language=en&amp;render=2
Url short: http://www.festi.info/boxes.py/LaptopStand
SettingsUrl: http://www.festi.info/boxes.py/LaptopStand?l_depth=250&amp;l_thickness=10&amp;angle=15&amp;ground_offset=10&amp;nub_size=10&amp;thickness=3.0&amp;format=svg&amp;tabs=0.0&amp;qr_code=0&amp;debug=0&amp;labels=0&amp;labels=1&amp;reference=100&amp;inner_corners=loop&amp;burn=0.1&amp;language=en&amp;render=2
SettingsUrl short: http://www.festi.info/boxes.py/LaptopStand
</dc:description>
      </cc:Work>
    </rdf:RDF>
  </metadata>
  <g
     id="p-0"
     style="fill:none;stroke-linecap:round;stroke-linejoin:round"
     transform="translate(-14.92339,10.945603)">
    <path
       d="m 18.8,108.205 h 100 v -10 h -100 z"
       stroke="#000000"
       stroke-width="0.2"
       id="path1" />
    <text
       dominant-baseline="hanging"
       font-size="8px"
       style="font-style:normal;font-weight:normal;font-family:sans-serif;fill:#ff0000"
       text-anchor="middle"
       transform="translate(68.8,99.205)"
       id="text1">100.00mm, burn:0.10mm</text>
  </g>
  <g
     id="p-1"
     style="fill:none;stroke-linecap:round;stroke-linejoin:round;stroke:#000000;stroke-opacity:1;stroke-width:0.02;stroke-dasharray:none"
     transform="translate(-14.92339,-5.458565)">
    <path
       d="m 32.373,21.8 v 74.705 c 0,0.055 0.045,0.1 0.1,0.1 h 20 c 0.026,0 0.052,-0.011 0.071,-0.03 l 3.506,-3.506 c 0.029,-0.029 -0.042,0 0,0 h 145.712 c 0.055,0 0.1,-0.045 0.1,-0.1 V 75.393 c 0,-0.1 -0.1,0 0,0 h 2.8 c 0.1,0 0,-0.1 0,0 v 17.576 c 0,0.055 0.044,0.1 0.1,0.1 h 145.711 c 0.042,0 -0.029,-0.029 0,0 l 3.507,3.506 c 0.018,0.019 0.044,0.03 0.07,0.03 h 28.284 c 0.048,0 0.089,-0.034 0.098,-0.082 l 3.403,-17.963 c 0.036,-0.19 0.022,-0.386 -0.042,-0.568 -0.064,-0.182 -0.174,-0.345 -0.321,-0.471 -0.146,-0.126 -0.323,-0.211 -0.513,-0.247 l -7.86,-1.489 c -0.19,-0.036 -0.385,-0.021 -0.568,0.042 -0.182,0.064 -0.344,0.175 -0.47,0.321 -0.126,0.146 -0.211,0.323 -0.247,0.513 l -1.843,9.727 c -0.019,0.098 0.098,0.019 0,0 L 32.563,21.702 c -0.02,-0.004 -0.04,-0.002 -0.058,0.006 -0.018,0.007 -0.033,0.02 -0.044,0.037 -0.011,0.016 -0.017,0.035 -0.017,0.055 M 372.179,84.805 V 10.1 c 0,-0.055 -0.044,-0.1 -0.1,-0.1 h -20 c -0.026,0 -0.052,0.011 -0.07,0.029 l -3.507,3.507 c -0.029,0.029 0.042,0 0,0 H 54.079 c -0.042,0 0.029,0.029 0,0 L 50.573,10.029 C 50.554,10.011 50.528,10 50.502,10 H 22.219 c -0.048,0 -0.09,0.034 -0.099,0.081 l -3.403,17.964 c -0.036,0.19 -0.021,0.386 0.042,0.568 0.064,0.182 0.175,0.344 0.321,0.47 0.146,0.126 0.323,0.212 0.513,0.248 l 7.86,1.489 c 0.19,0.036 0.386,0.021 0.568,-0.043 0.182,-0.063 0.344,-0.174 0.47,-0.32 0.126,-0.147 0.212,-0.323 0.248,-0.513 l 1.842,-9.727 c 0.019,-0.098 -0.098,-0.019 0,0 l 169.155,32.049 c 0.02,0.004 0.04,0.002 0.058,-0.006 0.018,-0.007 0.033,-0.02 0.044,-0.037 0.011,-0.016 0.017,-0.035 0.017,-0.055 V 31.376 c 0,-0.1 -0.1,0 0,0 h 2.8 c 0.1,0 0,-0.1 0,0 v 21.361 c 0,0.048 0.034,0.089 0.081,0.098 L 371.99,84.903 c 0.019,0.004 0.039,0.002 0.057,-0.006 0.018,-0.008 0.034,-0.021 0.045,-0.037 0.01,-0.016 0.016,-0.036 0.016,-0.055"
       stroke="#000000"
       stroke-width="0.2"
       id="path2"
       style="stroke:#000000;stroke-opacity:1;stroke-width:0.02;stroke-dasharray:none" />
  </g>
  <rect
     style="fill:none;stroke:#000000;stroke-width:0.02;stroke-opacity:1;stroke-dasharray:none"
     id="rect2"
     width="374.59677"
     height="98.223846"
     x="0.0099999998"
     y="0.0099999998"
     ry="0.95926702" />
</svg>
