<?xml version="1.0" encoding="UTF-8" standalone="no"?>
<svg
   height="99.764008mm"
   viewBox="0 0 376.90082 99.76401"
   width="376.90082mm"
   version="1.1"
   id="svg2"
   sodipodi:docname="LaptopStand 0.15k 400x100.svg"
   inkscape:version="1.3.2 (091e20e, 2023-11-25, custom)"
   xmlns:inkscape="http://www.inkscape.org/namespaces/inkscape"
   xmlns:sodipodi="http://sodipodi.sourceforge.net/DTD/sodipodi-0.dtd"
   xmlns="http://www.w3.org/2000/svg"
   xmlns:svg="http://www.w3.org/2000/svg"
   xmlns:rdf="http://www.w3.org/1999/02/22-rdf-syntax-ns#"
   xmlns:cc="http://creativecommons.org/ns#"
   xmlns:dc="http://purl.org/dc/elements/1.1/">
  <defs
     id="defs2" />
  <sodipodi:namedview
     id="namedview2"
     pagecolor="#ffffff"
     bordercolor="#000000"
     borderopacity="0.25"
     inkscape:showpageshadow="2"
     inkscape:pageopacity="0.0"
     inkscape:pagecheckerboard="0"
     inkscape:deskcolor="#d1d1d1"
     inkscape:document-units="mm"
     inkscape:zoom="1.2573437"
     inkscape:cx="711.81808"
     inkscape:cy="203.20617"
     inkscape:window-width="2560"
     inkscape:window-height="1377"
     inkscape:window-x="-8"
     inkscape:window-y="-8"
     inkscape:window-maximized="1"
     inkscape:current-layer="svg2" />
  <!--
LaptopStand - A simple X shaped frame to support a laptop on a given angle

Created with Boxes.py (https://festi.info/boxes.py)
Creation date: 2024-04-09 11:09:27
Command line (remove spaces between dashes): boxes LaptopStand - -burn=0.15
Url: http://www.festi.info/boxes.py/LaptopStand?l_depth=250&l_thickness=10&angle=15&ground_offset=10&nub_size=10&thickness=3.0&format=svg&tabs=0.0&qr_code=0&debug=0&labels=0&labels=1&reference=100&inner_corners=loop&burn=0.15&language=en&render=2
Url short: http://www.festi.info/boxes.py/LaptopStand?burn=0.15
SettingsUrl: http://www.festi.info/boxes.py/LaptopStand?l_depth=250&l_thickness=10&angle=15&ground_offset=10&nub_size=10&thickness=3.0&format=svg&tabs=0.0&qr_code=0&debug=0&labels=0&labels=1&reference=100&inner_corners=loop&burn=0.15&language=en&render=2
SettingsUrl short: http://www.festi.info/boxes.py/LaptopStand?burn=0.15
-->
  <title
     id="title1">LaptopStand</title>
  <metadata
     id="metadata1">
    <rdf:RDF>
      <cc:Work>
        <dc:title>Misc - LaptopStand</dc:title>
        <dc:date>2024-04-09 11:09:27</dc:date>
        <dc:source>http://www.festi.info/boxes.py/LaptopStand?l_depth=250&amp;l_thickness=10&amp;angle=15&amp;ground_offset=10&amp;nub_size=10&amp;thickness=3.0&amp;format=svg&amp;tabs=0.0&amp;qr_code=0&amp;debug=0&amp;labels=0&amp;labels=1&amp;reference=100&amp;inner_corners=loop&amp;burn=0.15&amp;language=en&amp;render=2</dc:source>
        <dc:source>http://www.festi.info/boxes.py/LaptopStand?burn=0.15</dc:source>
        <dc:description>A simple X shaped frame to support a laptop on a given angle

Created with Boxes.py (https://festi.info/boxes.py)
Command line: boxes LaptopStand --l_depth=250 --l_thickness=10 --angle=15 --ground_offset=10 --nub_size=10 --thickness=3.0 --format=svg --tabs=0.0 --qr_code=0 --debug=0 --labels=0 --labels=1 --reference=100 --inner_corners=loop --burn=0.15
Command line short: boxes LaptopStand --burn=0.15
Url: http://www.festi.info/boxes.py/LaptopStand?l_depth=250&amp;l_thickness=10&amp;angle=15&amp;ground_offset=10&amp;nub_size=10&amp;thickness=3.0&amp;format=svg&amp;tabs=0.0&amp;qr_code=0&amp;debug=0&amp;labels=0&amp;labels=1&amp;reference=100&amp;inner_corners=loop&amp;burn=0.15&amp;language=en&amp;render=2
Url short: http://www.festi.info/boxes.py/LaptopStand?burn=0.15
SettingsUrl: http://www.festi.info/boxes.py/LaptopStand?l_depth=250&amp;l_thickness=10&amp;angle=15&amp;ground_offset=10&amp;nub_size=10&amp;thickness=3.0&amp;format=svg&amp;tabs=0.0&amp;qr_code=0&amp;debug=0&amp;labels=0&amp;labels=1&amp;reference=100&amp;inner_corners=loop&amp;burn=0.15&amp;language=en&amp;render=2
SettingsUrl short: http://www.festi.info/boxes.py/LaptopStand?burn=0.15
</dc:description>
      </cc:Work>
    </rdf:RDF>
  </metadata>
  <g
     id="p-0"
     style="fill:none;stroke-linecap:round;stroke-linejoin:round"
     transform="translate(-14.299266,22.755027)">
    <path
       d="m 18.8,108.455 h 100 v -10 h -100 z"
       stroke="#000000"
       stroke-width="0.3"
       id="path1" />
    <text
       dominant-baseline="hanging"
       font-size="8px"
       style="font-style:normal;font-weight:normal;font-family:sans-serif;fill:#ff0000"
       text-anchor="middle"
       transform="translate(68.8,99.455)"
       id="text1">100.00mm, burn:0.15mm</text>
  </g>
  <g
     id="p-1"
     style="fill:none;stroke-linecap:round;stroke-linejoin:round;stroke:#000000;stroke-opacity:1;stroke-width:0.02;stroke-dasharray:none"
     transform="translate(-12.615823,-5.4611905)">
    <path
       d="m 32.473,21.95 v 74.705 c 0,0.083 0.067,0.15 0.15,0.15 h 20 c 0.04,0 0.078,-0.016 0.106,-0.044 l 3.492,-3.492 c 0.044,-0.044 -0.063,0 0,0 h 145.691 c 0.082,0 0.15,-0.067 0.15,-0.15 V 75.593 c 0,-0.15 -0.15,0 0,0 h 2.7 c 0.15,0 0,-0.15 0,0 v 17.526 c 0,0.083 0.067,0.15 0.15,0.15 h 145.691 c 0.062,0 -0.044,-0.044 0,0 l 3.491,3.492 c 0.028,0.028 0.067,0.044 0.106,0.044 h 28.284 c 0.072,0 0.134,-0.052 0.147,-0.122 l 3.403,-17.964 c 0.038,-0.198 0.023,-0.403 -0.044,-0.594 -0.066,-0.19 -0.182,-0.36 -0.335,-0.492 -0.153,-0.131 -0.338,-0.22 -0.536,-0.258 l -7.86,-1.489 c -0.199,-0.038 -0.404,-0.022 -0.594,0.044 -0.191,0.067 -0.36,0.182 -0.492,0.335 -0.132,0.153 -0.221,0.338 -0.258,0.537 l -1.834,9.677 c -0.028,0.148 0.147,0.028 0,0 L 32.722,21.803 c -0.029,-0.006 -0.059,-0.003 -0.086,0.009 -0.027,0.011 -0.051,0.03 -0.067,0.055 -0.016,0.025 -0.025,0.053 -0.025,0.083 M 372.179,84.855 V 10.15 c 0,-0.083 -0.067,-0.15 -0.15,-0.15 h -20 c -0.04,0 -0.078,0.016 -0.106,0.044 l -3.491,3.492 c -0.044,0.043 0.062,0 0,0 H 54.05 c -0.063,0 0.043,0.043 0,0 L 50.558,10.044 C 50.53,10.016 50.492,10 50.452,10 H 22.169 c -0.072,0 -0.134,0.051 -0.148,0.122 l -3.403,17.964 c -0.038,0.198 -0.023,0.403 0.044,0.593 0.067,0.191 0.182,0.361 0.335,0.492 0.153,0.132 0.338,0.221 0.537,0.259 l 7.86,1.489 c 0.198,0.038 0.403,0.022 0.593,-0.044 0.191,-0.067 0.361,-0.183 0.492,-0.336 0.132,-0.153 0.221,-0.338 0.259,-0.536 l 1.833,-9.678 c 0.028,-0.147 -0.147,-0.028 0,0 l 169.106,32.041 c 0.029,0.005 0.059,0.002 0.086,-0.01 0.027,-0.011 0.051,-0.03 0.067,-0.055 0.016,-0.024 0.025,-0.053 0.025,-0.083 V 31.476 c 0,-0.15 -0.15,0 0,0 h 2.7 c 0.15,0 0,-0.15 0,0 v 21.311 c 0,0.072 0.051,0.134 0.122,0.147 L 371.93,85.002 c 0.029,0.006 0.059,0.002 0.086,-0.009 0.028,-0.011 0.051,-0.031 0.067,-0.055 0.017,-0.025 0.025,-0.054 0.025,-0.083"
       stroke="#000000"
       stroke-width="0.3"
       id="path2"
       style="stroke:#000000;stroke-opacity:1;stroke-width:0.02;stroke-dasharray:none" />
  </g>
  <rect
     style="fill:none;stroke:#000000;stroke-width:0.02;stroke-opacity:1;stroke-dasharray:none"
     id="rect2"
     width="376.88083"
     height="99.744011"
     x="0.0099999998"
     y="0.0099999998"
     ry="0.95926702" />
</svg>
